SplineFontDB: 3.0
FontName: Allan-Regular
FullName: Allan
FamilyName: Allan
Weight: Book
Copyright: Copyright (c) 2010-2012, Anton Koovit (anton@korkork.com), with Reserved Font Name 'Allan'
Version: 1.001
ItalicAngle: 0
UnderlinePosition: -204
UnderlineWidth: 102
Ascent: 1638
Descent: 410
sfntRevision: 0x00010000
LayerCount: 2
Layer: 0 1 "Back"  1 0
Layer: 1 1 "Fore"  0 0
XUID: [1021 640 1160103500 1550483]
FSType: 0
OS2Version: 2
OS2_WeightWidthSlopeOnly: 0
OS2_UseTypoMetrics: 1
CreationTime: 1332240476
ModificationTime: 1334008489
PfmFamily: 17
TTFWeight: 400
TTFWidth: 5
LineGap: 0
VLineGap: 0
Panose: 2 11 6 0 4 2 0 13 2 4
OS2TypoAscent: 1928
OS2TypoAOffset: 0
OS2TypoDescent: -412
OS2TypoDOffset: 0
OS2TypoLinegap: 0
OS2WinAscent: 1928
OS2WinAOffset: 0
OS2WinDescent: 412
OS2WinDOffset: 0
HheadAscent: 1928
HheadAOffset: 0
HheadDescent: -412
HheadDOffset: 0
OS2SubXSize: 1331
OS2SubYSize: 1433
OS2SubXOff: 0
OS2SubYOff: 287
OS2SupXSize: 1434
OS2SupYSize: 1331
OS2SupXOff: 0
OS2SupYOff: 977
OS2StrikeYSize: 102
OS2StrikeYPos: 1085
OS2Vendor: 'KORK'
OS2CodePages: 00000001.00000000
OS2UnicodeRanges: 80000067.0000004b.00000000.00000000
Lookup: 1 0 0 "'titl' Titling lookup 0"  {"'titl' Titling lookup 0 subtable"  } ['titl' ('    ' <'dflt' > 'latn' <'dflt' > ) ]
Lookup: 258 0 0 "'kern' Horizontal Kerning lookup 0"  {"'kern' Horizontal Kerning lookup 0 subtable"  } ['kern' ('    ' <'dflt' > 'latn' <'dflt' > ) ]
DEI: 91125
TtTable: prep
PUSHW_1
 511
SCANCTRL
SVTCA[y-axis]
MPPEM
PUSHB_1
 8
LT
IF
PUSHB_2
 1
 1
INSTCTRL
EIF
PUSHB_2
 70
 6
CALL
IF
POP
PUSHB_1
 16
EIF
MPPEM
PUSHB_1
 20
GT
IF
POP
PUSHB_1
 128
EIF
SCVTCI
PUSHB_1
 6
CALL
NOT
IF
SVTCA[y-axis]
PUSHB_1
 6
DUP
RCVT
PUSHB_1
 3
CALL
WCVTP
PUSHB_1
 8
DUP
RCVT
PUSHB_3
 6
 80
 2
CALL
PUSHB_1
 3
CALL
WCVTP
PUSHB_1
 7
DUP
RCVT
PUSHB_3
 8
 22
 2
CALL
PUSHB_1
 3
CALL
WCVTP
PUSHB_1
 9
DUP
RCVT
PUSHB_3
 6
 195
 2
CALL
PUSHB_1
 3
CALL
WCVTP
PUSHB_1
 10
DUP
RCVT
PUSHB_3
 9
 21
 2
CALL
PUSHB_1
 3
CALL
WCVTP
SVTCA[x-axis]
PUSHB_1
 11

StartChar: .notdef
Encoding: 65536 -1 0
Width: 1495
Flags: W
LayerCount: 2
Fore
SplineSet
1437 1432 m 1,0,-1
 1069 55 l 2,1,2
 1061 23 1061 23 1044.5 11.5 c 128,-1,3
 1028 0 1028 0 995 0 c 2,4,-1
 180 0 l 2,5,6
 118 0 118 0 139 70 c 1,7,-1
 501 1430 l 2,8,9
 516 1483 516 1483 569 1483 c 2,10,-1
 1398 1483 l 2,11,12
 1452 1483 1452 1483 1437 1432 c 1,0,-1
610 1382 m 1,13,-1
 268 102 l 1,14,-1
 958 102 l 1,15,-1
 1300 1382 l 1,16,-1
 610 1382 l 1,13,-1
EndSplineSet
EndChar

StartChar: exclam
Encoding: 33 33 4
Width: 370
GlyphClass: 2
Flags: W
LayerCount: 2
Fore
SplineSet
78 365 m 2,0,-1
 324 1456 l 1,1,2
 332 1501 332 1501 385 1501 c 2,3,-1
 506 1501 l 2,4,5
 565 1501 565 1501 551 1454 c 1,6,-1
 182 362 l 1,7,8
 168 317 168 317 127 317 c 2,9,-1
 115 317 l 2,10,11
 68 317 68 317 78 365 c 2,0,-1
51 193 m 2,12,-1
 74 193 l 2,13,14
 113 193 113 193 144.5 158 c 128,-1,15
 176 123 176 123 176 75 c 128,-1,16
 176 27 176 27 143.5 -6 c 128,-1,17
 111 -39 111 -39 59 -39 c 2,18,-1
 39 -39 l 2,19,20
 -2 -39 -2 -39 -31.5 -5 c 128,-1,21
 -61 29 -61 29 -61 77 c 128,-1,22
 -61 125 -61 125 -29.5 159 c 128,-1,23
 2 193 2 193 51 193 c 2,12,-1
EndSplineSet
EndChar

StartChar: numbersign
Encoding: 35 35 6
Width: 1652
GlyphClass: 2
Flags: W
LayerCount: 2
Fore
SplineSet
134 608 m 2,0,-1
 447 608 l 1,1,-1
 539 963 l 1,2,-1
 259 963 l 2,3,4
 199 963 199 963 220 1036 c 1,5,-1
 226 1063 l 2,6,7
 232 1090 232 1090 238.5 1097 c 128,-1,8
 245 1104 245 1104 259 1104 c 2,9,-1
 576 1104 l 1,10,-1
 681 1509 l 2,11,12
 693 1554 693 1554 742 1554 c 2,13,-1
 789 1554 l 2,14,15
 847 1554 847 1554 834 1507 c 2,16,-1
 730 1104 l 1,17,-1
 1129 1104 l 1,18,-1
 1234 1509 l 2,19,20
 1246 1554 1246 1554 1295 1554 c 2,21,-1
 1342 1554 l 2,22,23
 1400 1554 1400 1554 1387 1507 c 2,24,-1
 1283 1104 l 1,25,-1
 1557 1104 l 2,26,27
 1619 1104 1619 1104 1604 1038 c 1,28,29
 1596 993 1596 993 1574.5 978 c 128,-1,30
 1553 963 1553 963 1531 963 c 2,31,-1
 1248 963 l 1,32,-1
 1158 608 l 1,33,-1
 1432 608 l 2,34,35
 1494 608 1494 608 1479 543 c 1,36,37
 1471 498 1471 498 1449.5 482.5 c 128,-1,38
 1428 467 1428 467 1406 467 c 2,39,-1
 1121 467 l 1,40,-1
 1015 45 l 1,41,42
 1002 0 1002 0 953 0 c 2,43,-1
 918 0 l 2,44,45
 843 0 843 0 859 66 c 1,46,-1
 963 467 l 1,47,-1
 568 467 l 1,48,-1
 462 45 l 1,49,50
 449 0 449 0 400 0 c 2,51,-1
 365 0 l 2,52,53
 290 0 290 0 306 66 c 1,54,-1
 410 467 l 1,55,-1
 134 467 l 2,56,57
 75 467 75 467 95 541 c 1,58,-1
 101 567 l 2,59,60
 107 594 107 594 113.5 601 c 128,-1,61
 120 608 120 608 134 608 c 2,0,-1
605 608 m 1,62,-1
 1000 608 l 1,63,-1
 1092 963 l 1,64,-1
 695 963 l 1,65,-1
 605 608 l 1,62,-1
EndSplineSet
EndChar

StartChar: dollar
Encoding: 36 36 7
Width: 827
GlyphClass: 2
Flags: W
LayerCount: 2
Fore
SplineSet
589 983 m 2,0,-1
 599 1126 l 1,1,2
 599 1233 599 1233 575.5 1260.5 c 128,-1,3
 552 1288 552 1288 519 1286 c 1,4,5
 441 1272 441 1272 392 1165.5 c 128,-1,6
 343 1059 343 1059 329.5 969 c 128,-1,7
 316 879 316 879 351 851 c 128,-1,8
 386 823 386 823 480 805 c 1,9,10
 638 770 638 770 620.5 583.5 c 128,-1,11
 603 397 603 397 513 246.5 c 128,-1,12
 423 96 423 96 281 61 c 1,13,-1
 255 -39 l 2,14,15
 243 -82 243 -82 195 -82 c 2,16,-1
 161 -82 l 2,17,18
 95 -82 95 -82 109 -18 c 1,19,-1
 134 70 l 1,20,21
 13 129 13 129 25 440 c 0,22,23
 28 492 28 492 68 524 c 1,24,-1
 109 549 l 1,25,26
 140 563 140 563 162.5 553 c 128,-1,27
 185 543 185 543 177 472 c 128,-1,28
 169 401 169 401 180 287.5 c 128,-1,29
 191 174 191 174 253 174 c 1,30,31
 314 176 314 176 368.5 256 c 128,-1,32
 423 336 423 336 442.5 428 c 128,-1,33
 462 520 462 520 464 569 c 1,34,35
 466 668 466 668 302 698 c 1,36,37
 163 725 163 725 165 856 c 1,38,39
 171 1036 171 1036 257 1196 c 128,-1,40
 343 1356 343 1356 472 1401 c 1,41,-1
 503 1520 l 2,42,43
 515 1563 515 1563 562 1563 c 2,44,-1
 607 1563 l 2,45,46
 662 1563 662 1563 650 1518 c 2,47,-1
 621 1409 l 1,48,49
 705 1384 705 1384 727.5 1291 c 128,-1,50
 750 1198 750 1198 738 1022 c 0,51,52
 734 977 734 977 693 961 c 1,53,-1
 634 940 l 1,54,55
 609 936 609 936 598 944 c 128,-1,56
 587 952 587 952 589 983 c 2,0,-1
EndSplineSet
EndChar

StartChar: ampersand
Encoding: 38 38 9
Width: 1245
GlyphClass: 2
Flags: W
LayerCount: 2
Fore
SplineSet
414 602 m 1,0,1
 326 557 326 557 263.5 480 c 128,-1,2
 201 403 201 403 193.5 318 c 128,-1,3
 186 233 186 233 235.5 175 c 128,-1,4
 285 117 285 117 393.5 120 c 128,-1,5
 502 123 502 123 623 225 c 1,6,7
 477 451 477 451 414 602 c 1,0,1
1020 721 m 1,8,9
 932 414 932 414 809 231 c 1,10,11
 907 94 907 94 1008 -27 c 1,12,13
 1055 -86 1055 -86 986.5 -106.5 c 128,-1,14
 918 -127 918 -127 860 -90 c 1,15,16
 784 -8 784 -8 700 109 c 1,17,18
 526 -51 526 -51 303 -20 c 1,19,20
 156 2 156 2 83 96 c 128,-1,21
 10 190 10 190 31 336 c 0,22,23
 53 485 53 485 147.5 572 c 128,-1,24
 242 659 242 659 365 723 c 1,25,26
 320 844 320 844 320 945.5 c 128,-1,27
 320 1047 320 1047 369 1151 c 128,-1,28
 418 1255 418 1255 520.5 1322 c 128,-1,29
 623 1389 623 1389 772 1374 c 0,30,31
 807 1370 807 1370 801 1333 c 1,32,-1
 791 1284 l 1,33,34
 778 1255 778 1255 735 1255 c 1,35,36
 649 1264 649 1264 559 1196 c 0,37,38
 512 1161 512 1161 484.5 1088.5 c 128,-1,39
 457 1016 457 1016 469 904.5 c 128,-1,40
 481 793 481 793 584 586 c 0,41,42
 627 498 627 498 723 354 c 1,43,44
 838 537 838 537 879 721 c 1,45,-1
 797 721 l 2,46,47
 762 721 762 721 762 735.5 c 128,-1,48
 762 750 762 750 772 778 c 1,49,-1
 786 823 l 1,50,51
 791 848 791 848 817 848 c 2,52,-1
 1194 848 l 2,53,54
 1229 848 1229 848 1212 803 c 1,55,-1
 1204 778 l 1,56,57
 1190 721 1190 721 1161 721 c 2,58,-1
 1020 721 l 1,8,9
EndSplineSet
EndChar

StartChar: quotesingle
Encoding: 39 39 10
Width: 380
GlyphClass: 2
Flags: W
LayerCount: 2
Fore
SplineSet
482 1612 m 0,0,1
 482 1487 482 1487 433 1358 c 1,2,3
 321 1073 321 1073 237 1073 c 0,4,5
 214 1073 214 1073 215 1106 c 128,-1,6
 216 1139 216 1139 254 1228 c 128,-1,7
 292 1317 292 1317 307.5 1393.5 c 128,-1,8
 323 1470 323 1470 323 1616 c 0,9,10
 323 1657 323 1657 374 1657 c 2,11,-1
 433 1657 l 1,12,13
 482 1665 482 1665 482 1612 c 0,0,1
EndSplineSet
EndChar

StartChar: parenleft
Encoding: 40 40 11
Width: 811
GlyphClass: 2
Flags: W
LayerCount: 2
Fore
SplineSet
201 369 m 0,0,1
 201 731 201 731 375 1072 c 128,-1,2
 549 1413 549 1413 811 1661 c 0,3,4
 854 1702 854 1702 893 1698 c 2,5,-1
 954 1692 l 2,6,7
 981 1690 981 1690 986 1668.5 c 128,-1,8
 991 1647 991 1647 975 1634 c 0,9,10
 705 1397 705 1397 525.5 1057 c 128,-1,11
 346 717 346 717 346 389 c 0,12,13
 346 199 346 199 388 14.5 c 128,-1,14
 430 -170 430 -170 506 -270 c 0,15,16
 516 -283 516 -283 513 -298 c 128,-1,17
 510 -313 510 -313 494 -317 c 2,18,-1
 403 -342 l 1,19,20
 367 -362 367 -362 346 -322 c 0,21,22
 201 -55 201 -55 201 369 c 0,0,1
EndSplineSet
EndChar

StartChar: parenright
Encoding: 41 41 12
Width: 833
GlyphClass: 2
Flags: W
LayerCount: 2
Fore
SplineSet
486 1665 m 1,0,1
 634 1395 634 1395 634 1002.5 c 128,-1,2
 634 610 634 610 460.5 270 c 128,-1,3
 287 -70 287 -70 27 -317 c 0,4,5
 -1 -344 -1 -344 -15.5 -350 c 128,-1,6
 -30 -356 -30 -356 -57 -354 c 2,7,-1
 -124 -348 l 2,8,9
 -159 -344 -159 -344 -153 -313 c 1,10,11
 -149 -301 -149 -301 -138 -293 c 1,12,13
 134 -55 134 -55 311 284 c 128,-1,14
 488 623 488 623 488 996.5 c 128,-1,15
 488 1370 488 1370 328 1614 c 1,16,17
 316 1630 316 1630 321 1643.5 c 128,-1,18
 326 1657 326 1657 343 1661 c 2,19,-1
 429 1686 l 1,20,21
 466 1706 466 1706 486 1665 c 1,0,1
EndSplineSet
EndChar

StartChar: asterisk
Encoding: 42 42 13
Width: 780
GlyphClass: 2
Flags: W
LayerCount: 2
Fore
SplineSet
348 1108 m 1,0,-1
 149 1141 l 1,1,2
 126 1143 126 1143 116 1164.5 c 128,-1,3
 106 1186 106 1186 114 1212 c 2,4,-1
 124 1241 l 1,5,6
 128 1262 128 1262 147.5 1275 c 128,-1,7
 167 1288 167 1288 186 1280 c 2,8,-1
 389 1198 l 1,9,-1
 417 1427 l 1,10,11
 425 1479 425 1479 493 1479 c 2,12,-1
 520 1479 l 2,13,14
 546 1479 546 1479 563.5 1461.5 c 128,-1,15
 581 1444 581 1444 571 1411 c 1,16,-1
 493 1194 l 1,17,-1
 706 1266 l 1,18,19
 776 1288 776 1288 776 1227 c 2,20,-1
 776 1196 l 2,21,22
 776 1149 776 1149 724 1139 c 1,23,-1
 487 1102 l 1,24,-1
 616 889 l 1,25,26
 643 842 643 842 597 815 c 1,27,-1
 567 799 l 1,28,29
 516 770 516 770 493 823 c 1,30,-1
 411 1034 l 1,31,-1
 245 836 l 1,32,33
 200 784 200 784 163 827 c 2,34,-1
 145 848 l 2,35,36
 110 889 110 889 151 928 c 1,37,-1
 348 1108 l 1,0,-1
EndSplineSet
EndChar

StartChar: plus
Encoding: 43 43 14
Width: 827
GlyphClass: 2
Flags: W
LayerCount: 2
Fore
SplineSet
755 594 m 2,0,-1
 495 594 l 1,1,-1
 425 330 l 2,2,3
 413 285 413 285 364 285 c 2,4,-1
 313 285 l 2,5,6
 255 285 255 285 267 332 c 2,7,-1
 335 594 l 1,8,-1
 108 594 l 2,9,10
 59 594 59 594 71 641 c 2,11,-1
 85 700 l 2,12,13
 89 721 89 721 100.5 728 c 128,-1,14
 112 735 112 735 132 735 c 2,15,-1
 372 735 l 1,16,-1
 431 956 l 2,17,18
 444 1001 444 1001 493 1001 c 2,19,-1
 544 1001 l 2,20,21
 601 1001 601 1001 589 954 c 2,22,-1
 532 735 l 1,23,-1
 784 735 l 2,24,25
 802 735 802 735 812 723 c 128,-1,26
 822 711 822 711 818 688 c 2,27,-1
 808 637 l 1,28,29
 798 594 798 594 755 594 c 2,0,-1
EndSplineSet
EndChar

StartChar: comma
Encoding: 44 44 15
Width: 464
GlyphClass: 2
Flags: W
LayerCount: 2
Fore
SplineSet
225 213 m 0,0,1
 225 2 225 2 78 -248 c 0,2,3
 27 -336 27 -336 -25 -336 c 0,4,5
 -49 -336 -49 -336 -50 -309.5 c 128,-1,6
 -51 -283 -51 -283 -19.5 -207 c 128,-1,7
 12 -131 12 -131 27.5 -37 c 128,-1,8
 43 57 43 57 51 190 c 1,9,10
 51 225 51 225 94 236 c 1,11,-1
 176 254 l 1,12,13
 225 262 225 262 225 213 c 0,0,1
EndSplineSet
EndChar

StartChar: hyphen
Encoding: 45 45 16
Width: 784
GlyphClass: 2
Flags: W
LayerCount: 2
Fore
SplineSet
154 735 m 2,0,-1
 666 735 l 2,1,2
 684 735 684 735 694.5 722 c 128,-1,3
 705 709 705 709 701 688 c 2,4,-1
 690 637 l 1,5,6
 682 594 682 594 637 594 c 2,7,-1
 146 594 l 2,8,9
 96 594 96 594 109 641 c 1,10,-1
 127 713 l 2,11,12
 133 735 133 735 154 735 c 2,0,-1
EndSplineSet
EndChar

StartChar: period
Encoding: 46 46 17
Width: 399
GlyphClass: 2
Flags: W
LayerCount: 2
Fore
SplineSet
164 193 m 2,0,-1
 186 193 l 2,1,2
 225 193 225 193 257 158 c 128,-1,3
 289 123 289 123 289 75 c 128,-1,4
 289 27 289 27 256 -6 c 128,-1,5
 223 -39 223 -39 172 -39 c 2,6,-1
 152 -39 l 2,7,8
 111 -39 111 -39 81 -5 c 128,-1,9
 51 29 51 29 51 77 c 128,-1,10
 51 125 51 125 83 159 c 128,-1,11
 115 193 115 193 164 193 c 2,0,-1
EndSplineSet
EndChar

StartChar: slash
Encoding: 47 47 18
Width: 847
GlyphClass: 2
Flags: W
LayerCount: 2
Fore
SplineSet
878 1556 m 2,0,-1
 947 1556 l 2,1,2
 1005 1556 1005 1556 972 1493 c 2,3,-1
 204 45 l 1,4,5
 177 0 177 0 143 0 c 2,6,-1
 73 0 l 2,7,8
 48 0 48 0 41 20.5 c 128,-1,9
 34 41 34 41 48 63 c 1,10,-1
 816 1511 l 2,11,12
 839 1556 839 1556 878 1556 c 2,0,-1
EndSplineSet
EndChar

StartChar: zero
Encoding: 48 48 19
Width: 858
GlyphClass: 2
Flags: W
LayerCount: 2
Fore
SplineSet
86 786 m 1,0,1
 164 1096 164 1096 309.5 1257.5 c 128,-1,2
 455 1419 455 1419 600 1419 c 128,-1,3
 745 1419 745 1419 814 1325 c 128,-1,4
 883 1231 883 1231 883 1045.5 c 128,-1,5
 883 860 883 860 810 594 c 128,-1,6
 737 328 737 328 604 159 c 128,-1,7
 471 -10 471 -10 333 -10 c 128,-1,8
 195 -10 195 -10 113 82 c 128,-1,9
 31 174 31 174 31 359.5 c 128,-1,10
 31 545 31 545 86 786 c 1,0,1
248 745 m 1,11,12
 184 510 184 510 196.5 327.5 c 128,-1,13
 209 145 209 145 313.5 145 c 128,-1,14
 418 145 418 145 501 260 c 128,-1,15
 584 375 584 375 653 641 c 1,16,17
 725 934 725 934 713.5 1100 c 128,-1,18
 702 1266 702 1266 598 1266 c 128,-1,19
 494 1266 494 1266 408 1149 c 128,-1,20
 322 1032 322 1032 248 745 c 1,11,12
EndSplineSet
EndChar

StartChar: one
Encoding: 49 49 20
Width: 622
GlyphClass: 2
Flags: W
LayerCount: 2
Fore
SplineSet
612 1393 m 1,0,1
 635 1395 635 1395 643 1377.5 c 128,-1,2
 651 1360 651 1360 645 1337 c 2,3,-1
 315 45 l 2,4,5
 303 0 303 0 260 0 c 2,6,-1
 200 0 l 2,7,8
 176 0 176 0 164.5 18.5 c 128,-1,9
 153 37 153 37 159 63 c 2,10,-1
 440 1167 l 1,11,-1
 264 987 l 2,12,13
 219 942 219 942 180 942 c 2,14,-1
 121 942 l 2,15,16
 84 942 84 942 74.5 975 c 128,-1,17
 65 1008 65 1008 100 1040 c 1,18,-1
 372 1278 l 1,19,20
 487 1393 487 1393 534 1393 c 2,21,-1
 612 1393 l 1,0,1
EndSplineSet
EndChar

StartChar: two
Encoding: 50 50 21
Width: 823
GlyphClass: 2
Flags: W
LayerCount: 2
Fore
SplineSet
133 139 m 1,0,-1
 641 147 l 2,1,2
 672 147 672 147 684.5 137 c 128,-1,3
 697 127 697 127 688 94 c 1,4,-1
 678 49 l 2,5,6
 668 0 668 0 609 0 c 2,7,-1
 23 0 l 2,8,9
 -41 0 -41 0 -57 50 c 128,-1,10
 -73 100 -73 100 -32 145 c 1,11,-1
 557 819 l 2,12,13
 647 922 647 922 682 1031.5 c 128,-1,14
 717 1141 717 1141 681 1215.5 c 128,-1,15
 645 1290 645 1290 552 1290 c 128,-1,16
 459 1290 459 1290 395.5 1217.5 c 128,-1,17
 332 1145 332 1145 332 1036 c 0,18,19
 332 1022 332 1022 319.5 1007.5 c 128,-1,20
 307 993 307 993 293 989 c 1,21,-1
 226 975 l 2,22,23
 205 971 205 971 194 985 c 128,-1,24
 183 999 183 999 183 1024 c 0,25,26
 183 1167 183 1167 288.5 1292 c 128,-1,27
 394 1417 394 1417 572 1417 c 0,28,29
 688 1417 688 1417 762 1352.5 c 128,-1,30
 836 1288 836 1288 850.5 1191 c 128,-1,31
 865 1094 865 1094 822 972 c 128,-1,32
 779 850 779 850 678 739 c 2,33,-1
 133 139 l 1,0,-1
EndSplineSet
EndChar

StartChar: three
Encoding: 51 51 22
Width: 782
GlyphClass: 2
Flags: W
LayerCount: 2
Fore
SplineSet
293 649 m 1,0,1
 264 647 264 647 251 656.5 c 128,-1,2
 238 666 238 666 244 694 c 2,3,-1
 252 737 l 1,4,5
 258 786 258 786 336 784 c 1,6,7
 449 784 449 784 535 860 c 128,-1,8
 621 936 621 936 630 1046.5 c 128,-1,9
 639 1157 639 1157 606.5 1221.5 c 128,-1,10
 574 1286 574 1286 504 1286 c 128,-1,11
 434 1286 434 1286 379 1222.5 c 128,-1,12
 324 1159 324 1159 318 1047 c 1,13,14
 318 1006 318 1006 269 995 c 2,15,-1
 209 981 l 2,16,17
 183 975 183 975 173.5 991.5 c 128,-1,18
 164 1008 164 1008 166 1034 c 0,19,20
 174 1184 174 1184 269.5 1297.5 c 128,-1,21
 365 1411 365 1411 506 1411 c 128,-1,22
 647 1411 647 1411 714 1321 c 128,-1,23
 781 1231 781 1231 776 1081 c 0,24,25
 774 997 774 997 738 922 c 0,26,27
 662 768 662 768 510 711 c 1,28,29
 654 655 654 655 652 422 c 1,30,31
 652 252 652 252 539 111.5 c 128,-1,32
 426 -29 426 -29 248 -29 c 0,33,34
 105 -29 105 -29 56 82 c 1,35,36
 10 178 10 178 15 297 c 1,37,38
 15 348 15 348 47 362 c 2,39,-1
 111 391 l 2,40,41
 135 401 135 401 149.5 391 c 128,-1,42
 164 381 164 381 161 343 c 128,-1,43
 158 305 158 305 159 260 c 128,-1,44
 160 215 160 215 171.5 182.5 c 128,-1,45
 183 150 183 150 204.5 129.5 c 128,-1,46
 226 109 226 109 271 106 c 1,47,48
 346 106 346 106 411.5 189 c 128,-1,49
 477 272 477 272 493.5 388 c 128,-1,50
 510 504 510 504 461 576.5 c 128,-1,51
 412 649 412 649 293 649 c 1,0,1
EndSplineSet
EndChar

StartChar: four
Encoding: 52 52 23
Width: 860
GlyphClass: 2
Flags: W
LayerCount: 2
Fore
SplineSet
728 330 m 2,0,-1
 648 330 l 1,1,-1
 576 45 l 2,2,3
 564 0 564 0 515 0 c 2,4,-1
 455 0 l 2,5,6
 431 0 431 0 419.5 18.5 c 128,-1,7
 408 37 408 37 414 63 c 2,8,-1
 482 330 l 1,9,-1
 54 330 l 2,10,11
 -10 330 -10 330 -24 382 c 128,-1,12
 -38 434 -38 434 1 485 c 1,13,-1
 594 1366 l 1,14,15
 615 1393 615 1393 656 1393 c 2,16,-1
 732 1393 l 2,17,18
 766 1393 766 1393 771.5 1369.5 c 128,-1,19
 777 1346 777 1346 756 1317 c 2,20,-1
 175 469 l 1,21,-1
 517 471 l 1,22,-1
 588 756 l 1,23,24
 601 801 601 801 650 801 c 2,25,-1
 709 801 l 2,26,27
 734 801 734 801 745 782.5 c 128,-1,28
 756 764 756 764 750 737 c 2,29,-1
 683 471 l 1,30,-1
 758 471 l 2,31,32
 791 471 791 471 802.5 461 c 128,-1,33
 814 451 814 451 805 426 c 1,34,-1
 785 362 l 2,35,36
 775 330 775 330 728 330 c 2,0,-1
EndSplineSet
EndChar

StartChar: five
Encoding: 53 53 24
Width: 866
GlyphClass: 2
Flags: W
LayerCount: 2
Fore
SplineSet
341 872 m 1,0,1
 427 930 427 930 544 930 c 0,2,3
 820 930 820 930 730 516 c 0,4,5
 679 285 679 285 537.5 132.5 c 128,-1,6
 396 -20 396 -20 263 -23 c 1,7,8
 151 -33 151 -33 93.5 34.5 c 128,-1,9
 36 102 36 102 39 199.5 c 128,-1,10
 42 297 42 297 93 383 c 0,11,12
 112 414 112 414 149 401 c 2,13,-1
 192 387 l 2,14,15
 241 371 241 371 222 334 c 1,16,17
 181 238 181 238 199.5 175.5 c 128,-1,18
 218 113 218 113 271.5 106.5 c 128,-1,19
 325 100 325 100 408 204.5 c 128,-1,20
 491 309 491 309 540 447.5 c 128,-1,21
 589 586 589 586 588 685 c 128,-1,22
 587 784 587 784 536 793 c 1,23,24
 452 797 452 797 401.5 758 c 128,-1,25
 351 719 351 719 296 633 c 0,26,27
 274 600 274 600 237 612 c 1,28,-1
 169 643 l 1,29,30
 149 651 149 651 143.5 662.5 c 128,-1,31
 138 674 138 674 144 702 c 1,32,-1
 327 1350 l 2,33,34
 339 1393 339 1393 388 1393 c 2,35,-1
 898 1393 l 2,36,37
 958 1393 958 1393 943 1341 c 1,38,-1
 931 1286 l 2,39,40
 925 1260 925 1260 917.5 1252.5 c 128,-1,41
 910 1245 910 1245 890 1245 c 2,42,-1
 450 1253 l 1,43,-1
 341 872 l 1,0,1
EndSplineSet
EndChar

StartChar: six
Encoding: 54 54 25
Width: 837
GlyphClass: 2
Flags: W
LayerCount: 2
Fore
SplineSet
294 764 m 1,0,1
 167 393 167 393 212 207 c 0,2,3
 237 104 237 104 304 104 c 0,4,5
 388 104 388 104 471 260 c 128,-1,6
 554 416 554 416 570 543 c 0,7,8
 603 809 603 809 441 809 c 0,9,10
 370 809 370 809 294 764 c 1,0,1
353 901 m 1,11,12
 431 940 431 940 515 936 c 0,13,14
 753 924 753 924 728 584 c 0,15,16
 720 463 720 463 665.5 325.5 c 128,-1,17
 611 188 611 188 510 80.5 c 128,-1,18
 409 -27 409 -27 292 -27 c 0,19,20
 114 -27 114 -27 56 172 c 0,21,22
 28 268 28 268 48.5 428 c 128,-1,23
 69 588 69 588 142 791 c 1,24,25
 247 1077 247 1077 428 1241 c 128,-1,26
 609 1405 609 1405 740 1407 c 1,27,-1
 933 1384 l 2,28,29
 951 1382 951 1382 961.5 1369 c 128,-1,30
 972 1356 972 1356 961.5 1341.5 c 128,-1,31
 951 1327 951 1327 900 1320 c 128,-1,32
 849 1313 849 1313 777.5 1286.5 c 128,-1,33
 706 1260 706 1260 628 1212 c 0,34,35
 460 1110 460 1110 353 901 c 1,11,12
EndSplineSet
EndChar

StartChar: seven
Encoding: 55 55 26
Width: 851
GlyphClass: 2
Flags: W
LayerCount: 2
Fore
SplineSet
901 1272 m 1,0,-1
 266 43 l 1,1,2
 243 -4 243 -4 198 2 c 2,3,-1
 145 8 l 1,4,5
 108 10 108 10 100 33.5 c 128,-1,6
 92 57 92 57 108 84 c 1,7,-1
 733 1245 l 1,8,-1
 198 1241 l 2,9,10
 139 1241 139 1241 155 1298 c 2,11,-1
 170 1352 l 1,12,13
 176 1378 176 1378 183 1385.5 c 128,-1,14
 190 1393 190 1393 210 1393 c 2,15,-1
 852 1393 l 2,16,17
 890 1393 890 1393 910.5 1363 c 128,-1,18
 931 1333 931 1333 901 1272 c 1,0,-1
EndSplineSet
EndChar

StartChar: eight
Encoding: 56 56 27
Width: 843
GlyphClass: 2
Flags: W
LayerCount: 2
Fore
SplineSet
319 721 m 1,0,1
 254 768 254 768 216 840.5 c 128,-1,2
 178 913 178 913 178 997 c 0,3,4
 178 1153 178 1153 290.5 1288 c 128,-1,5
 403 1423 403 1423 578 1423 c 0,6,7
 705 1423 705 1423 779.5 1341.5 c 128,-1,8
 854 1260 854 1260 854 1126 c 0,9,10
 854 1036 854 1036 807 950 c 1,11,12
 725 805 725 805 584 725 c 1,13,14
 649 668 649 668 685 586 c 128,-1,15
 721 504 721 504 721 418 c 0,16,17
 721 256 721 256 604 114.5 c 128,-1,18
 487 -27 487 -27 309 -27 c 0,19,20
 31 -27 31 -27 31 270 c 0,21,22
 31 504 31 504 319 721 c 1,0,1
434 657 m 1,23,24
 299 582 299 582 223 434 c 0,25,26
 184 360 184 360 184 287.5 c 128,-1,27
 184 215 184 215 219 160.5 c 128,-1,28
 254 106 254 106 337 106 c 128,-1,29
 420 106 420 106 487.5 198.5 c 128,-1,30
 555 291 555 291 555 391 c 0,31,32
 555 584 555 584 434 657 c 1,23,24
479 799 m 1,33,34
 559 840 559 840 623 924 c 1,35,36
 686 1010 686 1010 690 1090 c 1,37,38
 702 1280 702 1280 561 1292 c 1,39,40
 473 1298 473 1298 405.5 1222.5 c 128,-1,41
 338 1147 338 1147 338 1054 c 128,-1,42
 338 961 338 961 367.5 908.5 c 128,-1,43
 397 856 397 856 479 799 c 1,33,34
EndSplineSet
EndChar

StartChar: nine
Encoding: 57 57 28
Width: 884
GlyphClass: 2
Flags: W
LayerCount: 2
Fore
SplineSet
604 649 m 1,0,1
 723 1022 723 1022 690 1182 c 0,2,3
 670 1280 670 1280 594 1280 c 0,4,5
 528 1280 528 1280 463.5 1201 c 128,-1,6
 399 1122 399 1122 359 1000.5 c 128,-1,7
 319 879 319 879 319 758 c 0,8,9
 319 580 319 580 446 580 c 0,10,11
 475 580 475 580 527.5 598 c 128,-1,12
 580 616 580 616 604 649 c 1,0,1
551 498 m 1,13,14
 477 455 477 455 401 455 c 0,15,16
 281 455 281 455 221.5 533.5 c 128,-1,17
 162 612 162 612 162 746.5 c 128,-1,18
 162 881 162 881 218 1036.5 c 128,-1,19
 274 1192 274 1192 380.5 1299.5 c 128,-1,20
 487 1407 487 1407 614 1407 c 0,21,22
 774 1407 774 1407 836 1233 c 1,23,24
 866 1143 866 1143 845.5 977 c 128,-1,25
 825 811 825 811 748 590 c 0,26,27
 528 -33 528 -33 205 -33 c 0,28,29
 6 -33 6 -33 6 274 c 0,30,31
 6 334 6 334 47 346 c 2,32,-1
 111 365 l 2,33,34
 135 373 135 373 149.5 364.5 c 128,-1,35
 164 356 164 356 164 332.5 c 128,-1,36
 164 309 164 309 161 252 c 128,-1,37
 158 195 158 195 172 149.5 c 128,-1,38
 186 104 186 104 231 102 c 1,39,40
 334 102 334 102 442 274 c 1,41,42
 500 362 500 362 551 498 c 1,13,14
EndSplineSet
EndChar

StartChar: colon
Encoding: 58 58 29
Width: 675
GlyphClass: 2
Flags: W
LayerCount: 2
Fore
SplineSet
369 1073 m 2,0,-1
 391 1073 l 2,1,2
 430 1073 430 1073 462 1038.5 c 128,-1,3
 494 1004 494 1004 494 955.5 c 128,-1,4
 494 907 494 907 461 874.5 c 128,-1,5
 428 842 428 842 377 842 c 2,6,-1
 356 842 l 2,7,8
 315 842 315 842 285.5 875.5 c 128,-1,9
 256 909 256 909 256 957.5 c 128,-1,10
 256 1006 256 1006 287.5 1039.5 c 128,-1,11
 319 1073 319 1073 369 1073 c 2,0,-1
164 193 m 2,12,-1
 186 193 l 2,13,14
 225 193 225 193 257 158 c 128,-1,15
 289 123 289 123 289 75 c 128,-1,16
 289 27 289 27 256 -6 c 128,-1,17
 223 -39 223 -39 172 -39 c 2,18,-1
 152 -39 l 2,19,20
 111 -39 111 -39 81 -5 c 128,-1,21
 51 29 51 29 51 77 c 128,-1,22
 51 125 51 125 83 159 c 128,-1,23
 115 193 115 193 164 193 c 2,12,-1
EndSplineSet
EndChar

StartChar: semicolon
Encoding: 59 59 30
Width: 471
GlyphClass: 2
Flags: W
LayerCount: 2
Fore
SplineSet
350 1073 m 2,0,-1
 373 1073 l 2,1,2
 412 1073 412 1073 443.5 1038.5 c 128,-1,3
 475 1004 475 1004 475 955.5 c 128,-1,4
 475 907 475 907 442.5 874.5 c 128,-1,5
 410 842 410 842 358 842 c 2,6,-1
 338 842 l 2,7,8
 297 842 297 842 267.5 875.5 c 128,-1,9
 238 909 238 909 238 957.5 c 128,-1,10
 238 1006 238 1006 269.5 1039.5 c 128,-1,11
 301 1073 301 1073 350 1073 c 2,0,-1
248 213 m 0,12,13
 248 2 248 2 100 -248 c 0,14,15
 49 -336 49 -336 -2 -336 c 0,16,17
 -27 -336 -27 -336 -27 -309.5 c 128,-1,18
 -27 -283 -27 -283 5 -193.5 c 128,-1,19
 37 -104 37 -104 53.5 1 c 128,-1,20
 70 106 70 106 74 190 c 1,21,22
 74 225 74 225 117 236 c 1,23,-1
 199 254 l 1,24,25
 248 262 248 262 248 213 c 0,12,13
EndSplineSet
EndChar

StartChar: less
Encoding: 60 60 31
Width: 968
GlyphClass: 2
Flags: W
LayerCount: 2
Fore
SplineSet
215 627 m 1,0,-1
 751 420 l 2,1,2
 800 401 800 401 790 344 c 1,3,-1
 782 303 l 2,4,5
 776 270 776 270 761.5 264 c 128,-1,6
 747 258 747 258 718 270 c 2,7,-1
 63 547 l 2,8,9
 14 567 14 567 24 618 c 2,10,-1
 30 647 l 1,11,12
 38 692 38 692 92 711 c 2,13,-1
 876 979 l 1,14,15
 915 991 915 991 927.5 973.5 c 128,-1,16
 940 956 940 956 931 924 c 1,17,-1
 923 891 l 1,18,19
 909 840 909 840 870 829 c 2,20,-1
 215 627 l 1,0,-1
EndSplineSet
EndChar

StartChar: equal
Encoding: 61 61 32
Width: 921
GlyphClass: 2
Flags: W
LayerCount: 2
Fore
SplineSet
841 766 m 2,0,-1
 194 766 l 2,1,2
 147 766 147 766 157 813 c 1,3,-1
 176 885 l 2,4,5
 180 901 180 901 188 904 c 128,-1,6
 196 907 196 907 227 907 c 2,7,-1
 870 907 l 2,8,9
 888 907 888 907 898.5 895 c 128,-1,10
 909 883 909 883 905 860 c 2,11,-1
 895 809 l 1,12,13
 884 766 884 766 841 766 c 2,0,-1
755 436 m 2,14,-1
 108 436 l 2,15,16
 61 436 61 436 71 483 c 1,17,-1
 90 555 l 2,18,19
 94 571 94 571 102 574.5 c 128,-1,20
 110 578 110 578 141 578 c 2,21,-1
 784 578 l 2,22,23
 802 578 802 578 812.5 565.5 c 128,-1,24
 823 553 823 553 819 530 c 2,25,-1
 809 479 l 1,26,27
 798 436 798 436 755 436 c 2,14,-1
EndSplineSet
EndChar

StartChar: greater
Encoding: 62 62 33
Width: 968
GlyphClass: 2
Flags: W
LayerCount: 2
Fore
SplineSet
745 627 m 1,0,-1
 208 834 l 2,1,2
 159 852 159 852 169 909 c 1,3,-1
 177 948 l 2,4,5
 183 981 183 981 197.5 987 c 128,-1,6
 212 993 212 993 241 981 c 2,7,-1
 896 705 l 2,8,9
 945 684 945 684 935 633 c 2,10,-1
 929 604 l 1,11,12
 921 559 921 559 867 541 c 2,13,-1
 83 272 l 1,14,15
 44 260 44 260 32 277.5 c 128,-1,16
 20 295 20 295 28 328 c 2,17,-1
 36 362 l 1,18,19
 50 412 50 412 89 424 c 2,20,-1
 745 627 l 1,0,-1
EndSplineSet
EndChar

StartChar: question
Encoding: 63 63 34
Width: 653
GlyphClass: 2
Flags: W
LayerCount: 2
Fore
SplineSet
121 193 m 2,0,-1
 143 193 l 2,1,2
 182 193 182 193 214 158 c 128,-1,3
 246 123 246 123 246 75 c 128,-1,4
 246 27 246 27 213 -6 c 128,-1,5
 180 -39 180 -39 129 -39 c 2,6,-1
 109 -39 l 2,7,8
 68 -39 68 -39 38 -5 c 128,-1,9
 8 29 8 29 8 77 c 128,-1,10
 8 125 8 125 40 159 c 128,-1,11
 72 193 72 193 121 193 c 2,0,-1
242 371 m 0,12,13
 242 324 242 324 180 330 c 2,14,-1
 137 334 l 2,15,16
 90 338 90 338 100 410 c 1,17,18
 137 645 137 645 200.5 698.5 c 128,-1,19
 264 752 264 752 333.5 761 c 128,-1,20
 403 770 403 770 433 798.5 c 128,-1,21
 463 827 463 827 489.5 882.5 c 128,-1,22
 516 938 516 938 536.5 1069 c 128,-1,23
 557 1200 557 1200 551 1256.5 c 128,-1,24
 545 1313 545 1313 520.5 1332.5 c 128,-1,25
 496 1352 496 1352 475 1354 c 1,26,27
 442 1346 442 1346 330 1233 c 1,28,29
 303 1208 303 1208 264 1229 c 1,30,-1
 229 1251 l 1,31,32
 193 1278 193 1278 217 1317 c 1,33,34
 260 1378 260 1378 336 1437.5 c 128,-1,35
 412 1497 412 1497 459 1506.5 c 128,-1,36
 506 1516 506 1516 584 1478 c 128,-1,37
 662 1440 662 1440 688.5 1375.5 c 128,-1,38
 715 1311 715 1311 711 1188 c 1,39,40
 690 973 690 973 621.5 817.5 c 128,-1,41
 553 662 553 662 440 631 c 0,42,43
 410 623 410 623 360.5 612.5 c 128,-1,44
 311 602 311 602 295 598 c 1,45,46
 279 555 279 555 260.5 474 c 128,-1,47
 242 393 242 393 242 371 c 0,12,13
EndSplineSet
EndChar

StartChar: at
Encoding: 64 64 35
Width: 1800
GlyphClass: 2
Flags: W
LayerCount: 2
Fore
SplineSet
1122 965 m 1,0,-1
 1126 979 l 1,1,2
 1137 1032 1137 1032 1178 1032 c 1,3,-1
 1229 1034 l 1,4,5
 1300 1034 1300 1034 1284 969 c 1,6,-1
 1118 346 l 1,7,8
 1102 262 1102 262 1124.5 212 c 128,-1,9
 1147 162 1147 162 1213.5 162 c 128,-1,10
 1280 162 1280 162 1373 272.5 c 128,-1,11
 1466 383 1466 383 1527.5 631 c 128,-1,12
 1589 879 1589 879 1445.5 1086.5 c 128,-1,13
 1302 1294 1302 1294 1003 1296 c 1,14,15
 750 1290 750 1290 565.5 1116 c 128,-1,16
 381 942 381 942 311.5 718 c 128,-1,17
 242 494 242 494 281 283 c 1,18,19
 319 70 319 70 467 -78 c 1,20,21
 635 -236 635 -236 899 -225 c 1,22,23
 922 -223 922 -223 931 -236.5 c 128,-1,24
 940 -250 940 -250 928 -270 c 2,25,-1
 911 -301 l 2,26,27
 895 -332 895 -332 848 -334 c 0,28,29
 682 -344 682 -344 537.5 -284.5 c 128,-1,30
 393 -225 393 -225 276.5 -71.5 c 128,-1,31
 160 82 160 82 125 322.5 c 128,-1,32
 90 563 90 563 179 803.5 c 128,-1,33
 268 1044 268 1044 481 1224.5 c 128,-1,34
 694 1405 694 1405 972.5 1409 c 128,-1,35
 1251 1413 1251 1413 1424 1292 c 128,-1,36
 1597 1171 1597 1171 1656.5 976.5 c 128,-1,37
 1716 782 1716 782 1659 546.5 c 128,-1,38
 1602 311 1602 311 1460.5 162.5 c 128,-1,39
 1319 14 1319 14 1179.5 14 c 128,-1,40
 1040 14 1040 14 979 127 c 1,41,42
 944 82 944 82 892 51 c 128,-1,43
 840 20 840 20 783.5 20 c 128,-1,44
 727 20 727 20 674 52 c 128,-1,45
 621 84 621 84 594 143 c 0,46,47
 528 289 528 289 560 459 c 128,-1,48
 592 629 592 629 667.5 771 c 128,-1,49
 743 913 743 913 821 973 c 0,50,51
 887 1024 887 1024 957.5 1024 c 128,-1,52
 1028 1024 1028 1024 1122 965 c 1,0,-1
1094 842 m 1,53,54
 1061 864 1061 864 1018 874 c 1,55,56
 881 918 881 918 772 655 c 0,57,58
 694 467 694 467 698 350 c 0,59,60
 704 174 704 174 799 174 c 0,61,62
 860 174 860 174 901 240 c 0,63,64
 977 360 977 360 1094 842 c 1,53,54
EndSplineSet
EndChar

StartChar: A
Encoding: 65 65 36
Width: 942
GlyphClass: 2
Flags: W
LayerCount: 2
Fore
SplineSet
322 592 m 1,0,-1
 623 592 l 1,1,-1
 672 1303 l 1,2,-1
 322 592 l 1,0,-1
251 444 m 1,3,-1
 52 41 l 2,4,5
 29 -6 29 -6 -24 0 c 1,6,-1
 -71 4 l 2,7,8
 -106 6 -106 6 -117 30.5 c 128,-1,9
 -128 55 -128 55 -114 82 c 2,10,-1
 568 1397 l 2,11,12
 611 1479 611 1479 681 1479 c 1,13,-1
 763 1481 l 1,14,15
 844 1481 844 1481 838 1382 c 2,16,-1
 767 45 l 1,17,18
 763 2 763 2 705 0 c 1,19,-1
 636 2 l 1,20,21
 584 2 584 2 588 57 c 2,22,-1
 615 444 l 1,23,-1
 251 444 l 1,3,-1
EndSplineSet
EndChar

StartChar: B
Encoding: 66 66 37
Width: 921
GlyphClass: 2
Flags: W
LayerCount: 2
Fore
SplineSet
255 1483 m 2,0,-1
 595 1483 l 2,1,2
 749 1483 749 1483 831.5 1402 c 128,-1,3
 914 1321 914 1321 913 1154 c 128,-1,4
 912 987 912 987 834.5 886.5 c 128,-1,5
 757 786 757 786 679 754 c 1,6,7
 814 676 814 676 777 463 c 128,-1,8
 740 250 740 250 607 125 c 128,-1,9
 474 0 474 0 239 0 c 2,10,-1
 24 0 l 2,11,12
 -1 0 -1 0 -12.5 18.5 c 128,-1,13
 -24 37 -24 37 -17 63 c 2,14,-1
 308 1341 l 1,15,-1
 257 1341 l 2,16,17
 230 1341 230 1341 209.5 1357.5 c 128,-1,18
 189 1374 189 1374 196 1395 c 1,19,-1
 208 1442 l 2,20,21
 212 1458 212 1458 227.5 1470.5 c 128,-1,22
 243 1483 243 1483 255 1483 c 2,0,-1
310 692 m 1,23,-1
 169 139 l 1,24,-1
 298 145 l 2,25,26
 402 150 402 150 493.5 234.5 c 128,-1,27
 585 319 585 319 613.5 460.5 c 128,-1,28
 642 602 642 602 577 655 c 1,29,30
 552 678 552 678 501 685 c 128,-1,31
 450 692 450 692 310 692 c 1,23,-1
474 1341 m 1,32,-1
 347 838 l 1,33,-1
 513 834 l 2,34,35
 609 831 609 831 663.5 909 c 128,-1,36
 718 987 718 987 735.5 1090.5 c 128,-1,37
 753 1194 753 1194 718 1267.5 c 128,-1,38
 683 1341 683 1341 595 1341 c 2,39,-1
 474 1341 l 1,32,-1
EndSplineSet
EndChar

StartChar: C
Encoding: 67 67 38
Width: 866
GlyphClass: 2
Flags: W
LayerCount: 2
Fore
SplineSet
911 1124 m 1,0,1
 913 1110 913 1110 913 1098 c 0,2,3
 913 1069 913 1069 870 1057 c 2,4,-1
 813 1040 l 1,5,6
 790 1036 790 1036 769.5 1052.5 c 128,-1,7
 749 1069 749 1069 747 1096 c 0,8,9
 731 1253 731 1253 678 1319 c 1,10,11
 651 1329 651 1329 618 1329 c 1,12,13
 518 1333 518 1333 416.5 1187.5 c 128,-1,14
 315 1042 315 1042 240.5 774 c 128,-1,15
 166 506 166 506 191.5 329 c 128,-1,16
 217 152 217 152 295 133 c 1,17,18
 448 147 448 147 549 369 c 0,19,20
 567 410 567 410 581.5 418 c 128,-1,21
 596 426 596 426 631 412 c 2,22,-1
 696 385 l 2,23,24
 733 369 733 369 702 303 c 1,25,26
 608 129 608 129 516 56.5 c 128,-1,27
 424 -16 424 -16 289 -16 c 1,28,29
 217 -20 217 -20 131 47.5 c 128,-1,30
 45 115 45 115 25.5 331 c 128,-1,31
 6 547 6 547 75.5 829.5 c 128,-1,32
 145 1112 145 1112 307 1304.5 c 128,-1,33
 469 1497 469 1497 651 1499 c 0,34,35
 676 1499 676 1499 719 1484.5 c 128,-1,36
 762 1470 762 1470 797.5 1443.5 c 128,-1,37
 833 1417 833 1417 868 1328 c 128,-1,38
 903 1239 903 1239 911 1124 c 1,0,1
EndSplineSet
EndChar

StartChar: D
Encoding: 68 68 39
Width: 858
GlyphClass: 2
Flags: W
LayerCount: 2
Fore
SplineSet
301 1350 m 1,0,-1
 194 1337 l 1,1,2
 155 1337 155 1337 162 1384 c 2,3,-1
 170 1442 l 1,4,5
 176 1473 176 1473 205 1481 c 1,6,7
 286 1499 286 1499 466.5 1496 c 128,-1,8
 647 1493 647 1493 755.5 1382.5 c 128,-1,9
 864 1272 864 1272 872 1058 c 128,-1,10
 880 844 880 844 802.5 587 c 128,-1,11
 725 330 725 330 584.5 162 c 128,-1,12
 444 -6 444 -6 219 -8 c 0,13,14
 108 -8 108 -8 34.5 3 c 128,-1,15
 -39 14 -39 14 -17 102 c 2,16,-1
 301 1350 l 1,0,-1
469 1354 m 1,17,-1
 157 137 l 1,18,19
 176 135 176 135 252 135 c 0,20,21
 381 135 381 135 489.5 283.5 c 128,-1,22
 598 432 598 432 656 646 c 128,-1,23
 714 860 714 860 717.5 1008.5 c 128,-1,24
 721 1157 721 1157 662.5 1254.5 c 128,-1,25
 604 1352 604 1352 469 1354 c 1,17,-1
EndSplineSet
EndChar

StartChar: E
Encoding: 69 69 40
Width: 817
GlyphClass: 2
Flags: W
LayerCount: 2
Fore
SplineSet
517 0 m 2,0,-1
 26 0 l 2,1,2
 1 0 1 0 -10.5 18.5 c 128,-1,3
 -22 37 -22 37 -15 63 c 2,4,-1
 310 1341 l 1,5,-1
 228 1341 l 2,6,7
 198 1341 198 1341 190.5 1350.5 c 128,-1,8
 183 1360 183 1360 191 1395 c 1,9,-1
 204 1442 l 2,10,11
 212 1468 212 1468 221 1475.5 c 128,-1,12
 230 1483 230 1483 259 1483 c 2,13,-1
 927 1483 l 2,14,15
 955 1483 955 1483 964.5 1472.5 c 128,-1,16
 974 1462 974 1462 966 1432 c 2,17,-1
 951 1380 l 1,18,19
 941 1341 941 1341 900 1341 c 2,20,-1
 476 1341 l 1,21,-1
 357 874 l 1,22,-1
 720 874 l 2,23,24
 738 874 738 874 745.5 860 c 128,-1,25
 753 846 753 846 749 827 c 1,26,-1
 734 776 l 1,27,28
 724 733 724 733 673 733 c 2,29,-1
 323 733 l 1,30,-1
 171 141 l 1,31,-1
 564 141 l 2,32,33
 583 141 583 141 590 127 c 128,-1,34
 597 113 597 113 593 94 c 1,35,-1
 579 43 l 2,36,37
 568 0 568 0 517 0 c 2,0,-1
EndSplineSet
EndChar

StartChar: F
Encoding: 70 70 41
Width: 808
GlyphClass: 2
Flags: W
LayerCount: 2
Fore
SplineSet
902 1341 m 2,0,-1
 476 1341 l 1,1,-1
 331 766 l 1,2,-1
 703 766 l 2,3,4
 722 766 722 766 729 751.5 c 128,-1,5
 736 737 736 737 732 719 c 2,6,-1
 718 668 l 1,7,8
 708 625 708 625 656 625 c 2,9,-1
 294 625 l 1,10,-1
 146 45 l 2,11,12
 134 0 134 0 85 0 c 2,13,-1
 26 0 l 2,14,15
 1 0 1 0 -10.5 18.5 c 128,-1,16
 -22 37 -22 37 -15 63 c 2,17,-1
 310 1341 l 1,18,-1
 230 1341 l 2,19,20
 200 1341 200 1341 192.5 1350.5 c 128,-1,21
 185 1360 185 1360 194 1395 c 2,22,-1
 206 1442 l 1,23,24
 214 1468 214 1468 223 1475.5 c 128,-1,25
 232 1483 232 1483 261 1483 c 2,26,-1
 929 1483 l 2,27,28
 957 1483 957 1483 966.5 1472.5 c 128,-1,29
 976 1462 976 1462 968 1432 c 2,30,-1
 953 1380 l 1,31,32
 943 1341 943 1341 902 1341 c 2,0,-1
EndSplineSet
EndChar

StartChar: G
Encoding: 71 71 42
Width: 880
GlyphClass: 2
Flags: W
LayerCount: 2
Fore
SplineSet
438 696 m 2,0,-1
 811 696 l 2,1,2
 843 696 843 696 829 651 c 0,3,4
 712 279 712 279 597.5 139.5 c 128,-1,5
 483 0 483 0 343.5 -11.5 c 128,-1,6
 204 -23 204 -23 117 62 c 128,-1,7
 30 147 30 147 22 377.5 c 128,-1,8
 14 608 14 608 86.5 872.5 c 128,-1,9
 159 1137 159 1137 298.5 1301.5 c 128,-1,10
 438 1466 438 1466 566 1489.5 c 128,-1,11
 694 1513 694 1513 764.5 1464 c 128,-1,12
 835 1415 835 1415 873 1301.5 c 128,-1,13
 911 1188 911 1188 911 1130.5 c 128,-1,14
 911 1073 911 1073 870 1057 c 1,15,-1
 798 1036 l 1,16,17
 778 1032 778 1032 764.5 1043.5 c 128,-1,18
 751 1055 751 1055 748 1118.5 c 128,-1,19
 745 1182 745 1182 716.5 1248.5 c 128,-1,20
 688 1315 688 1315 641 1327 c 0,21,22
 544 1352 544 1352 430.5 1203.5 c 128,-1,23
 317 1055 317 1055 255.5 830.5 c 128,-1,24
 194 606 194 606 189 452.5 c 128,-1,25
 184 299 184 299 215.5 215 c 128,-1,26
 247 131 247 131 319 136 c 128,-1,27
 391 141 391 141 465.5 231.5 c 128,-1,28
 540 322 540 322 612 557 c 1,29,-1
 415 557 l 2,30,31
 376 557 376 557 391 614 c 2,32,-1
 407 672 l 1,33,34
 415 696 415 696 438 696 c 2,0,-1
EndSplineSet
EndChar

StartChar: H
Encoding: 72 72 43
Width: 1091
GlyphClass: 2
Flags: W
LayerCount: 2
Fore
SplineSet
333 1438 m 2,0,1
 345 1483 345 1483 394 1483 c 2,2,-1
 454 1483 l 2,3,4
 478 1483 478 1483 489.5 1464.5 c 128,-1,5
 501 1446 501 1446 495 1419 c 2,6,-1
 353 868 l 1,7,-1
 841 868 l 1,8,-1
 986 1438 l 2,9,10
 998 1483 998 1483 1048 1483 c 2,11,-1
 1107 1483 l 2,12,13
 1132 1483 1132 1483 1143 1464.5 c 128,-1,14
 1154 1446 1154 1446 1148 1419 c 2,15,-1
 798 45 l 1,16,17
 785 0 785 0 736 0 c 2,18,-1
 677 0 l 2,19,20
 652 0 652 0 641 18.5 c 128,-1,21
 630 37 630 37 636 63 c 2,22,-1
 806 727 l 1,23,-1
 318 727 l 1,24,-1
 144 45 l 2,25,26
 132 0 132 0 83 0 c 2,27,-1
 24 0 l 2,28,29
 -1 0 -1 0 -12.5 18.5 c 128,-1,30
 -24 37 -24 37 -17 63 c 2,31,-1
 333 1438 l 2,0,1
EndSplineSet
EndChar

StartChar: I
Encoding: 73 73 44
Width: 454
GlyphClass: 2
Flags: W
LayerCount: 2
Fore
SplineSet
328 1438 m 2,0,1
 340 1483 340 1483 389 1483 c 2,2,-1
 449 1483 l 2,3,4
 473 1483 473 1483 484.5 1464.5 c 128,-1,5
 496 1446 496 1446 489 1419 c 2,6,-1
 139 45 l 2,7,8
 127 0 127 0 78 0 c 2,9,-1
 18 0 l 2,10,11
 -6 0 -6 0 -17.5 18.5 c 128,-1,12
 -29 37 -29 37 -23 63 c 2,13,-1
 328 1438 l 2,0,1
EndSplineSet
EndChar

StartChar: J
Encoding: 74 74 45
Width: 468
GlyphClass: 2
Flags: W
LayerCount: 2
Fore
SplineSet
402 1483 m 2,0,-1
 463 1483 l 2,1,2
 488 1483 488 1483 499 1464.5 c 128,-1,3
 510 1446 510 1446 504 1421 c 2,4,-1
 162 76 l 2,5,6
 121 -82 121 -82 31 -162 c 128,-1,7
 -59 -242 -59 -242 -153 -268 c 1,8,9
 -190 -281 -190 -281 -202 -256 c 1,10,-1
 -227 -209 l 1,11,12
 -245 -172 -245 -172 -206 -154 c 0,13,14
 -45 -80 -45 -80 0 98 c 2,15,-1
 343 1438 l 2,16,17
 355 1483 355 1483 402 1483 c 2,0,-1
EndSplineSet
EndChar

StartChar: K
Encoding: 75 75 46
Width: 872
GlyphClass: 2
Flags: W
LayerCount: 2
Fore
SplineSet
328 1438 m 2,0,1
 340 1483 340 1483 389 1483 c 2,2,-1
 449 1483 l 2,3,4
 473 1483 473 1483 484.5 1464.5 c 128,-1,5
 496 1446 496 1446 489 1419 c 2,6,-1
 344 852 l 1,7,-1
 836 1450 l 2,8,9
 862 1483 862 1483 903 1483 c 2,10,-1
 989 1483 l 2,11,12
 1016 1483 1016 1483 1024 1464.5 c 128,-1,13
 1032 1446 1032 1446 1016 1425 c 1,14,-1
 457 762 l 1,15,-1
 666 61 l 2,16,17
 684 0 684 0 631 0 c 2,18,-1
 555 0 l 2,19,20
 526 0 526 0 516 10 c 128,-1,21
 506 20 506 20 498 51 c 1,22,-1
 305 698 l 1,23,-1
 139 45 l 2,24,25
 127 0 127 0 78 0 c 2,26,-1
 18 0 l 2,27,28
 -6 0 -6 0 -17.5 18.5 c 128,-1,29
 -29 37 -29 37 -23 63 c 2,30,-1
 328 1438 l 2,0,1
EndSplineSet
EndChar

StartChar: L
Encoding: 76 76 47
Width: 788
GlyphClass: 2
Flags: W
LayerCount: 2
Fore
SplineSet
578 0 m 2,0,-1
 18 0 l 2,1,2
 -6 0 -6 0 -17.5 18.5 c 128,-1,3
 -29 37 -29 37 -23 63 c 2,4,-1
 328 1438 l 2,5,6
 340 1483 340 1483 389 1483 c 2,7,-1
 449 1483 l 2,8,9
 473 1483 473 1483 484.5 1464.5 c 128,-1,10
 496 1446 496 1446 489 1419 c 2,11,-1
 164 141 l 1,12,-1
 627 141 l 2,13,14
 645 141 645 141 653.5 127 c 128,-1,15
 662 113 662 113 657 94 c 2,16,-1
 643 43 l 1,17,18
 633 0 633 0 578 0 c 2,0,-1
EndSplineSet
EndChar

StartChar: M
Encoding: 77 77 48
Width: 1171
GlyphClass: 2
Flags: W
LayerCount: 2
Fore
SplineSet
328 1438 m 2,0,1
 340 1481 340 1481 387 1483 c 1,2,-1
 453 1483 l 2,3,4
 496 1483 496 1483 502 1436 c 1,5,6
 539 1051 539 1051 543 883 c 128,-1,7
 547 715 547 715 537 569 c 1,8,-1
 1061 1444 l 1,9,10
 1083 1483 1083 1483 1122 1483 c 2,11,-1
 1186 1483 l 2,12,13
 1212 1483 1212 1483 1222.5 1463.5 c 128,-1,14
 1233 1444 1233 1444 1227 1419 c 2,15,-1
 877 45 l 1,16,17
 864 0 864 0 815 0 c 2,18,-1
 756 0 l 2,19,20
 731 0 731 0 720 18.5 c 128,-1,21
 709 37 709 37 715 63 c 2,22,-1
 950 985 l 1,23,24
 864 836 864 836 745.5 650.5 c 128,-1,25
 627 465 627 465 590 406 c 1,26,27
 539 322 539 322 487 326 c 1,28,-1
 446 328 l 1,29,30
 389 332 389 332 395 410 c 0,31,32
 410 633 410 633 385 1006 c 1,33,-1
 139 45 l 2,34,35
 127 0 127 0 78 0 c 2,36,-1
 18 0 l 2,37,38
 -6 0 -6 0 -17.5 18.5 c 128,-1,39
 -29 37 -29 37 -23 63 c 2,40,-1
 328 1438 l 2,0,1
EndSplineSet
EndChar

StartChar: N
Encoding: 78 78 49
Width: 1058
GlyphClass: 2
Flags: W
LayerCount: 2
Fore
SplineSet
328 1438 m 2,0,1
 340 1481 340 1481 387 1483 c 1,2,-1
 449 1483 l 2,3,4
 471 1483 471 1483 484.5 1467.5 c 128,-1,5
 498 1452 498 1452 502 1419 c 1,6,-1
 684 383 l 1,7,-1
 952 1438 l 1,8,9
 965 1483 965 1483 1014 1483 c 2,10,-1
 1073 1483 l 2,11,12
 1098 1483 1098 1483 1109 1464.5 c 128,-1,13
 1120 1446 1120 1446 1114 1419 c 2,14,-1
 764 45 l 2,15,16
 752 0 752 0 702 0 c 2,17,-1
 629 0 l 2,18,19
 614 0 614 0 604 9 c 128,-1,20
 594 18 594 18 588 63 c 1,21,-1
 408 1096 l 1,22,-1
 139 45 l 2,23,24
 127 0 127 0 78 0 c 2,25,-1
 18 0 l 2,26,27
 -6 0 -6 0 -17.5 18.5 c 128,-1,28
 -29 37 -29 37 -23 63 c 2,29,-1
 328 1438 l 2,0,1
EndSplineSet
EndChar

StartChar: O
Encoding: 79 79 50
Width: 913
GlyphClass: 2
Flags: W
LayerCount: 2
Fore
SplineSet
14 444 m 0,0,1
 14 631 14 631 69.5 816 c 128,-1,2
 125 1001 125 1001 204 1147.5 c 128,-1,3
 283 1294 283 1294 399.5 1396.5 c 128,-1,4
 516 1499 516 1499 641 1499 c 0,5,6
 727 1499 727 1499 819 1442 c 0,7,8
 883 1403 883 1403 907.5 1319 c 128,-1,9
 932 1235 932 1235 932 1071 c 128,-1,10
 932 907 932 907 860 635 c 1,11,12
 795 383 795 383 668 197 c 1,13,14
 600 100 600 100 507 46 c 128,-1,15
 414 -8 414 -8 327 -10 c 128,-1,16
 240 -12 240 -12 160 31 c 1,17,18
 14 106 14 106 14 444 c 0,0,1
242 788 m 1,19,20
 184 598 184 598 183 442.5 c 128,-1,21
 182 287 182 287 219 208 c 128,-1,22
 256 129 256 129 315 129 c 0,23,24
 424 129 424 129 506 236 c 1,25,26
 606 375 606 375 698 674 c 1,27,28
 782 961 782 961 760.5 1146 c 128,-1,29
 739 1331 739 1331 633 1331 c 0,30,31
 520 1331 520 1331 432 1217 c 1,32,33
 324 1073 324 1073 242 788 c 1,19,20
EndSplineSet
EndChar

StartChar: P
Encoding: 80 80 51
Width: 919
GlyphClass: 2
Flags: W
LayerCount: 2
Fore
SplineSet
255 1483 m 2,0,-1
 577 1483 l 2,1,2
 742 1483 742 1483 826 1413 c 128,-1,3
 910 1343 910 1343 912 1207 c 128,-1,4
 914 1071 914 1071 862 927.5 c 128,-1,5
 810 784 810 784 716 716.5 c 128,-1,6
 622 649 622 649 509 631.5 c 128,-1,7
 396 614 396 614 290 612 c 1,8,-1
 144 45 l 2,9,10
 132 0 132 0 83 0 c 2,11,-1
 24 0 l 2,12,13
 -1 0 -1 0 -12.5 18.5 c 128,-1,14
 -24 37 -24 37 -17 63 c 2,15,-1
 308 1343 l 1,16,17
 257 1343 257 1343 235.5 1343 c 128,-1,18
 214 1343 214 1343 201.5 1360.5 c 128,-1,19
 189 1378 189 1378 196 1401 c 2,20,-1
 208 1442 l 2,21,22
 212 1458 212 1458 226.5 1470.5 c 128,-1,23
 241 1483 241 1483 255 1483 c 2,0,-1
474 1341 m 1,24,-1
 325 754 l 1,25,-1
 439 760 l 1,26,27
 603 772 603 772 654.5 864 c 128,-1,28
 706 956 706 956 726 1052.5 c 128,-1,29
 746 1149 746 1149 746 1212 c 0,30,31
 746 1333 746 1333 607 1339 c 0,32,33
 583 1341 583 1341 474 1341 c 1,24,-1
EndSplineSet
EndChar

StartChar: Q
Encoding: 81 81 52
Width: 942
GlyphClass: 2
Flags: W
LayerCount: 2
Fore
SplineSet
155 -100 m 1,0,-1
 169 -53 l 1,1,2
 178 -12 178 -12 237 2 c 1,3,4
 198 14 198 14 165 31 c 1,5,6
 34 113 34 113 23 368 c 128,-1,7
 12 623 12 623 76.5 819.5 c 128,-1,8
 141 1016 141 1016 216.5 1158 c 128,-1,9
 292 1300 292 1300 409 1399.5 c 128,-1,10
 526 1499 526 1499 626 1499 c 128,-1,11
 726 1499 726 1499 808 1452 c 128,-1,12
 890 1405 890 1405 913.5 1320 c 128,-1,13
 937 1235 937 1235 938 1071 c 128,-1,14
 939 907 939 907 872.5 658.5 c 128,-1,15
 806 410 806 410 700 238 c 0,16,17
 581 45 581 45 405 2 c 1,18,19
 421 -4 421 -4 436 -10 c 1,20,21
 550 -66 550 -66 681 -10 c 0,22,23
 702 -2 702 -2 713 -19.5 c 128,-1,24
 724 -37 724 -37 718 -63 c 2,25,-1
 706 -115 l 1,26,27
 700 -150 700 -150 665 -164 c 1,28,29
 546 -219 546 -219 431.5 -162.5 c 128,-1,30
 317 -106 317 -106 186 -164 c 1,31,32
 163 -172 163 -172 155 -154.5 c 128,-1,33
 147 -137 147 -137 155 -100 c 1,0,-1
247 788 m 0,34,35
 192 598 192 598 190 442.5 c 128,-1,36
 188 287 188 287 226 205 c 128,-1,37
 264 123 264 123 351 130 c 128,-1,38
 438 137 438 137 524 253 c 128,-1,39
 610 369 610 369 700 665 c 128,-1,40
 790 961 790 961 767.5 1146 c 128,-1,41
 745 1331 745 1331 634.5 1331 c 128,-1,42
 524 1331 524 1331 426.5 1202 c 128,-1,43
 329 1073 329 1073 247 788 c 0,34,35
EndSplineSet
EndChar

StartChar: R
Encoding: 82 82 53
Width: 921
GlyphClass: 2
Flags: W
LayerCount: 2
Fore
SplineSet
308 1341 m 1,0,1
 257 1341 257 1341 236.5 1341 c 128,-1,2
 216 1341 216 1341 203.5 1358.5 c 128,-1,3
 191 1376 191 1376 198 1399 c 1,4,-1
 208 1442 l 2,5,6
 212 1458 212 1458 227.5 1470.5 c 128,-1,7
 243 1483 243 1483 255 1483 c 2,8,-1
 603 1483 l 2,9,10
 744 1483 744 1483 829 1412 c 128,-1,11
 914 1341 914 1341 914 1204 c 128,-1,12
 914 1067 914 1067 863 946 c 0,13,14
 775 739 775 739 579 676 c 1,15,-1
 673 70 l 2,16,17
 683 0 683 0 628 0 c 2,18,-1
 558 0 l 2,19,20
 531 0 531 0 519 16.5 c 128,-1,21
 507 33 507 33 503 72 c 1,22,-1
 425 651 l 1,23,-1
 298 649 l 1,24,-1
 144 45 l 2,25,26
 132 0 132 0 83 0 c 2,27,-1
 24 0 l 2,28,29
 -1 0 -1 0 -12.5 18.5 c 128,-1,30
 -24 37 -24 37 -17 63 c 2,31,-1
 308 1341 l 1,0,1
474 1339 m 1,32,-1
 335 788 l 1,33,-1
 462 795 l 1,34,35
 601 801 601 801 673.5 912.5 c 128,-1,36
 746 1024 746 1024 746 1212 c 0,37,38
 746 1266 746 1266 711.5 1299.5 c 128,-1,39
 677 1333 677 1333 624.5 1336 c 128,-1,40
 572 1339 572 1339 474 1339 c 1,32,-1
EndSplineSet
EndChar

StartChar: S
Encoding: 83 83 54
Width: 899
GlyphClass: 2
Flags: W
LayerCount: 2
Fore
SplineSet
913 1083 m 0,0,1
 913 1032 913 1032 878 1022 c 1,2,-1
 806 999 l 2,3,4
 790 993 790 993 773.5 1004.5 c 128,-1,5
 757 1016 757 1016 757 1042 c 0,6,7
 757 1313 757 1313 669 1354 c 0,8,9
 628 1374 628 1374 579 1352 c 1,10,11
 515 1319 515 1319 456 1214.5 c 128,-1,12
 397 1110 397 1110 393 977 c 0,13,14
 391 924 391 924 411 894 c 128,-1,15
 431 864 431 864 489 846 c 1,16,-1
 573 817 l 2,17,18
 692 776 692 776 729.5 722 c 128,-1,19
 767 668 767 668 765 563 c 1,20,21
 763 342 763 342 621 155.5 c 128,-1,22
 479 -31 479 -31 296 -33 c 1,23,24
 55 -33 55 -33 55 360 c 1,25,26
 51 442 51 442 85 453 c 2,27,-1
 161 477 l 1,28,29
 182 485 182 485 195 474 c 128,-1,30
 208 463 208 463 208 438 c 0,31,32
 206 131 206 131 290 92 c 1,33,34
 321 86 321 86 370 106 c 1,35,36
 454 143 454 143 518.5 258 c 128,-1,37
 583 373 583 373 594.5 482.5 c 128,-1,38
 606 592 606 592 581 627 c 128,-1,39
 556 662 556 662 452 694 c 2,40,-1
 366 721 l 2,41,42
 309 739 309 739 267 786.5 c 128,-1,43
 225 834 225 834 225 905 c 0,44,45
 225 1032 225 1032 279 1168.5 c 128,-1,46
 333 1305 333 1305 439.5 1405 c 128,-1,47
 546 1505 546 1505 674 1505 c 128,-1,48
 802 1505 802 1505 857.5 1396.5 c 128,-1,49
 913 1288 913 1288 913 1083 c 0,0,1
EndSplineSet
EndChar

StartChar: T
Encoding: 84 84 55
Width: 911
GlyphClass: 2
Flags: W
LayerCount: 2
Fore
SplineSet
1003 1335 m 2,0,-1
 690 1335 l 1,1,-1
 360 45 l 2,2,3
 348 0 348 0 298 0 c 2,4,-1
 239 0 l 2,5,6
 214 0 214 0 203 18.5 c 128,-1,7
 192 37 192 37 198 63 c 2,8,-1
 522 1335 l 1,9,-1
 198 1335 l 2,10,11
 139 1335 139 1335 153 1382 c 1,12,-1
 167 1442 l 2,13,14
 174 1468 174 1468 186 1475.5 c 128,-1,15
 198 1483 198 1483 229 1483 c 2,16,-1
 1028 1483 l 2,17,18
 1091 1483 1091 1483 1077 1425 c 2,19,-1
 1066 1378 l 1,20,21
 1058 1335 1058 1335 1003 1335 c 2,0,-1
EndSplineSet
EndChar

StartChar: U
Encoding: 85 85 56
Width: 1013
GlyphClass: 2
Flags: W
LayerCount: 2
Fore
SplineSet
352 -14 m 1,0,1
 213 -12 213 -12 141 59 c 1,2,3
 -2 209 -2 209 92 571 c 1,4,-1
 313 1438 l 1,5,6
 326 1483 326 1483 375 1483 c 2,7,-1
 434 1483 l 2,8,9
 459 1483 459 1483 470 1464.5 c 128,-1,10
 481 1446 481 1446 475 1419 c 2,11,-1
 244 506 l 2,12,13
 146 119 146 119 383 119 c 0,14,15
 481 119 481 119 558 201 c 128,-1,16
 635 283 635 283 684 483 c 1,17,-1
 928 1438 l 2,18,19
 940 1483 940 1483 989 1483 c 2,20,-1
 1041 1483 l 2,21,22
 1065 1483 1065 1483 1075.5 1464.5 c 128,-1,23
 1086 1446 1086 1446 1079 1419 c 2,24,-1
 840 469 l 2,25,26
 774 205 774 205 653 98 c 1,27,28
 604 51 604 51 528.5 18.5 c 128,-1,29
 453 -14 453 -14 352 -14 c 1,0,1
EndSplineSet
EndChar

StartChar: V
Encoding: 86 86 57
Width: 919
GlyphClass: 2
Flags: W
LayerCount: 2
Fore
SplineSet
288 178 m 1,0,-1
 909 1440 l 1,1,2
 931 1487 931 1487 987 1481 c 1,3,-1
 1032 1477 l 1,4,5
 1099 1470 1099 1470 1075 1399 c 1,6,-1
 391 82 l 1,7,8
 354 4 354 4 268 0 c 1,9,-1
 204 -2 l 2,10,11
 163 -4 163 -4 140.5 27.5 c 128,-1,12
 118 59 118 59 122 111 c 1,13,-1
 194 1434 l 1,14,15
 200 1479 200 1479 256 1479 c 2,16,-1
 325 1479 l 2,17,18
 378 1479 378 1479 372 1423 c 1,19,-1
 288 178 l 1,0,-1
EndSplineSet
EndChar

StartChar: W
Encoding: 87 87 58
Width: 1433
GlyphClass: 2
Flags: W
LayerCount: 2
Fore
SplineSet
460 1483 m 1,0,1
 516 1479 516 1479 477 1403 c 1,2,3
 391 1245 391 1245 320.5 877.5 c 128,-1,4
 250 510 250 510 299 260 c 1,5,6
 454 430 454 430 590.5 730 c 128,-1,7
 727 1030 727 1030 774 1262 c 1,8,-1
 778 1266 l 1,9,10
 796 1356 796 1356 817 1430 c 1,11,12
 835 1483 835 1483 888 1483 c 2,13,-1
 962 1483 l 2,14,15
 1011 1483 1011 1483 989 1421 c 0,16,17
 907 1180 907 1180 876 844 c 128,-1,18
 845 508 845 508 909 238 c 1,19,20
 1095 449 1095 449 1221 804 c 128,-1,21
 1347 1159 1347 1159 1360 1434 c 0,22,23
 1362 1462 1362 1462 1368 1472.5 c 128,-1,24
 1374 1483 1374 1483 1400 1483 c 2,25,-1
 1482 1483 l 2,26,27
 1515 1483 1515 1483 1524.5 1472.5 c 128,-1,28
 1534 1462 1534 1462 1532 1432 c 0,29,30
 1521 1214 1521 1214 1441.5 941 c 128,-1,31
 1362 668 1362 668 1206 399.5 c 128,-1,32
 1050 131 1050 131 860 0 c 1,33,-1
 835 0 l 2,34,35
 798 0 798 0 784 41 c 0,36,37
 706 266 706 266 714 666 c 1,38,39
 641 489 641 489 514 306 c 128,-1,40
 387 123 387 123 276 0 c 1,41,-1
 225 0 l 2,42,43
 188 0 188 0 174 41 c 0,44,45
 86 317 86 317 130 737 c 128,-1,46
 174 1157 174 1157 315 1454 c 0,47,48
 329 1483 329 1483 370 1483 c 2,49,-1
 460 1483 l 1,0,1
EndSplineSet
EndChar

StartChar: X
Encoding: 88 88 59
Width: 823
GlyphClass: 2
Flags: W
LayerCount: 2
Fore
SplineSet
523 684 m 1,0,-1
 658 66 l 2,1,2
 664 39 664 39 655 19.5 c 128,-1,3
 646 0 646 0 621 0 c 2,4,-1
 545 0 l 2,5,6
 494 0 494 0 480 70 c 1,7,-1
 394 582 l 1,8,-1
 128 47 l 1,9,10
 107 0 107 0 54 0 c 2,11,-1
 -22 0 l 2,12,13
 -96 0 -96 0 -55 86 c 1,14,-1
 332 780 l 1,15,-1
 199 1403 l 1,16,17
 177 1485 177 1485 253 1485 c 2,18,-1
 302 1485 l 2,19,20
 369 1485 369 1485 380 1415 c 1,21,-1
 472 881 l 1,22,-1
 763 1450 l 1,23,24
 779 1485 779 1485 830 1485 c 2,25,-1
 896 1485 l 2,26,27
 982 1485 982 1485 935 1399 c 1,28,-1
 523 684 l 1,0,-1
EndSplineSet
EndChar

StartChar: Y
Encoding: 89 89 60
Width: 819
GlyphClass: 2
Flags: W
LayerCount: 2
Fore
SplineSet
427 768 m 1,0,1
 618 1053 618 1053 696.5 1189 c 128,-1,2
 775 1325 775 1325 837 1456 c 0,3,4
 851 1487 851 1487 898 1483 c 1,5,-1
 962 1475 l 2,6,7
 984 1473 984 1473 993.5 1453.5 c 128,-1,8
 1003 1434 1003 1434 986 1401 c 1,9,10
 751 989 751 989 456 596 c 1,11,-1
 316 45 l 2,12,13
 304 0 304 0 255 0 c 2,14,-1
 196 0 l 2,15,16
 171 0 171 0 160 18.5 c 128,-1,17
 149 37 149 37 155 63 c 2,18,-1
 298 629 l 1,19,20
 298 764 298 764 266.5 1013 c 128,-1,21
 235 1262 235 1262 202 1391 c 1,22,23
 189 1427 189 1427 202.5 1453 c 128,-1,24
 216 1479 216 1479 247 1481 c 1,25,-1
 304 1489 l 1,26,27
 333 1491 333 1491 345 1482 c 128,-1,28
 357 1473 357 1473 364 1440 c 1,29,30
 427 1059 427 1059 427 768 c 1,0,1
EndSplineSet
EndChar

StartChar: Z
Encoding: 90 90 61
Width: 937
GlyphClass: 2
Flags: W
LayerCount: 2
Fore
SplineSet
318 1483 m 1,0,-1
 985 1483 l 2,1,2
 1033 1483 1033 1483 1024 1440 c 2,3,-1
 1012 1380 l 1,4,5
 1004 1333 1004 1333 955 1335 c 1,6,-1
 947 1335 l 1,7,-1
 162 147 l 1,8,-1
 650 147 l 2,9,10
 709 147 709 147 697 92 c 2,11,-1
 686 45 l 1,12,13
 674 0 674 0 619 0 c 2,14,-1
 17 0 l 2,15,16
 -34 0 -34 0 -48.5 27.5 c 128,-1,17
 -63 55 -63 55 -47 94 c 1,18,-1
 768 1335 l 1,19,-1
 312 1335 l 2,20,21
 254 1335 254 1335 267 1389 c 1,22,-1
 285 1454 l 1,23,24
 291 1485 291 1485 318 1483 c 1,0,-1
EndSplineSet
EndChar

StartChar: bracketleft
Encoding: 91 91 62
Width: 518
GlyphClass: 2
Flags: W
LayerCount: 2
Fore
SplineSet
518 1622 m 1,0,-1
 47 -193 l 1,1,-1
 238 -193 l 2,2,3
 299 -193 299 -193 285 -258 c 1,4,-1
 281 -279 l 2,5,6
 276 -301 276 -301 254.5 -318.5 c 128,-1,7
 233 -336 233 -336 211 -336 c 2,8,-1
 -57 -336 l 2,9,10
 -141 -336 -141 -336 -117 -244 c 2,11,-1
 387 1702 l 1,12,13
 405 1765 405 1765 471 1765 c 2,14,-1
 774 1765 l 2,15,16
 836 1765 836 1765 821 1700 c 1,17,-1
 817 1679 l 2,18,19
 813 1657 813 1657 791.5 1639.5 c 128,-1,20
 770 1622 770 1622 748 1622 c 2,21,-1
 518 1622 l 1,0,-1
EndSplineSet
EndChar

StartChar: backslash
Encoding: 92 92 63
Width: 614
GlyphClass: 2
Flags: W
LayerCount: 2
Fore
SplineSet
309 41 m 2,0,-1
 182 1493 l 2,1,2
 176 1556 176 1556 233 1556 c 2,3,-1
 280 1556 l 2,4,5
 329 1556 329 1556 333 1511 c 2,6,-1
 458 45 l 2,7,8
 460 25 460 25 447 12.5 c 128,-1,9
 434 0 434 0 413 0 c 2,10,-1
 356 0 l 2,11,12
 313 0 313 0 309 41 c 2,0,-1
EndSplineSet
EndChar

StartChar: bracketright
Encoding: 93 93 64
Width: 593
GlyphClass: 2
Flags: W
LayerCount: 2
Fore
SplineSet
43 -193 m 1,0,-1
 506 1620 l 1,1,-1
 318 1620 l 2,2,3
 256 1620 256 1620 271 1686 c 1,4,-1
 275 1708 l 2,5,6
 279 1731 279 1731 300.5 1748 c 128,-1,7
 322 1765 322 1765 344 1765 c 2,8,-1
 615 1765 l 2,9,10
 699 1765 699 1765 674 1673 c 1,11,-1
 177 -272 l 1,12,13
 158 -336 158 -336 93 -336 c 2,14,-1
 -213 -336 l 2,15,16
 -274 -336 -274 -336 -260 -270 c 2,17,-1
 -256 -250 l 2,18,19
 -252 -227 -252 -227 -230.5 -210 c 128,-1,20
 -209 -193 -209 -193 -186 -193 c 2,21,-1
 43 -193 l 1,0,-1
EndSplineSet
EndChar

StartChar: asciicircum
Encoding: 94 94 65
Width: 860
GlyphClass: 2
Flags: W
LayerCount: 2
Fore
SplineSet
639 1303 m 2,0,-1
 662 1303 l 2,1,2
 690 1303 690 1303 711.5 1282.5 c 128,-1,3
 733 1262 733 1262 735 1223 c 1,4,-1
 795 532 l 1,5,6
 795 498 795 498 735 498 c 2,7,-1
 692 498 l 2,8,9
 639 498 639 498 639 535 c 1,10,-1
 600 1153 l 1,11,-1
 172 526 l 1,12,13
 156 498 156 498 129 498 c 2,14,-1
 35 498 l 2,15,16
 10 498 10 498 4 509 c 128,-1,17
 -2 520 -2 520 8 535 c 2,18,-1
 479 1212 l 1,19,20
 539 1303 539 1303 639 1303 c 2,0,-1
EndSplineSet
EndChar

StartChar: underscore
Encoding: 95 95 66
Width: 1087
GlyphClass: 2
Flags: W
LayerCount: 2
Fore
SplineSet
-60 -88 m 2,0,-1
 841 -88 l 2,1,2
 884 -88 884 -88 876 -135 c 1,3,-1
 865 -186 l 1,4,5
 857 -229 857 -229 812 -229 c 2,6,-1
 -68 -229 l 2,7,8
 -118 -229 -118 -229 -105 -182 c 1,9,-1
 -87 -111 l 2,10,11
 -81 -88 -81 -88 -60 -88 c 2,0,-1
EndSplineSet
EndChar

StartChar: grave
Encoding: 96 96 67
Width: 493
GlyphClass: 2
Flags: W
LayerCount: 2
Fore
SplineSet
251 1430 m 2,0,1
 292 1430 292 1430 315 1395 c 1,2,-1
 431 1206 l 1,3,4
 442 1190 442 1190 432.5 1178.5 c 128,-1,5
 423 1167 423 1167 405 1167 c 2,6,-1
 372 1167 l 2,7,8
 341 1167 341 1167 313 1196 c 2,9,-1
 130 1386 l 1,10,11
 116 1407 116 1407 121 1418.5 c 128,-1,12
 126 1430 126 1430 143 1430 c 2,13,-1
 251 1430 l 2,0,1
EndSplineSet
EndChar

StartChar: a
Encoding: 97 97 68
Width: 770
GlyphClass: 2
Flags: W
LayerCount: 2
Fore
SplineSet
604 999 m 1,0,1
 612 1047 612 1047 651 1047 c 1,2,-1
 698 1049 l 1,3,4
 773 1047 773 1047 753 975 c 1,5,-1
 507 156 l 1,6,7
 571 203 571 203 634 291 c 0,8,9
 657 324 657 324 685 305 c 2,10,-1
 735 272 l 2,11,12
 767 250 767 250 745 221 c 1,13,14
 661 123 661 123 590.5 68.5 c 128,-1,15
 520 14 520 14 423 -8 c 1,16,17
 395 -12 395 -12 386 14 c 2,18,-1
 348 127 l 1,19,20
 290 51 290 51 249 22.5 c 128,-1,21
 208 -6 208 -6 186 -6 c 2,22,-1
 182 -6 l 2,23,24
 165 -6 165 -6 131.5 17.5 c 128,-1,25
 98 41 98 41 65 79 c 128,-1,26
 32 117 32 117 17.5 162 c 128,-1,27
 3 207 3 207 19.5 325.5 c 128,-1,28
 36 444 36 444 113 657 c 128,-1,29
 190 870 190 870 271 954 c 128,-1,30
 352 1038 352 1038 474 1036 c 1,31,32
 542 1036 542 1036 604 999 c 1,0,1
573 885 m 1,33,34
 464 946 464 946 395.5 887.5 c 128,-1,35
 327 829 327 829 261.5 649 c 128,-1,36
 196 469 196 469 176.5 366.5 c 128,-1,37
 157 264 157 264 160 227 c 128,-1,38
 163 190 163 190 196 173 c 128,-1,39
 229 156 229 156 305.5 240 c 128,-1,40
 382 324 382 324 439.5 470 c 128,-1,41
 497 616 497 616 573 885 c 1,33,34
EndSplineSet
EndChar

StartChar: b
Encoding: 98 98 69
Width: 759
GlyphClass: 2
Flags: W
LayerCount: 2
Fore
SplineSet
177 143 m 1,0,1
 275 84 275 84 346.5 135 c 128,-1,2
 418 186 418 186 485.5 370.5 c 128,-1,3
 553 555 553 555 572.5 659.5 c 128,-1,4
 592 764 592 764 589 801 c 128,-1,5
 586 838 586 838 552.5 855 c 128,-1,6
 519 872 519 872 441 784 c 128,-1,7
 363 696 363 696 306.5 551 c 128,-1,8
 250 406 250 406 183 162 c 1,9,-1
 177 143 l 1,0,1
275 -8 m 0,10,11
 207 -8 207 -8 144 31 c 1,12,13
 127 0 127 0 89 0 c 2,14,-1
 54 0 l 2,15,16
 -18 0 -18 0 -6 66 c 1,17,-1
 369 1509 l 2,18,19
 381 1554 381 1554 431 1554 c 2,20,-1
 478 1554 l 2,21,22
 535 1554 535 1554 523 1507 c 2,23,-1
 345 809 l 1,24,-1
 375 860 l 2,25,26
 418 932 418 932 473.5 983 c 128,-1,27
 529 1034 529 1034 564 1034 c 2,28,-1
 568 1034 l 2,29,30
 584 1034 584 1034 619 1010.5 c 128,-1,31
 654 987 654 987 687.5 945 c 128,-1,32
 721 903 721 903 733.5 857 c 128,-1,33
 746 811 746 811 727.5 689 c 128,-1,34
 709 567 709 567 631 354 c 128,-1,35
 553 141 553 141 473.5 66.5 c 128,-1,36
 394 -8 394 -8 275 -8 c 0,10,11
EndSplineSet
EndChar

StartChar: c
Encoding: 99 99 70
Width: 604
GlyphClass: 2
Flags: W
LayerCount: 2
Fore
SplineSet
657 926 m 1,0,1
 690 891 690 891 665 862 c 2,2,-1
 631 823 l 2,3,4
 596 784 596 784 569 813 c 1,5,-1
 547 838 l 1,6,7
 473 913 473 913 430 903 c 1,8,9
 356 889 356 889 274 745.5 c 128,-1,10
 192 602 192 602 156.5 449.5 c 128,-1,11
 121 297 121 297 139 195 c 0,12,13
 143 170 143 170 177 149.5 c 128,-1,14
 211 129 211 129 229 133 c 1,15,16
 291 166 291 166 366 256 c 1,17,18
 389 287 389 287 432 260 c 2,19,-1
 463 240 l 1,20,21
 528 201 528 201 352 59 c 1,22,23
 278 -4 278 -4 237 -15.5 c 128,-1,24
 196 -27 196 -27 113.5 15 c 128,-1,25
 31 57 31 57 12 98 c 0,26,27
 -45 223 -45 223 10 453.5 c 128,-1,28
 65 684 65 684 145 806 c 128,-1,29
 225 928 225 928 302 991.5 c 128,-1,30
 379 1055 379 1055 468 1046.5 c 128,-1,31
 557 1038 557 1038 657 926 c 1,0,1
EndSplineSet
EndChar

StartChar: d
Encoding: 100 100 71
Width: 794
GlyphClass: 2
Flags: W
LayerCount: 2
Fore
SplineSet
572 885 m 1,0,1
 470 942 470 942 401.5 893 c 128,-1,2
 333 844 333 844 270.5 675 c 128,-1,3
 208 506 208 506 179.5 378 c 128,-1,4
 151 250 151 250 171.5 201 c 128,-1,5
 192 152 192 152 239 180 c 1,6,7
 335 242 335 242 411.5 408.5 c 128,-1,8
 488 575 488 575 572 885 c 1,0,1
900 1507 m 2,9,-1
 511 156 l 1,10,11
 570 203 570 203 634 291 c 1,12,13
 656 324 656 324 685 305 c 2,14,-1
 734 272 l 2,15,16
 767 250 767 250 744 221 c 1,17,18
 660 123 660 123 589.5 68.5 c 128,-1,19
 519 14 519 14 423 -8 c 0,20,21
 394 -14 394 -14 386 14 c 1,22,-1
 347 127 l 1,23,24
 306 70 306 70 260 32 c 128,-1,25
 214 -6 214 -6 185 -6 c 2,26,-1
 181 -6 l 2,27,28
 142 -6 142 -6 77.5 61.5 c 128,-1,29
 13 129 13 129 11 207 c 1,30,31
 9 367 9 367 101.5 623 c 128,-1,32
 194 879 194 879 274.5 958.5 c 128,-1,33
 355 1038 355 1038 474 1036 c 1,34,35
 542 1036 542 1036 603 999 c 1,36,-1
 740 1509 l 2,37,38
 753 1554 753 1554 802 1554 c 2,39,-1
 855 1554 l 2,40,41
 914 1554 914 1554 900 1507 c 2,9,-1
EndSplineSet
EndChar

StartChar: e
Encoding: 101 101 72
Width: 638
GlyphClass: 2
Flags: W
LayerCount: 2
Fore
SplineSet
150 283 m 1,0,1
 122 133 122 133 206 117 c 1,2,3
 281 145 281 145 392 270 c 1,4,5
 411 287 411 287 433 274 c 2,6,-1
 472 250 l 1,7,8
 499 229 499 229 490 205 c 1,9,10
 451 131 451 131 346 48 c 128,-1,11
 241 -35 241 -35 177 -23 c 1,12,13
 32 14 32 14 7 129 c 1,14,15
 -22 283 -22 283 58 552 c 128,-1,16
 138 821 138 821 281 958 c 1,17,18
 331 1004 331 1004 405.5 1026.5 c 128,-1,19
 480 1049 480 1049 563 1014 c 128,-1,20
 646 979 646 979 645 814 c 128,-1,21
 644 649 644 649 500.5 502.5 c 128,-1,22
 357 356 357 356 150 283 c 1,0,1
175 416 m 1,23,24
 271 457 271 457 339.5 512 c 128,-1,25
 408 567 408 567 452.5 646 c 128,-1,26
 497 725 497 725 497 808 c 128,-1,27
 497 891 497 891 449 891 c 0,28,29
 355 891 355 891 284.5 737.5 c 128,-1,30
 214 584 214 584 175 416 c 1,23,24
EndSplineSet
EndChar

StartChar: f
Encoding: 102 102 73
Width: 587
GlyphClass: 2
Flags: W
LayerCount: 2
Fore
SplineSet
164 0 m 2,0,-1
 111 0 l 2,1,2
 86 0 86 0 73.5 13.5 c 128,-1,3
 61 27 61 27 65 47 c 1,4,-1
 289 897 l 1,5,-1
 174 897 l 2,6,7
 133 897 133 897 147 946 c 2,8,-1
 162 1001 l 1,9,10
 170 1040 170 1040 207 1040 c 2,11,-1
 328 1040 l 1,12,-1
 352 1135 l 1,13,14
 405 1335 405 1335 486 1435.5 c 128,-1,15
 567 1536 567 1536 637 1556 c 0,16,17
 700 1575 700 1575 745 1565 c 1,18,-1
 870 1532 l 1,19,20
 936 1516 936 1516 903 1456 c 2,21,-1
 876 1407 l 1,22,23
 862 1378 862 1378 805 1397 c 2,24,-1
 674 1442 l 1,25,26
 569 1356 569 1356 510 1135 c 2,27,-1
 485 1040 l 1,28,-1
 633 1040 l 2,29,30
 676 1040 676 1040 663 995 c 1,31,-1
 649 942 l 1,32,33
 635 897 635 897 594 897 c 2,34,-1
 446 897 l 1,35,-1
 223 45 l 2,36,37
 211 0 211 0 164 0 c 2,0,-1
EndSplineSet
EndChar

StartChar: g
Encoding: 103 103 74
Width: 739
GlyphClass: 2
Flags: W
LayerCount: 2
Fore
SplineSet
461 1036 m 0,0,1
 529 1036 529 1036 592 997 c 1,2,3
 604 1038 604 1038 635 1038 c 2,4,-1
 705 1040 l 2,5,6
 756 1042 756 1042 746 987 c 1,7,8
 699 799 699 799 445 -102 c 0,9,10
 392 -293 392 -293 283 -352 c 1,11,12
 226 -387 226 -387 194 -389 c 128,-1,13
 162 -391 162 -391 97 -354 c 2,14,-1
 -112 -236 l 1,15,16
 -161 -211 -161 -211 -129 -162 c 1,17,-1
 -98 -119 l 1,18,19
 -65 -82 -65 -82 -30 -102 c 1,20,-1
 197 -242 l 1,21,22
 244 -262 244 -262 265 -186 c 2,23,-1
 363 172 l 1,24,25
 318 96 318 96 262.5 45 c 128,-1,26
 207 -6 207 -6 172 -6 c 2,27,-1
 168 -6 l 2,28,29
 152 -6 152 -6 117 17.5 c 128,-1,30
 82 41 82 41 49.5 81 c 128,-1,31
 17 121 17 121 3.5 166 c 128,-1,32
 -10 211 -10 211 8.5 334 c 128,-1,33
 27 457 27 457 101.5 664.5 c 128,-1,34
 176 872 176 872 257 954 c 128,-1,35
 338 1036 338 1036 461 1036 c 0,0,1
559 885 m 1,36,37
 457 942 457 942 388.5 893 c 128,-1,38
 320 844 320 844 251.5 658.5 c 128,-1,39
 183 473 183 473 163.5 368.5 c 128,-1,40
 144 264 144 264 147 227 c 128,-1,41
 150 190 150 190 183.5 173 c 128,-1,42
 217 156 217 156 296 246 c 128,-1,43
 375 336 375 336 430.5 479.5 c 128,-1,44
 486 623 486 623 553 866 c 1,45,-1
 559 885 l 1,36,37
EndSplineSet
EndChar

StartChar: h
Encoding: 104 104 75
Width: 864
GlyphClass: 2
Flags: W
LayerCount: 2
Fore
SplineSet
74 0 m 2,0,-1
 17 0 l 2,1,2
 3 0 3 0 -4.5 16.5 c 128,-1,3
 -12 33 -12 33 -5 53 c 1,4,-1
 371 1509 l 1,5,6
 384 1554 384 1554 433 1554 c 2,7,-1
 480 1554 l 2,8,9
 537 1554 537 1554 525 1507 c 2,10,-1
 322 711 l 1,11,-1
 246 465 l 1,12,-1
 457 817 l 1,13,14
 525 928 525 928 596.5 984 c 128,-1,15
 668 1040 668 1040 720 1040 c 2,16,-1
 763 1040 l 2,17,18
 795 1040 795 1040 813.5 1029 c 128,-1,19
 832 1018 832 1018 843.5 979 c 128,-1,20
 855 940 855 940 832 864 c 1,21,-1
 603 29 l 1,22,23
 597 0 597 0 570 0 c 2,24,-1
 464 0 l 2,25,26
 433 0 433 0 447 49 c 2,27,-1
 662 752 l 1,28,29
 677 807 677 807 677 824.5 c 128,-1,30
 677 842 677 842 663.5 842 c 128,-1,31
 650 842 650 842 630.5 823.5 c 128,-1,32
 611 805 611 805 578 756 c 0,33,34
 539 700 539 700 485 611 c 128,-1,35
 431 522 431 522 389 456.5 c 128,-1,36
 347 391 347 391 268 270.5 c 128,-1,37
 189 150 189 150 124 29 c 1,38,39
 107 0 107 0 74 0 c 2,0,-1
EndSplineSet
EndChar

StartChar: i
Encoding: 105 105 76
Width: 391
GlyphClass: 2
Flags: W
LayerCount: 2
Fore
SplineSet
350 1352 m 2,0,-1
 369 1352 l 2,1,2
 403 1352 403 1352 432 1321 c 128,-1,3
 461 1290 461 1290 461 1250 c 128,-1,4
 461 1210 461 1210 431 1181.5 c 128,-1,5
 401 1153 401 1153 356 1153 c 2,6,-1
 340 1153 l 2,7,8
 305 1153 305 1153 277.5 1182.5 c 128,-1,9
 250 1212 250 1212 250 1252 c 128,-1,10
 250 1292 250 1292 278.5 1322 c 128,-1,11
 307 1352 307 1352 350 1352 c 2,0,-1
387 997 m 2,12,-1
 139 45 l 2,13,14
 127 0 127 0 78 0 c 2,15,-1
 18 0 l 2,16,17
 -39 0 -39 0 -27 47 c 2,18,-1
 223 999 l 2,19,20
 233 1040 233 1040 280 1040 c 2,21,-1
 348 1040 l 2,22,23
 375 1040 375 1040 384 1031 c 128,-1,24
 393 1022 393 1022 387 997 c 2,12,-1
EndSplineSet
EndChar

StartChar: j
Encoding: 106 106 77
Width: 411
GlyphClass: 2
Flags: W
LayerCount: 2
Fore
SplineSet
304 1040 m 2,0,-1
 367 1040 l 2,1,2
 417 1040 417 1040 406 997 c 2,3,-1
 156 45 l 1,4,5
 107 -137 107 -137 -9.5 -240.5 c 128,-1,6
 -126 -344 -126 -344 -233 -375 c 0,7,8
 -276 -387 -276 -387 -296 -358 c 2,9,-1
 -313 -334 l 1,10,11
 -327 -317 -327 -317 -323 -295.5 c 128,-1,12
 -319 -274 -319 -274 -296 -266 c 0,13,14
 -206 -231 -206 -231 -118 -142 c 128,-1,15
 -30 -53 -30 -53 7 84 c 2,16,-1
 249 999 l 2,17,18
 259 1040 259 1040 304 1040 c 2,0,-1
372 1352 m 2,19,-1
 390 1352 l 2,20,21
 425 1352 425 1352 453.5 1321 c 128,-1,22
 482 1290 482 1290 482 1250 c 128,-1,23
 482 1210 482 1210 452.5 1181.5 c 128,-1,24
 423 1153 423 1153 378 1153 c 2,25,-1
 361 1153 l 2,26,27
 326 1153 326 1153 298.5 1182.5 c 128,-1,28
 271 1212 271 1212 271 1252 c 128,-1,29
 271 1292 271 1292 299.5 1322 c 128,-1,30
 328 1352 328 1352 372 1352 c 2,19,-1
EndSplineSet
EndChar

StartChar: k
Encoding: 107 107 78
Width: 745
GlyphClass: 2
Flags: W
LayerCount: 2
Fore
SplineSet
513 1507 m 2,0,-1
 289 629 l 1,1,-1
 599 1018 l 1,2,3
 615 1040 615 1040 654 1040 c 2,4,-1
 730 1040 l 2,5,6
 762 1040 762 1040 764 1017.5 c 128,-1,7
 766 995 766 995 742 969 c 1,8,-1
 390 555 l 1,9,-1
 549 55 l 1,10,11
 568 0 568 0 506 0 c 2,12,-1
 451 0 l 2,13,14
 420 0 420 0 409 8 c 128,-1,15
 398 16 398 16 390 45 c 2,16,-1
 257 502 l 1,17,-1
 140 45 l 2,18,19
 128 0 128 0 78 0 c 2,20,-1
 44 0 l 2,21,22
 -32 0 -32 0 -16 66 c 1,23,-1
 359 1509 l 2,24,25
 371 1554 371 1554 420 1554 c 2,26,-1
 467 1554 l 2,27,28
 525 1554 525 1554 513 1507 c 2,0,-1
EndSplineSet
EndChar

StartChar: l
Encoding: 108 108 79
Width: 378
GlyphClass: 2
Flags: W
LayerCount: 2
Fore
SplineSet
513 1507 m 2,0,-1
 140 45 l 2,1,2
 128 0 128 0 78 0 c 2,3,-1
 44 0 l 2,4,5
 -32 0 -32 0 -16 66 c 1,6,-1
 359 1509 l 2,7,8
 371 1554 371 1554 420 1554 c 2,9,-1
 467 1554 l 2,10,11
 525 1554 525 1554 513 1507 c 2,0,-1
EndSplineSet
EndChar

StartChar: m
Encoding: 109 109 80
Width: 1333
GlyphClass: 2
Flags: W
LayerCount: 2
Fore
SplineSet
242 987 m 2,0,1
 252 1026 252 1026 260.5 1033 c 128,-1,2
 269 1040 269 1040 283 1040 c 2,3,-1
 367 1040 l 2,4,5
 418 1040 418 1040 400 981 c 2,6,-1
 246 465 l 1,7,-1
 459 817 l 2,8,9
 521 920 521 920 596.5 980 c 128,-1,10
 672 1040 672 1040 721 1040 c 2,11,-1
 764 1040 l 2,12,13
 797 1040 797 1040 815.5 1029 c 128,-1,14
 834 1018 834 1018 845.5 979 c 128,-1,15
 857 940 857 940 834 864 c 1,16,-1
 730 481 l 1,17,-1
 926 819 l 2,18,19
 990 930 990 930 1063.5 985 c 128,-1,20
 1137 1040 1137 1040 1188 1040 c 2,21,-1
 1231 1040 l 2,22,23
 1264 1040 1264 1040 1282.5 1029 c 128,-1,24
 1301 1018 1301 1018 1312 979 c 128,-1,25
 1323 940 1323 940 1301 864 c 1,26,-1
 1072 29 l 2,27,28
 1065 0 1065 0 1039 0 c 2,29,-1
 932 0 l 2,30,31
 902 0 902 0 916 49 c 2,32,-1
 1131 752 l 2,33,34
 1147 807 1147 807 1147 824.5 c 128,-1,35
 1147 842 1147 842 1133 842 c 128,-1,36
 1119 842 1119 842 1099.5 823.5 c 128,-1,37
 1080 805 1080 805 1047 756 c 0,38,39
 1008 700 1008 700 962 625.5 c 128,-1,40
 916 551 916 551 841 434 c 128,-1,41
 766 317 766 317 742 276 c 1,42,43
 650 127 650 127 605 29 c 0,44,45
 592 0 592 0 570 0 c 2,46,-1
 465 0 l 2,47,48
 435 0 435 0 449 49 c 2,49,-1
 664 752 l 2,50,51
 680 807 680 807 680 824.5 c 128,-1,52
 680 842 680 842 666 842 c 128,-1,53
 652 842 652 842 632.5 823.5 c 128,-1,54
 613 805 613 805 580 756 c 0,55,56
 541 700 541 700 486 611 c 128,-1,57
 431 522 431 522 347 391 c 1,58,59
 189 150 189 150 123 29 c 0,60,61
 107 0 107 0 74 0 c 2,62,-1
 17 0 l 2,63,64
 5 0 5 0 -3.5 16.5 c 128,-1,65
 -12 33 -12 33 -6 53 c 2,66,-1
 242 987 l 2,0,1
EndSplineSet
EndChar

StartChar: n
Encoding: 110 110 81
Width: 866
GlyphClass: 2
Flags: W
LayerCount: 2
Fore
SplineSet
246 465 m 1,0,-1
 459 817 l 2,1,2
 527 928 527 928 598.5 984 c 128,-1,3
 670 1040 670 1040 721 1040 c 2,4,-1
 764 1040 l 2,5,6
 797 1040 797 1040 815.5 1029 c 128,-1,7
 834 1018 834 1018 845.5 979 c 128,-1,8
 857 940 857 940 834 864 c 1,9,-1
 605 29 l 1,10,11
 599 0 599 0 572 0 c 2,12,-1
 465 0 l 2,13,14
 435 0 435 0 449 49 c 2,15,-1
 664 752 l 2,16,17
 680 807 680 807 680 824.5 c 128,-1,18
 680 842 680 842 666 842 c 128,-1,19
 652 842 652 842 632.5 823.5 c 128,-1,20
 613 805 613 805 580 756 c 0,21,22
 541 700 541 700 486 611 c 128,-1,23
 431 522 431 522 347 391 c 1,24,25
 189 150 189 150 123 29 c 0,26,27
 107 0 107 0 74 0 c 2,28,-1
 17 0 l 2,29,30
 5 0 5 0 -3.5 16.5 c 128,-1,31
 -12 33 -12 33 -6 53 c 2,32,-1
 242 987 l 1,33,34
 252 1040 252 1040 283 1040 c 2,35,-1
 367 1040 l 2,36,37
 416 1040 416 1040 400 981 c 1,38,-1
 246 465 l 1,0,-1
EndSplineSet
EndChar

StartChar: o
Encoding: 111 111 82
Width: 686
GlyphClass: 2
Flags: W
LayerCount: 2
Fore
SplineSet
6 297 m 0,0,1
 15 571 15 571 143 816 c 128,-1,2
 271 1061 271 1061 469 1057 c 1,3,4
 572 1051 572 1051 629 954 c 1,5,6
 672 887 672 887 664 727 c 1,7,8
 656 424 656 424 498 166 c 1,9,10
 389 -23 389 -23 205 -16 c 0,11,12
 140 -14 140 -14 84 41 c 1,13,14
 0 121 0 121 6 297 c 0,0,1
355 215 m 1,15,16
 494 434 494 434 502 705 c 1,17,18
 504 825 504 825 489.5 866 c 128,-1,19
 475 907 475 907 429 908 c 128,-1,20
 383 909 383 909 345 865 c 128,-1,21
 307 821 307 821 271 743 c 1,22,23
 180 561 180 561 172 317 c 1,24,25
 168 133 168 133 236 127 c 1,26,27
 295 125 295 125 355 215 c 1,15,16
EndSplineSet
EndChar

StartChar: p
Encoding: 112 112 83
Width: 745
GlyphClass: 2
Flags: W
LayerCount: 2
Fore
SplineSet
165 143 m 1,0,1
 265 86 265 86 335.5 134 c 128,-1,2
 406 182 406 182 473.5 368.5 c 128,-1,3
 541 555 541 555 560.5 659.5 c 128,-1,4
 580 764 580 764 577 801 c 128,-1,5
 574 838 574 838 540.5 856 c 128,-1,6
 507 874 507 874 428 783 c 128,-1,7
 349 692 349 692 293.5 549 c 128,-1,8
 238 406 238 406 171 162 c 1,9,-1
 165 143 l 1,0,1
382 995 m 2,10,-1
 335 813 l 1,11,-1
 363 860 l 2,12,13
 406 932 406 932 461.5 983 c 128,-1,14
 517 1034 517 1034 552 1034 c 2,15,-1
 556 1034 l 2,16,17
 572 1034 572 1034 607 1010.5 c 128,-1,18
 642 987 642 987 673.5 947 c 128,-1,19
 705 907 705 907 718.5 865 c 128,-1,20
 732 823 732 823 716.5 695 c 128,-1,21
 701 567 701 567 619 351 c 128,-1,22
 537 135 537 135 459.5 63.5 c 128,-1,23
 382 -8 382 -8 263 -8 c 0,24,25
 195 -8 195 -8 134 29 c 1,26,-1
 34 -365 l 1,27,28
 21 -410 21 -410 -28 -410 c 2,29,-1
 -65 -410 l 2,30,31
 -98 -410 -98 -410 -111 -391.5 c 128,-1,32
 -124 -373 -124 -373 -118 -344 c 1,33,-1
 226 997 l 2,34,35
 238 1040 238 1040 281 1040 c 2,36,-1
 341 1040 l 2,37,38
 394 1040 394 1040 382 995 c 2,10,-1
EndSplineSet
EndChar

StartChar: q
Encoding: 113 113 84
Width: 743
GlyphClass: 2
Flags: W
LayerCount: 2
Fore
SplineSet
566 885 m 1,0,1
 466 942 466 942 395 894 c 128,-1,2
 324 846 324 846 256.5 659.5 c 128,-1,3
 189 473 189 473 169.5 368.5 c 128,-1,4
 150 264 150 264 153.5 227 c 128,-1,5
 157 190 157 190 190.5 172 c 128,-1,6
 224 154 224 154 303 245 c 128,-1,7
 382 336 382 336 437 479.5 c 128,-1,8
 492 623 492 623 560 866 c 1,9,-1
 566 885 l 1,0,1
597 999 m 1,10,11
 607 1040 607 1040 652 1040 c 2,12,-1
 712 1040 l 2,13,14
 763 1040 763 1040 750 993 c 2,15,-1
 402 -365 l 2,16,17
 390 -410 390 -410 341 -410 c 2,18,-1
 304 -410 l 2,19,20
 271 -410 271 -410 258 -391.5 c 128,-1,21
 245 -373 245 -373 251 -344 c 1,22,-1
 394 213 l 1,23,-1
 367 168 l 2,24,25
 324 96 324 96 269 45 c 128,-1,26
 214 -6 214 -6 179 -6 c 2,27,-1
 175 -6 l 2,28,29
 159 -6 159 -6 124 17.5 c 128,-1,30
 89 41 89 41 57 81 c 128,-1,31
 25 121 25 121 12 163 c 128,-1,32
 -1 205 -1 205 14.5 333 c 128,-1,33
 30 461 30 461 111.5 677 c 128,-1,34
 193 893 193 893 271 964.5 c 128,-1,35
 349 1036 349 1036 468 1036 c 0,36,37
 535 1036 535 1036 597 999 c 1,10,11
EndSplineSet
EndChar

StartChar: r
Encoding: 114 114 85
Width: 577
GlyphClass: 2
Flags: W
LayerCount: 2
Fore
SplineSet
343 766 m 1,0,1
 408 872 408 872 463.5 942 c 128,-1,2
 519 1012 519 1012 544.5 1029.5 c 128,-1,3
 570 1047 570 1047 634 1047 c 2,4,-1
 654 1047 l 2,5,6
 714 1047 714 1047 695 1001 c 0,7,8
 685 977 685 977 645 941 c 128,-1,9
 605 905 605 905 536.5 818 c 128,-1,10
 468 731 468 731 468 705 c 0,11,12
 468 651 468 651 519 604 c 0,13,14
 531 594 531 594 526 582.5 c 128,-1,15
 521 571 521 571 505 567 c 1,16,-1
 427 553 l 2,17,18
 394 547 394 547 376.5 560 c 128,-1,19
 359 573 359 573 316 653 c 1,20,-1
 159 45 l 1,21,22
 146 0 146 0 97 0 c 2,23,-1
 38 0 l 2,24,25
 -20 0 -20 0 -7 47 c 2,26,-1
 243 999 l 2,27,28
 253 1040 253 1040 300 1040 c 2,29,-1
 363 1040 l 2,30,31
 390 1040 390 1040 399 1031 c 128,-1,32
 408 1022 408 1022 402 997 c 2,33,-1
 343 766 l 1,0,1
EndSplineSet
Substitution2: "'titl' Titling lookup 0 subtable" r.alt3
EndChar

StartChar: s
Encoding: 115 115 86
Width: 655
GlyphClass: 2
Flags: W
LayerCount: 2
Fore
SplineSet
404 1053 m 2,0,-1
 435 1053 l 2,1,2
 505 1053 505 1053 564 999.5 c 128,-1,3
 623 946 623 946 660 868 c 0,4,5
 681 825 681 825 646 803 c 1,6,-1
 584 768 l 1,7,8
 541 737 541 737 523 778 c 0,9,10
 521 782 521 782 506.5 816 c 128,-1,11
 492 850 492 850 483 864.5 c 128,-1,12
 474 879 474 879 451.5 897 c 128,-1,13
 429 915 429 915 400 920 c 1,14,15
 349 909 349 909 304 852 c 128,-1,16
 259 795 259 795 259 690 c 0,17,18
 259 645 259 645 280.5 627.5 c 128,-1,19
 302 610 302 610 357 598 c 2,20,-1
 414 586 l 2,21,22
 539 559 539 559 539 379 c 0,23,24
 539 272 539 272 459 133 c 0,25,26
 421 68 421 68 355 22.5 c 128,-1,27
 289 -23 289 -23 212 -23 c 2,28,-1
 197 -23 l 2,29,30
 119 -23 119 -23 58 31.5 c 128,-1,31
 -3 86 -3 86 -28 142.5 c 128,-1,32
 -53 199 -53 199 -28 227 c 1,33,-1
 17 264 l 1,34,35
 38 285 38 285 62.5 283 c 128,-1,36
 87 281 87 281 96 247 c 128,-1,37
 105 213 105 213 146 165 c 128,-1,38
 187 117 187 117 222 115 c 1,39,40
 283 125 283 125 328 187.5 c 128,-1,41
 373 250 373 250 373 331 c 128,-1,42
 373 412 373 412 358 434.5 c 128,-1,43
 343 457 343 457 289 469 c 2,44,-1
 244 479 l 1,45,46
 165 498 165 498 132 545 c 128,-1,47
 99 592 99 592 99 672 c 0,48,49
 99 805 99 805 194 929 c 128,-1,50
 289 1053 289 1053 404 1053 c 2,0,-1
EndSplineSet
EndChar

StartChar: t
Encoding: 116 116 87
Width: 475
GlyphClass: 2
Flags: W
LayerCount: 2
Fore
SplineSet
508 1356 m 2,0,-1
 428 1040 l 1,1,-1
 534 1040 l 2,2,3
 579 1040 579 1040 565 995 c 1,4,-1
 551 942 l 1,5,6
 536 897 536 897 497 897 c 2,7,-1
 391 897 l 1,8,-1
 174 45 l 2,9,10
 162 0 162 0 112 0 c 2,11,-1
 74 0 l 2,12,13
 41 0 41 0 27.5 18.5 c 128,-1,14
 14 37 14 37 20 66 c 1,15,-1
 233 897 l 1,16,-1
 151 897 l 2,17,18
 110 897 110 897 125 946 c 2,19,-1
 141 1001 l 2,20,21
 153 1040 153 1040 186 1040 c 2,22,-1
 268 1040 l 1,23,-1
 350 1358 l 2,24,25
 362 1403 362 1403 411 1403 c 2,26,-1
 463 1403 l 2,27,28
 520 1403 520 1403 508 1356 c 2,0,-1
EndSplineSet
EndChar

StartChar: u
Encoding: 117 117 88
Width: 827
GlyphClass: 2
Flags: W
LayerCount: 2
Fore
SplineSet
570 537 m 1,0,-1
 383 223 l 1,1,2
 318 111 318 111 250.5 55.5 c 128,-1,3
 183 0 183 0 132 0 c 2,4,-1
 119 0 l 2,5,6
 56 0 56 0 20 69.5 c 128,-1,7
 -16 139 -16 139 15 250 c 2,8,-1
 224 1012 l 1,9,10
 230 1040 230 1040 256 1040 c 2,11,-1
 363 1040 l 2,12,13
 394 1040 394 1040 379 991 c 2,14,-1
 172 281 l 1,15,16
 158 217 158 217 168 199 c 1,17,18
 191 166 191 166 271 287 c 128,-1,19
 351 408 351 408 684 1012 c 1,20,21
 701 1040 701 1040 734 1040 c 2,22,-1
 811 1040 l 2,23,24
 824 1040 824 1040 832 1024 c 128,-1,25
 840 1008 840 1008 834 987 c 2,26,-1
 586 53 l 1,27,28
 576 0 576 0 545 0 c 2,29,-1
 461 0 l 2,30,31
 412 0 412 0 428 59 c 1,32,-1
 570 537 l 1,0,-1
EndSplineSet
Substitution2: "'titl' Titling lookup 0 subtable" u.alt2
EndChar

StartChar: v
Encoding: 118 118 89
Width: 743
GlyphClass: 2
Flags: W
LayerCount: 2
Fore
SplineSet
298 193 m 1,0,1
 485 502 485 502 614 1010 c 0,2,3
 624 1053 624 1053 671 1049 c 2,4,-1
 728 1044 l 1,5,6
 784 1034 784 1034 771 993 c 0,7,8
 610 444 610 444 399 117 c 1,9,10
 321 -2 321 -2 265 0 c 1,11,-1
 208 4 l 2,12,13
 145 8 145 8 151 104 c 0,14,15
 175 485 175 485 145 965 c 0,16,17
 141 1040 141 1040 194 1040 c 2,18,-1
 251 1040 l 2,19,20
 298 1040 298 1040 300 993 c 0,21,22
 327 502 327 502 298 193 c 1,0,1
EndSplineSet
EndChar

StartChar: w
Encoding: 119 119 90
Width: 1206
GlyphClass: 2
Flags: W
LayerCount: 2
Fore
SplineSet
290 190 m 1,0,1
 403 371 403 371 499 631 c 128,-1,2
 595 891 595 891 602 1001 c 1,3,4
 606 1040 606 1040 651 1040 c 2,5,-1
 716 1040 l 2,6,7
 755 1040 755 1040 761 993 c 1,8,9
 792 547 792 547 761 193 c 1,10,11
 948 500 948 500 1077 1010 c 0,12,13
 1087 1053 1087 1053 1134 1049 c 2,14,-1
 1191 1044 l 2,15,16
 1214 1042 1214 1042 1227 1028 c 128,-1,17
 1240 1014 1240 1014 1234 993 c 0,18,19
 1073 444 1073 444 862 117 c 0,20,21
 786 -2 786 -2 733 0 c 1,22,-1
 671 4 l 2,23,24
 608 8 608 8 614 104 c 1,25,26
 626 354 626 354 622 573 c 1,27,28
 546 373 546 373 391 117 c 0,29,30
 319 -2 319 -2 266 0 c 1,31,-1
 202 4 l 2,32,33
 139 8 139 8 145 104 c 0,34,35
 171 586 171 586 153 995 c 1,36,37
 149 1040 149 1040 202 1040 c 2,38,-1
 264 1040 l 2,39,40
 309 1040 309 1040 311 993 c 0,41,42
 325 575 325 575 290 190 c 1,0,1
EndSplineSet
EndChar

StartChar: x
Encoding: 120 120 91
Width: 724
GlyphClass: 2
Flags: W
LayerCount: 2
Fore
SplineSet
-92 51 m 0,0,1
 156 352 156 352 279 522 c 1,2,3
 228 737 228 737 160 965 c 1,4,5
 134 1040 134 1040 193 1040 c 2,6,-1
 250 1040 l 2,7,8
 295 1040 295 1040 310 993 c 1,9,10
 365 803 365 803 402 649 c 1,11,12
 492 780 492 780 629 1014 c 1,13,14
 643 1040 643 1040 684 1040 c 2,15,-1
 754 1040 l 2,16,17
 809 1040 809 1040 764 967 c 1,18,19
 654 776 654 776 441 485 c 1,20,21
 488 276 488 276 525 43 c 0,22,23
 531 2 531 2 492 0 c 1,24,-1
 430 -6 l 1,25,26
 402 -10 402 -10 391.5 2 c 128,-1,27
 381 14 381 14 371 57 c 1,28,29
 351 197 351 197 318 348 c 1,30,31
 177 168 177 168 131.5 113.5 c 128,-1,32
 86 59 86 59 78 49 c 128,-1,33
 70 39 70 39 68 36 c 128,-1,34
 66 33 66 33 59 24.5 c 128,-1,35
 52 16 52 16 46.5 14 c 128,-1,36
 41 12 41 12 33 8 c 1,37,38
 21 0 21 0 0 0 c 2,39,-1
 -59 0 l 2,40,41
 -88 0 -88 0 -97 17.5 c 128,-1,42
 -106 35 -106 35 -92 51 c 0,0,1
EndSplineSet
EndChar

StartChar: y
Encoding: 121 121 92
Width: 831
GlyphClass: 2
Flags: W
LayerCount: 2
Fore
SplineSet
737 1040 m 2,0,-1
 815 1040 l 2,1,2
 828 1040 828 1040 836 1024 c 128,-1,3
 844 1008 844 1008 838 987 c 2,4,-1
 537 -102 l 1,5,6
 488 -291 488 -291 375 -352 c 0,7,8
 326 -379 326 -379 309 -385 c 1,9,10
 268 -403 268 -403 189 -354 c 1,11,-1
 -20 -236 l 1,12,13
 -47 -223 -47 -223 -49 -199.5 c 128,-1,14
 -51 -176 -51 -176 -37 -162 c 1,15,-1
 -6 -119 l 1,16,17
 27 -84 27 -84 62 -102 c 1,18,-1
 289 -242 l 1,19,20
 334 -266 334 -266 357 -186 c 2,21,-1
 555 516 l 1,22,-1
 508 426 l 1,23,-1
 387 223 l 1,24,25
 322 111 322 111 254.5 55.5 c 128,-1,26
 187 0 187 0 135 0 c 2,27,-1
 123 0 l 2,28,29
 80 0 80 0 51 31 c 0,30,31
 -20 109 -20 109 19 250 c 2,32,-1
 228 1012 l 2,33,34
 236 1040 236 1040 260 1040 c 2,35,-1
 367 1040 l 2,36,37
 398 1040 398 1040 383 991 c 2,38,-1
 176 281 l 1,39,40
 160 217 160 217 172 201 c 1,41,42
 195 166 195 166 276 287 c 128,-1,43
 357 408 357 408 688 1012 c 1,44,45
 705 1040 705 1040 737 1040 c 2,0,-1
EndSplineSet
Substitution2: "'titl' Titling lookup 0 subtable" y.alt1
EndChar

StartChar: z
Encoding: 122 122 93
Width: 749
GlyphClass: 2
Flags: W
LayerCount: 2
Fore
SplineSet
131 131 m 1,0,-1
 426 131 l 1,1,-1
 459 262 l 2,2,3
 469 303 469 303 522 307 c 2,4,-1
 565 311 l 2,5,6
 592 313 592 313 604.5 300 c 128,-1,7
 617 287 617 287 611 262 c 2,8,-1
 553 45 l 2,9,10
 541 0 541 0 492 0 c 2,11,-1
 6 0 l 2,12,13
 -55 0 -55 0 -68.5 46 c 128,-1,14
 -82 92 -82 92 -45 129 c 1,15,-1
 596 909 l 1,16,-1
 309 909 l 1,17,-1
 277 778 l 2,18,19
 266 737 266 737 213 733 c 2,20,-1
 168 729 l 2,21,22
 142 727 142 727 129.5 740.5 c 128,-1,23
 117 754 117 754 123 778 c 2,24,-1
 182 999 l 1,25,26
 195 1040 195 1040 242 1040 c 2,27,-1
 703 1040 l 2,28,29
 756 1040 756 1040 780.5 993 c 128,-1,30
 805 946 805 946 752 877 c 1,31,-1
 131 131 l 1,0,-1
EndSplineSet
EndChar

StartChar: braceleft
Encoding: 123 123 94
Width: 569
GlyphClass: 2
Flags: W
LayerCount: 2
Fore
SplineSet
323 -332 m 1,0,-1
 233 -336 l 1,1,2
 130 -338 130 -338 64.5 -275.5 c 128,-1,3
 -1 -213 -1 -213 -13 -115 c 1,4,5
 -30 -8 -30 -8 57.5 150.5 c 128,-1,6
 145 309 145 309 183 393 c 1,7,8
 265 580 265 580 108 641 c 2,9,-1
 61 659 l 1,10,11
 11 680 11 680 26 739 c 1,12,-1
 40 799 l 2,13,14
 50 840 50 840 112 852 c 2,15,-1
 194 868 l 1,16,17
 290 889 290 889 328 935 c 128,-1,18
 366 981 366 981 364 1059 c 128,-1,19
 362 1137 362 1137 351 1253 c 1,20,21
 323 1483 323 1483 391.5 1626 c 128,-1,22
 460 1769 460 1769 698 1774 c 1,23,-1
 841 1774 l 2,24,25
 902 1774 902 1774 888 1708 c 2,26,-1
 880 1669 l 2,27,28
 876 1647 876 1647 855.5 1631.5 c 128,-1,29
 835 1616 835 1616 812 1616 c 2,30,-1
 671 1616 l 2,31,32
 548 1616 548 1616 516.5 1541 c 128,-1,33
 485 1466 485 1466 497 1264 c 1,34,35
 511 1120 511 1120 513 1027 c 128,-1,36
 515 934 515 934 459 862.5 c 128,-1,37
 403 791 403 791 235 739 c 1,38,39
 313 702 313 702 345.5 627.5 c 128,-1,40
 378 553 378 553 364.5 483.5 c 128,-1,41
 351 414 351 414 317.5 341 c 128,-1,42
 284 268 284 268 238 181 c 128,-1,43
 192 94 192 94 162 22.5 c 128,-1,44
 132 -49 132 -49 151.5 -111.5 c 128,-1,45
 171 -174 171 -174 251 -174 c 2,46,-1
 366 -174 l 2,47,48
 427 -174 427 -174 413 -236 c 2,49,-1
 405 -274 l 2,50,51
 401 -297 401 -297 379.5 -314.5 c 128,-1,52
 358 -332 358 -332 335 -332 c 2,53,-1
 323 -332 l 1,0,-1
EndSplineSet
EndChar

StartChar: bar
Encoding: 124 124 95
Width: 362
GlyphClass: 2
Flags: W
LayerCount: 2
Fore
SplineSet
482 1507 m 2,0,-1
 3 -365 l 2,1,2
 -9 -410 -9 -410 -59 -410 c 2,3,-1
 -85 -410 l 2,4,5
 -118 -410 -118 -410 -131.5 -391.5 c 128,-1,6
 -145 -373 -145 -373 -138 -344 c 2,7,-1
 337 1509 l 2,8,9
 349 1554 349 1554 398 1554 c 2,10,-1
 437 1554 l 2,11,12
 494 1554 494 1554 482 1507 c 2,0,-1
EndSplineSet
EndChar

StartChar: braceright
Encoding: 125 125 96
Width: 657
GlyphClass: 2
Flags: W
LayerCount: 2
Fore
SplineSet
336 1769 m 1,0,-1
 426 1774 l 1,1,2
 529 1776 529 1776 594.5 1713.5 c 128,-1,3
 660 1651 660 1651 674.5 1539 c 128,-1,4
 689 1427 689 1427 564 1214 c 0,5,6
 514 1128 514 1128 478 1047 c 0,7,8
 392 858 392 858 551 797 c 1,9,-1
 598 778 l 2,10,11
 648 758 648 758 633 698 c 2,12,-1
 619 639 l 2,13,14
 609 598 609 598 547 586 c 1,15,16
 371 557 371 557 332 507 c 128,-1,17
 293 457 293 457 295 379 c 128,-1,18
 297 301 297 301 308 184 c 1,19,20
 336 -45 336 -45 269 -188 c 1,21,22
 199 -332 199 -332 -39 -336 c 1,23,-1
 -182 -336 l 2,24,25
 -243 -336 -243 -336 -229 -270 c 2,26,-1
 -221 -231 l 2,27,28
 -217 -209 -217 -209 -196.5 -193.5 c 128,-1,29
 -176 -178 -176 -178 -153 -178 c 2,30,-1
 -12 -178 l 2,31,32
 111 -178 111 -178 144 -102.5 c 128,-1,33
 177 -27 177 -27 163.5 146 c 128,-1,34
 150 319 150 319 148 373 c 0,35,36
 144 504 144 504 191 563 c 1,37,38
 250 641 250 641 375 682 c 1,39,40
 410 692 410 692 424 698 c 1,41,42
 346 735 346 735 312.5 810 c 128,-1,43
 279 885 279 885 294.5 954.5 c 128,-1,44
 310 1024 310 1024 342.5 1096.5 c 128,-1,45
 375 1169 375 1169 422 1256 c 128,-1,46
 469 1343 469 1343 497 1414 c 128,-1,47
 525 1485 525 1485 508.5 1548.5 c 128,-1,48
 492 1612 492 1612 408 1612 c 2,49,-1
 293 1612 l 2,50,51
 232 1612 232 1612 246 1673 c 1,52,-1
 254 1712 l 2,53,54
 258 1735 258 1735 278.5 1753.5 c 128,-1,55
 299 1772 299 1772 336 1769 c 1,0,-1
EndSplineSet
EndChar

StartChar: asciitilde
Encoding: 126 126 97
Width: 886
GlyphClass: 2
Flags: W
LayerCount: 2
Fore
SplineSet
110 793 m 1,0,-1
 123 827 l 1,1,2
 129 856 129 856 156 868 c 1,3,4
 211 899 211 899 304 903 c 128,-1,5
 397 907 397 907 509.5 864 c 128,-1,6
 622 821 622 821 795 877 c 0,7,8
 821 885 821 885 835.5 866.5 c 128,-1,9
 850 848 850 848 842 817 c 2,10,-1
 831 776 l 1,11,12
 825 741 825 741 770 719 c 0,13,14
 625 662 625 662 472 725 c 128,-1,15
 319 788 319 788 149 723 c 0,16,17
 121 713 121 713 110.5 732.5 c 128,-1,18
 100 752 100 752 110 793 c 1,0,-1
EndSplineSet
EndChar

StartChar: exclamdown
Encoding: 161 161 99
Width: 540
GlyphClass: 2
Flags: W
LayerCount: 2
Fore
SplineSet
537 1507 m 2,0,-1
 560 1507 l 2,1,2
 601 1507 601 1507 633.5 1472.5 c 128,-1,3
 666 1438 666 1438 666 1394 c 128,-1,4
 666 1350 666 1350 631 1319 c 128,-1,5
 596 1288 596 1288 545 1288 c 2,6,-1
 527 1288 l 2,7,8
 484 1288 484 1288 452 1320 c 128,-1,9
 420 1352 420 1352 420 1398 c 128,-1,10
 420 1444 420 1444 453 1475.5 c 128,-1,11
 486 1507 486 1507 537 1507 c 2,0,-1
525 1114 m 2,12,-1
 279 23 l 1,13,14
 271 -23 271 -23 218 -23 c 2,15,-1
 97 -23 l 2,16,17
 37 -23 37 -23 52 25 c 1,18,-1
 420 1116 l 2,19,20
 435 1161 435 1161 476 1161 c 2,21,-1
 488 1161 l 2,22,23
 535 1161 535 1161 525 1114 c 2,12,-1
EndSplineSet
EndChar

StartChar: cent
Encoding: 162 162 100
Width: 675
GlyphClass: 2
Flags: W
LayerCount: 2
Fore
SplineSet
159 -195 m 2,0,1
 93 -195 93 -195 107 -131 c 1,2,-1
 159 53 l 1,3,4
 73 90 73 90 28.5 206 c 128,-1,5
 -16 322 -16 322 18 508 c 128,-1,6
 52 694 52 694 165.5 854 c 128,-1,7
 279 1014 279 1014 410 1044 c 1,8,-1
 470 1268 l 2,9,10
 482 1311 482 1311 529 1311 c 2,11,-1
 574 1311 l 2,12,13
 630 1311 630 1311 617 1266 c 1,14,-1
 558 1040 l 1,15,16
 650 1008 650 1008 668.5 886 c 128,-1,17
 687 764 687 764 632 612 c 0,18,19
 621 584 621 584 574 592 c 1,20,-1
 525 604 l 1,21,22
 470 614 470 614 488 664 c 1,23,24
 531 809 531 809 526 882.5 c 128,-1,25
 521 956 521 956 474 956 c 128,-1,26
 427 956 427 956 338 848.5 c 128,-1,27
 249 741 249 741 196.5 567 c 128,-1,28
 144 393 144 393 162.5 273.5 c 128,-1,29
 181 154 181 154 235.5 154 c 128,-1,30
 290 154 290 154 346 225.5 c 128,-1,31
 402 297 402 297 441 387 c 1,32,33
 456 414 456 414 484 406 c 1,34,-1
 552 377 l 2,35,36
 599 356 599 356 576 307 c 0,37,38
 470 80 470 80 306 47 c 1,39,-1
 253 -152 l 1,40,41
 240 -195 240 -195 193 -195 c 2,42,-1
 159 -195 l 2,0,1
EndSplineSet
EndChar

StartChar: sterling
Encoding: 163 163 101
Width: 933
GlyphClass: 2
Flags: W
LayerCount: 2
Fore
SplineSet
-154 53 m 1,0,-1
 -138 104 l 1,1,2
 -134 129 -134 129 -120 139 c 0,3,4
 -58 180 -58 180 63.5 318.5 c 128,-1,5
 185 457 185 457 229 590 c 1,6,-1
 128 590 l 2,7,8
 83 590 83 590 95 647 c 1,9,-1
 106 690 l 1,10,11
 112 733 112 733 136 731 c 1,12,-1
 243 731 l 1,13,14
 220 981 220 981 274.5 1142 c 128,-1,15
 329 1303 329 1303 429.5 1376.5 c 128,-1,16
 530 1450 530 1450 669 1443 c 128,-1,17
 808 1436 808 1436 879.5 1320 c 128,-1,18
 951 1204 951 1204 890 983 c 1,19,20
 876 928 876 928 841 920 c 1,21,-1
 773 901 l 2,22,23
 743 893 743 893 732.5 911.5 c 128,-1,24
 722 930 722 930 730 952 c 0,25,26
 853 1292 853 1292 642 1307 c 1,27,28
 507 1307 507 1307 441.5 1162.5 c 128,-1,29
 376 1018 376 1018 392 731 c 1,30,-1
 665 731 l 2,31,32
 712 731 712 731 702 684 c 2,33,-1
 691 631 l 2,34,35
 683 590 683 590 638 590 c 2,36,-1
 388 590 l 1,37,38
 372 489 372 489 304.5 388 c 128,-1,39
 237 287 237 287 165 209 c 1,40,41
 269 217 269 217 415.5 163 c 128,-1,42
 562 109 562 109 728 176 c 1,43,44
 749 182 749 182 762 168 c 128,-1,45
 775 154 775 154 767 125 c 1,46,-1
 755 68 l 1,47,48
 745 31 745 31 682.5 11.5 c 128,-1,49
 620 -8 620 -8 543 -13 c 128,-1,50
 466 -18 466 -18 330 33 c 128,-1,51
 194 84 194 84 48.5 36 c 128,-1,52
 -97 -12 -97 -12 -122.5 -14 c 128,-1,53
 -148 -16 -148 -16 -155.5 0 c 128,-1,54
 -163 16 -163 16 -154 53 c 1,0,-1
EndSplineSet
EndChar

StartChar: currency
Encoding: 164 164 102
Width: 1048
GlyphClass: 2
Flags: W
LayerCount: 2
Fore
SplineSet
233 399 m 0,0,1
 241 623 241 623 371 825 c 1,2,-1
 293 1077 l 1,3,4
 270 1147 270 1147 301 1167 c 1,5,-1
 371 1206 l 1,6,7
 397 1225 397 1225 420.5 1208.5 c 128,-1,8
 444 1192 444 1192 454 1153 c 1,9,-1
 508 971 l 1,10,11
 602 1032 602 1032 684 1031 c 128,-1,12
 766 1030 766 1030 807 1006 c 1,13,-1
 911 1165 l 2,14,15
 944 1214 944 1214 981 1192 c 2,16,-1
 1032 1161 l 1,17,18
 1067 1141 1067 1141 1069 1122.5 c 128,-1,19
 1071 1104 1071 1104 1048 1075 c 2,20,-1
 905 893 l 1,21,22
 921 840 921 840 917 756 c 1,23,24
 909 518 909 518 749 293 c 1,25,-1
 819 78 l 2,26,27
 829 49 829 49 820 33.5 c 128,-1,28
 811 18 811 18 776 0 c 1,29,-1
 741 -20 l 1,30,31
 659 -63 659 -63 639 25 c 1,32,-1
 604 168 l 1,33,34
 530 135 530 135 460.5 136 c 128,-1,35
 391 137 391 137 348 162 c 1,36,-1
 258 14 l 1,37,38
 235 -18 235 -18 216.5 -18 c 128,-1,39
 198 -18 198 -18 188 -10 c 1,40,-1
 127 31 l 1,41,42
 96 49 96 49 91 65.5 c 128,-1,43
 86 82 86 82 108 115 c 2,44,-1
 239 305 l 1,45,46
 231 346 231 346 233 399 c 0,0,1
596 330 m 1,47,48
 741 512 741 512 749 737 c 1,49,50
 751 838 751 838 736 871.5 c 128,-1,51
 721 905 721 905 672.5 906 c 128,-1,52
 624 907 624 907 585.5 870.5 c 128,-1,53
 547 834 547 834 508 770 c 0,54,55
 416 618 416 618 405 416 c 1,56,57
 401 262 401 262 473 258 c 1,58,59
 534 256 534 256 596 330 c 1,47,48
EndSplineSet
EndChar

StartChar: yen
Encoding: 165 165 103
Width: 983
GlyphClass: 2
Flags: W
LayerCount: 2
Fore
SplineSet
70 700 m 2,0,-1
 918 700 l 2,1,2
 965 700 965 700 954 655 c 1,3,-1
 946 614 l 1,4,5
 936 571 936 571 879 571 c 2,6,-1
 59 571 l 2,7,8
 -2 571 -2 571 14 625 c 1,9,-1
 25 659 l 2,10,11
 33 686 33 686 41 693 c 128,-1,12
 49 700 49 700 70 700 c 2,0,-1
14 442 m 2,13,-1
 862 442 l 2,14,15
 909 442 909 442 899 397 c 1,16,-1
 891 356 l 1,17,18
 881 313 881 313 823 313 c 2,19,-1
 4 313 l 2,20,21
 -57 313 -57 313 -41 367 c 2,22,-1
 -31 401 l 1,23,24
 -22 428 -22 428 -14 435 c 128,-1,25
 -6 442 -6 442 14 442 c 2,13,-1
504 768 m 1,26,27
 694 1053 694 1053 773 1189 c 128,-1,28
 852 1325 852 1325 913 1456 c 0,29,30
 928 1487 928 1487 975 1483 c 1,31,-1
 1038 1475 l 2,32,33
 1061 1473 1061 1473 1070 1453.5 c 128,-1,34
 1079 1434 1079 1434 1063 1401 c 1,35,36
 827 989 827 989 533 596 c 1,37,-1
 393 45 l 2,38,39
 381 0 381 0 332 0 c 2,40,-1
 272 0 l 2,41,42
 248 0 248 0 236.5 18.5 c 128,-1,43
 225 37 225 37 231 63 c 2,44,-1
 375 629 l 1,45,46
 375 764 375 764 343 1013 c 128,-1,47
 311 1262 311 1262 279 1391 c 1,48,49
 266 1427 266 1427 279.5 1453 c 128,-1,50
 293 1479 293 1479 324 1481 c 1,51,-1
 381 1489 l 1,52,53
 410 1491 410 1491 422 1482 c 128,-1,54
 434 1473 434 1473 440 1440 c 0,55,56
 504 1059 504 1059 504 768 c 1,26,27
EndSplineSet
EndChar

StartChar: brokenbar
Encoding: 166 166 104
Width: 366
GlyphClass: 2
Flags: W
LayerCount: 2
Fore
SplineSet
208 412 m 2,0,-1
 5 -367 l 2,1,2
 -7 -412 -7 -412 -56 -412 c 2,3,-1
 -95 -412 l 2,4,5
 -153 -412 -153 -412 -140 -365 c 2,6,-1
 62 414 l 1,7,8
 75 459 75 459 124 459 c 2,9,-1
 163 459 l 2,10,11
 220 459 220 459 208 412 c 2,0,-1
486 1513 m 2,12,-1
 284 735 l 1,13,14
 271 690 271 690 222 690 c 2,15,-1
 183 690 l 2,16,17
 126 690 126 690 138 737 c 2,18,-1
 341 1516 l 2,19,20
 353 1561 353 1561 402 1561 c 2,21,-1
 441 1561 l 2,22,23
 499 1561 499 1561 486 1513 c 2,12,-1
EndSplineSet
EndChar

StartChar: section
Encoding: 167 167 105
Width: 854
GlyphClass: 2
Flags: W
LayerCount: 2
Fore
SplineSet
537 365 m 1,0,1
 543 340 543 340 543 311 c 0,2,3
 543 133 543 133 438.5 -19.5 c 128,-1,4
 334 -172 334 -172 168 -172 c 0,5,6
 -31 -172 -31 -172 -31 160 c 0,7,8
 -31 217 -31 217 8 236 c 2,9,-1
 68 266 l 1,10,11
 94 281 94 281 110.5 270.5 c 128,-1,12
 127 260 127 260 129 246.5 c 128,-1,13
 131 233 131 233 127 185 c 128,-1,14
 123 137 123 137 127 91 c 128,-1,15
 131 45 131 45 145.5 7 c 128,-1,16
 160 -31 160 -31 208 -20.5 c 128,-1,17
 256 -10 256 -10 312.5 60.5 c 128,-1,18
 369 131 369 131 378 214 c 128,-1,19
 387 297 387 297 366.5 336 c 128,-1,20
 346 375 346 375 276 412 c 0,21,22
 115 496 115 496 115 610 c 0,23,24
 115 750 115 750 185.5 869.5 c 128,-1,25
 256 989 256 989 348 1036 c 1,26,27
 332 1069 332 1069 332 1106 c 0,28,29
 332 1278 332 1278 435.5 1415 c 128,-1,30
 539 1552 539 1552 650.5 1552 c 128,-1,31
 762 1552 762 1552 834.5 1464 c 128,-1,32
 907 1376 907 1376 895 1198 c 1,33,34
 891 1161 891 1161 856 1147 c 1,35,-1
 784 1126 l 1,36,37
 762 1122 762 1122 750.5 1129.5 c 128,-1,38
 739 1137 739 1137 741 1163 c 0,39,40
 756 1405 756 1405 651 1411 c 1,41,42
 594 1397 594 1397 547 1308 c 128,-1,43
 500 1219 500 1219 498 1167.5 c 128,-1,44
 496 1116 496 1116 525.5 1087.5 c 128,-1,45
 555 1059 555 1059 657.5 997.5 c 128,-1,46
 760 936 760 936 760 806 c 128,-1,47
 760 676 760 676 700.5 550 c 128,-1,48
 641 424 641 424 537 365 c 1,0,1
475 918 m 1,49,50
 389 924 389 924 335 822.5 c 128,-1,51
 281 721 281 721 281 669.5 c 128,-1,52
 281 618 281 618 309.5 590.5 c 128,-1,53
 338 563 338 563 388 533.5 c 128,-1,54
 438 504 438 504 457 489 c 1,55,56
 512 520 512 520 553 588.5 c 128,-1,57
 594 657 594 657 599 754.5 c 128,-1,58
 604 852 604 852 475 918 c 1,49,50
EndSplineSet
EndChar

StartChar: dieresis
Encoding: 168 168 106
Width: 1071
GlyphClass: 2
Flags: W
LayerCount: 2
Fore
SplineSet
397 1434 m 2,0,-1
 416 1434 l 2,1,2
 451 1434 451 1434 479.5 1403 c 128,-1,3
 508 1372 508 1372 508 1332 c 128,-1,4
 508 1292 508 1292 478.5 1263.5 c 128,-1,5
 449 1235 449 1235 403 1235 c 2,6,-1
 387 1235 l 2,7,8
 352 1235 352 1235 324.5 1264.5 c 128,-1,9
 297 1294 297 1294 297 1334 c 128,-1,10
 297 1374 297 1374 325.5 1404 c 128,-1,11
 354 1434 354 1434 397 1434 c 2,0,-1
725 1434 m 2,12,-1
 743 1434 l 2,13,14
 778 1434 778 1434 807 1403 c 128,-1,15
 836 1372 836 1372 836 1332 c 128,-1,16
 836 1292 836 1292 806 1263.5 c 128,-1,17
 776 1235 776 1235 731 1235 c 2,18,-1
 715 1235 l 2,19,20
 680 1235 680 1235 652.5 1264.5 c 128,-1,21
 625 1294 625 1294 625 1334 c 128,-1,22
 625 1374 625 1374 653.5 1404 c 128,-1,23
 682 1434 682 1434 725 1434 c 2,12,-1
EndSplineSet
EndChar

StartChar: copyright
Encoding: 169 169 107
Width: 1593
GlyphClass: 2
Flags: W
LayerCount: 2
Fore
SplineSet
141 868 m 1,0,1
 214 1135 214 1135 423 1315 c 128,-1,2
 632 1495 632 1495 882 1495 c 0,3,4
 1177 1495 1177 1495 1347 1290 c 1,5,6
 1423 1200 1423 1200 1460 1075 c 1,7,8
 1525 838 1525 838 1456 590 c 0,9,10
 1376 301 1376 301 1179 142.5 c 128,-1,11
 982 -16 982 -16 709 -16 c 128,-1,12
 436 -16 436 -16 253 166 c 1,13,14
 143 279 143 279 113 474.5 c 128,-1,15
 83 670 83 670 141 868 c 1,0,1
278 819 m 0,16,17
 200 516 200 516 325 306 c 128,-1,18
 450 96 450 96 722 96 c 0,19,20
 944 96 944 96 1100.5 254 c 128,-1,21
 1257 412 1257 412 1318 655 c 1,22,23
 1357 791 1357 791 1340.5 921 c 128,-1,24
 1324 1051 1324 1051 1274 1154 c 128,-1,25
 1224 1257 1224 1257 1122.5 1320.5 c 128,-1,26
 1021 1384 1021 1384 888 1384 c 0,27,28
 669 1384 669 1384 505 1223.5 c 128,-1,29
 341 1063 341 1063 278 819 c 0,16,17
698 348 m 1,30,31
 749 358 749 358 807.5 440 c 128,-1,32
 866 522 866 522 892 600 c 0,33,34
 901 627 901 627 925 616 c 1,35,-1
 1001 586 l 1,36,37
 1032 571 1032 571 1019 543 c 1,38,39
 962 408 962 408 876 327 c 128,-1,40
 790 246 790 246 702 246 c 128,-1,41
 614 246 614 246 556.5 293 c 128,-1,42
 499 340 499 340 469.5 455.5 c 128,-1,43
 440 571 440 571 486 769 c 128,-1,44
 532 967 532 967 664 1101 c 128,-1,45
 796 1235 796 1235 960 1221 c 1,46,47
 1083 1206 1083 1206 1113.5 1114 c 128,-1,48
 1144 1022 1144 1022 1064 825 c 1,49,50
 1052 799 1052 799 1021 803 c 1,51,-1
 958 815 l 1,52,53
 917 821 917 821 929 858 c 1,54,55
 1025 1106 1025 1106 927 1122 c 0,56,57
 878 1130 878 1130 815.5 1083 c 128,-1,58
 753 1036 753 1036 706 953 c 128,-1,59
 659 870 659 870 623 740 c 128,-1,60
 587 610 587 610 603.5 484 c 128,-1,61
 620 358 620 358 698 348 c 1,30,31
EndSplineSet
EndChar

StartChar: ordfeminine
Encoding: 170 170 108
Width: 604
GlyphClass: 2
Flags: W
LayerCount: 2
Fore
SplineSet
475 932 m 1,0,1
 553 975 553 975 592 1042 c 1,2,3
 604 1065 604 1065 625 1055 c 2,4,-1
 655 1040 l 2,5,6
 680 1028 680 1028 668 1010 c 1,7,8
 574 850 574 850 440 819 c 1,9,10
 404 813 404 813 393 831 c 2,11,-1
 371 870 l 1,12,13
 283 793 283 793 194 832.5 c 128,-1,14
 105 872 105 872 101.5 968.5 c 128,-1,15
 98 1065 98 1065 156.5 1143 c 128,-1,16
 215 1221 215 1221 303 1260.5 c 128,-1,17
 391 1300 391 1300 479 1294 c 1,18,19
 518 1452 518 1452 477 1475 c 1,20,21
 416 1468 416 1468 318 1354 c 1,22,-1
 301 1335 l 2,23,24
 289 1323 289 1323 275 1333 c 1,25,-1
 238 1368 l 1,26,27
 219 1382 219 1382 225 1399 c 1,28,29
 250 1450 250 1450 333 1512.5 c 128,-1,30
 416 1575 416 1575 466 1573 c 128,-1,31
 516 1571 516 1571 560 1544.5 c 128,-1,32
 604 1518 604 1518 614.5 1468.5 c 128,-1,33
 625 1419 625 1419 606 1317 c 1,34,35
 563 1098 563 1098 475 932 c 1,0,1
455 1190 m 1,36,37
 361 1188 361 1188 304.5 1137.5 c 128,-1,38
 248 1087 248 1087 235.5 1017.5 c 128,-1,39
 223 948 223 948 266 933 c 128,-1,40
 309 918 309 918 348 959.5 c 128,-1,41
 387 1001 387 1001 414.5 1074 c 128,-1,42
 442 1147 442 1147 455 1190 c 1,36,37
EndSplineSet
EndChar

StartChar: logicalnot
Encoding: 172 172 110
Width: 1720
GlyphClass: 2
Flags: W
LayerCount: 2
Fore
SplineSet
1267 772 m 1,0,-1
 291 772 l 2,1,2
 231 772 231 772 252 846 c 1,3,-1
 258 866 l 1,4,5
 268 903 268 903 283.5 913.5 c 128,-1,6
 299 924 299 924 334 924 c 2,7,-1
 1386 924 l 2,8,9
 1468 924 1468 924 1444 836 c 2,10,-1
 1337 442 l 2,11,12
 1325 397 1325 397 1276 397 c 2,13,-1
 1224 397 l 2,14,15
 1167 397 1167 397 1179 444 c 2,16,-1
 1267 772 l 1,0,-1
EndSplineSet
EndChar

StartChar: registered
Encoding: 174 174 111
Width: 1593
GlyphClass: 2
Flags: W
LayerCount: 2
Fore
SplineSet
675 1092 m 1,0,1
 653 1087 653 1087 631.5 1083 c 128,-1,2
 610 1079 610 1079 598.5 1091.5 c 128,-1,3
 587 1104 587 1104 591 1120 c 2,4,-1
 608 1180 l 1,5,6
 612 1198 612 1198 647 1208 c 1,7,8
 763 1237 763 1237 879 1218.5 c 128,-1,9
 995 1200 995 1200 1059.5 1139.5 c 128,-1,10
 1124 1079 1124 1079 1124 986 c 128,-1,11
 1124 893 1124 893 1079 817 c 0,12,13
 1013 705 1013 705 909 670 c 1,14,-1
 985 340 l 2,15,16
 997 289 997 289 956 289 c 2,17,-1
 882 289 l 2,18,19
 853 289 853 289 843 328 c 1,20,-1
 780 651 l 1,21,-1
 694 651 l 1,22,-1
 606 322 l 2,23,24
 597 291 597 291 556 291 c 2,25,-1
 503 291 l 2,26,27
 485 291 485 291 475.5 303 c 128,-1,28
 466 315 466 315 470 334 c 1,29,-1
 675 1092 l 1,0,1
720 754 m 1,30,-1
 784 756 l 1,31,32
 868 760 868 760 903 788 c 0,33,34
 978 848 978 848 985 965 c 0,35,36
 989 1036 989 1036 917 1075 c 0,37,38
 876 1098 876 1098 812 1100 c 1,39,-1
 720 754 l 1,30,-1
141 868 m 1,40,41
 214 1135 214 1135 423 1315 c 128,-1,42
 632 1495 632 1495 889 1492 c 128,-1,43
 1146 1489 1146 1489 1291.5 1345.5 c 128,-1,44
 1437 1202 1437 1202 1475 1020 c 128,-1,45
 1513 838 1513 838 1456 590 c 1,46,47
 1376 301 1376 301 1179 142.5 c 128,-1,48
 982 -16 982 -16 709 -16 c 128,-1,49
 436 -16 436 -16 253 166 c 1,50,51
 143 279 143 279 113 474.5 c 128,-1,52
 83 670 83 670 141 868 c 1,40,41
278 819 m 0,53,54
 200 516 200 516 325 306 c 128,-1,55
 450 96 450 96 722 96 c 0,56,57
 944 96 944 96 1099.5 253 c 128,-1,58
 1255 410 1255 410 1318 655 c 1,59,60
 1357 791 1357 791 1340.5 921 c 128,-1,61
 1324 1051 1324 1051 1274 1154 c 128,-1,62
 1224 1257 1224 1257 1122.5 1320.5 c 128,-1,63
 1021 1384 1021 1384 888 1384 c 0,64,65
 669 1384 669 1384 505 1223.5 c 128,-1,66
 341 1063 341 1063 278 819 c 0,53,54
EndSplineSet
EndChar

StartChar: macron
Encoding: 175 175 112
Width: 815
GlyphClass: 2
Flags: W
LayerCount: 2
Fore
SplineSet
151 1718 m 2,0,-1
 870 1718 l 2,1,2
 900 1718 900 1718 883 1660 c 128,-1,3
 866 1602 866 1602 839 1602 c 2,4,-1
 134 1602 l 2,5,6
 102 1602 102 1602 100 1616 c 128,-1,7
 98 1630 98 1630 110 1659 c 1,8,-1
 120 1694 l 1,9,10
 128 1718 128 1718 151 1718 c 2,0,-1
EndSplineSet
EndChar

StartChar: degree
Encoding: 176 176 113
Width: 942
GlyphClass: 2
Flags: W
LayerCount: 2
Fore
SplineSet
827 1413 m 0,0,1
 827 1270 827 1270 724 1182 c 128,-1,2
 621 1094 621 1094 505 1094 c 128,-1,3
 389 1094 389 1094 323.5 1161.5 c 128,-1,4
 258 1229 258 1229 258 1331 c 0,5,6
 258 1470 258 1470 362.5 1559.5 c 128,-1,7
 467 1649 467 1649 582.5 1649 c 128,-1,8
 698 1649 698 1649 762.5 1582.5 c 128,-1,9
 827 1516 827 1516 827 1413 c 0,0,1
426 1489 m 1,10,11
 360 1425 360 1425 360 1351.5 c 128,-1,12
 360 1278 360 1278 403 1234 c 128,-1,13
 446 1190 446 1190 518 1190 c 128,-1,14
 590 1190 590 1190 657.5 1251.5 c 128,-1,15
 725 1313 725 1313 725 1390.5 c 128,-1,16
 725 1468 725 1468 684 1510 c 128,-1,17
 643 1552 643 1552 566 1552 c 128,-1,18
 489 1552 489 1552 426 1489 c 1,10,11
EndSplineSet
EndChar

StartChar: plusminus
Encoding: 177 177 114
Width: 972
GlyphClass: 2
Flags: W
LayerCount: 2
Fore
SplineSet
777 606 m 2,0,-1
 505 606 l 1,1,-1
 447 385 l 2,2,3
 435 342 435 342 388 342 c 2,4,-1
 347 342 l 2,5,6
 292 342 292 342 304 387 c 2,7,-1
 361 606 l 1,8,-1
 111 606 l 2,9,10
 79 606 79 606 85 637 c 1,11,-1
 101 702 l 2,12,13
 109 733 109 733 146 733 c 2,14,-1
 394 733 l 1,15,-1
 445 926 l 2,16,17
 457 969 457 969 505 969 c 2,18,-1
 546 969 l 2,19,20
 601 969 601 969 589 924 c 2,21,-1
 539 733 l 1,22,-1
 804 733 l 2,23,24
 820 733 820 733 829 724 c 128,-1,25
 838 715 838 715 834 700 c 2,26,-1
 820 639 l 1,27,28
 814 606 814 606 777 606 c 2,0,-1
36 184 m 2,29,-1
 679 184 l 2,30,31
 716 184 716 184 709 143 c 2,32,-1
 701 94 l 2,33,34
 695 57 695 57 660 57 c 2,35,-1
 31 57 l 2,36,37
 -3 57 -3 57 3 94 c 2,38,-1
 15 162 l 2,39,40
 19 184 19 184 36 184 c 2,29,-1
EndSplineSet
EndChar

StartChar: twosuperior
Encoding: 178 178 115
Width: 604
GlyphClass: 2
Flags: W
LayerCount: 2
Fore
SplineSet
229 782 m 1,0,-1
 557 782 l 2,1,2
 604 782 604 782 591 739 c 1,3,-1
 579 692 l 2,4,5
 575 678 575 678 558.5 666.5 c 128,-1,6
 542 655 542 655 526 655 c 2,7,-1
 98 655 l 2,8,9
 55 655 55 655 38.5 690 c 128,-1,10
 22 725 22 725 61 772 c 1,11,-1
 462 1194 l 1,12,13
 552 1292 552 1292 549 1371 c 128,-1,14
 546 1450 546 1450 470.5 1455 c 128,-1,15
 395 1460 395 1460 346.5 1412 c 128,-1,16
 298 1364 298 1364 298 1292 c 0,17,18
 298 1280 298 1280 285 1270 c 128,-1,19
 272 1260 272 1260 258 1257 c 2,20,-1
 202 1249 l 1,21,22
 180 1247 180 1247 173.5 1256.5 c 128,-1,23
 167 1266 167 1266 167 1284 c 0,24,25
 167 1403 167 1403 256.5 1485 c 128,-1,26
 346 1567 346 1567 467.5 1567 c 128,-1,27
 589 1567 589 1567 642.5 1495 c 128,-1,28
 696 1423 696 1423 671.5 1313.5 c 128,-1,29
 647 1204 647 1204 546 1104 c 1,30,-1
 229 782 l 1,0,-1
EndSplineSet
EndChar

StartChar: threesuperior
Encoding: 179 179 116
Width: 614
GlyphClass: 2
Flags: W
LayerCount: 2
Fore
SplineSet
516 1122 m 1,0,1
 612 1096 612 1096 612 966 c 128,-1,2
 612 836 612 836 519 737.5 c 128,-1,3
 426 639 426 639 295 637 c 0,4,5
 199 635 199 635 151.5 708.5 c 128,-1,6
 104 782 104 782 104 881 c 0,7,8
 104 922 104 922 131 934 c 2,9,-1
 190 958 l 1,10,11
 221 969 221 969 228.5 960.5 c 128,-1,12
 236 952 236 952 236 926 c 1,13,14
 227 745 227 745 308 744 c 128,-1,15
 389 743 389 743 427 798.5 c 128,-1,16
 465 854 465 854 473 901 c 1,17,18
 504 1055 504 1055 352 1055 c 0,19,20
 332 1055 332 1055 322 1063 c 1,21,22
 307 1071 307 1071 311 1090 c 1,23,-1
 315 1135 l 1,24,25
 322 1169 322 1169 370 1168 c 128,-1,26
 418 1167 418 1167 474 1204 c 128,-1,27
 530 1241 530 1241 545.5 1307.5 c 128,-1,28
 561 1374 561 1374 535.5 1417 c 128,-1,29
 510 1460 510 1460 455.5 1460 c 128,-1,30
 401 1460 401 1460 358 1416 c 128,-1,31
 315 1372 315 1372 313 1316 c 128,-1,32
 311 1260 311 1260 279 1253 c 1,33,-1
 223 1247 l 2,34,35
 201 1245 201 1245 194.5 1255.5 c 128,-1,36
 188 1266 188 1266 188 1288 c 0,37,38
 188 1403 188 1403 272 1487 c 128,-1,39
 356 1571 356 1571 461.5 1569 c 128,-1,40
 567 1567 567 1567 621.5 1507.5 c 128,-1,41
 676 1448 676 1448 678 1369 c 128,-1,42
 680 1290 680 1290 637 1221.5 c 128,-1,43
 594 1153 594 1153 516 1122 c 1,0,1
EndSplineSet
EndChar

StartChar: acute
Encoding: 180 180 117
Width: 573
GlyphClass: 2
Flags: W
LayerCount: 2
Fore
SplineSet
417 1430 m 2,0,1
 440 1430 440 1430 445 1416.5 c 128,-1,2
 450 1403 450 1403 432 1378 c 1,3,-1
 253 1192 l 1,4,5
 231 1167 231 1167 196 1167 c 2,6,-1
 153 1167 l 2,7,8
 137 1167 137 1167 133 1178.5 c 128,-1,9
 129 1190 129 1190 135 1196 c 1,10,-1
 262 1395 l 2,11,12
 284 1430 284 1430 325 1430 c 2,13,-1
 417 1430 l 2,0,1
EndSplineSet
EndChar

StartChar: mu
Encoding: 181 181 118
Width: 854
GlyphClass: 2
Flags: W
LayerCount: 2
Fore
SplineSet
284 1040 m 2,0,-1
 390 1040 l 2,1,2
 421 1040 421 1040 406 991 c 2,3,-1
 200 281 l 1,4,5
 185 217 185 217 195 199 c 1,6,7
 218 166 218 166 297 284.5 c 128,-1,8
 376 403 376 403 533.5 689 c 128,-1,9
 691 975 691 975 709.5 1007.5 c 128,-1,10
 728 1040 728 1040 761 1040 c 2,11,-1
 839 1040 l 2,12,13
 851 1040 851 1040 859 1024 c 128,-1,14
 867 1008 867 1008 861 987 c 2,15,-1
 613 53 l 1,16,17
 603 0 603 0 572 0 c 2,18,-1
 488 0 l 2,19,20
 439 0 439 0 456 59 c 2,21,-1
 597 537 l 1,22,23
 372 133 372 133 293 66.5 c 128,-1,24
 214 0 214 0 159 0 c 2,25,-1
 118 0 l 1,26,27
 116 -35 116 -35 97 -104 c 2,28,-1
 23 -365 l 2,29,30
 11 -410 11 -410 -38 -410 c 2,31,-1
 -65 -410 l 2,32,33
 -99 -410 -99 -410 -112.5 -390.5 c 128,-1,34
 -126 -371 -126 -371 -118 -344 c 2,35,-1
 251 1012 l 1,36,37
 257 1040 257 1040 284 1040 c 2,0,-1
EndSplineSet
EndChar

StartChar: paragraph
Encoding: 182 182 119
Width: 1384
GlyphClass: 2
Flags: W
LayerCount: 2
Fore
SplineSet
898 1337 m 1,0,-1
 466 -365 l 2,1,2
 454 -410 454 -410 405 -410 c 2,3,-1
 355 -410 l 2,4,5
 323 -410 323 -410 309.5 -391.5 c 128,-1,6
 296 -373 296 -373 302 -344 c 1,7,-1
 573 717 l 1,8,9
 427 723 427 723 333 810 c 128,-1,10
 239 897 239 897 244 1065 c 128,-1,11
 249 1233 249 1233 402.5 1358 c 128,-1,12
 556 1483 556 1483 802 1483 c 2,13,-1
 1470 1483 l 2,14,15
 1517 1483 1517 1483 1504 1434 c 1,16,-1
 1492 1378 l 2,17,18
 1484 1337 1484 1337 1435 1337 c 2,19,-1
 1283 1337 l 1,20,-1
 851 -365 l 2,21,22
 839 -410 839 -410 790 -410 c 2,23,-1
 741 -410 l 2,24,25
 708 -410 708 -410 694.5 -391.5 c 128,-1,26
 681 -373 681 -373 687 -344 c 1,27,-1
 1115 1337 l 1,28,-1
 898 1337 l 1,0,-1
EndSplineSet
EndChar

StartChar: periodcentered
Encoding: 183 183 120
Width: 434
GlyphClass: 2
Flags: W
LayerCount: 2
Fore
SplineSet
295 811 m 2,0,-1
 317 811 l 2,1,2
 356 811 356 811 390 775 c 128,-1,3
 424 739 424 739 424 693 c 128,-1,4
 424 647 424 647 389 613.5 c 128,-1,5
 354 580 354 580 303 580 c 2,6,-1
 283 580 l 2,7,8
 242 580 242 580 210 614.5 c 128,-1,9
 178 649 178 649 178 696 c 128,-1,10
 178 743 178 743 212 777 c 128,-1,11
 246 811 246 811 295 811 c 2,0,-1
EndSplineSet
EndChar

StartChar: cedilla
Encoding: 184 184 121
Width: 604
GlyphClass: 2
Flags: W
LayerCount: 2
Fore
SplineSet
376 -80 m 1,0,-1
 436 -96 l 2,1,2
 470 -106 470 -106 458 -158 c 0,3,4
 409 -365 409 -365 163 -375 c 1,5,6
 132 -375 132 -375 126 -348 c 2,7,-1
 120 -324 l 1,8,9
 112 -285 112 -285 147 -283 c 0,10,11
 229 -276 229 -276 277 -230 c 128,-1,12
 325 -184 325 -184 325 -113 c 0,13,14
 325 -86 325 -86 344.5 -79 c 128,-1,15
 364 -72 364 -72 376 -80 c 1,0,-1
EndSplineSet
EndChar

StartChar: onesuperior
Encoding: 185 185 122
Width: 389
GlyphClass: 2
Flags: W
LayerCount: 2
Fore
SplineSet
501 1561 m 1,0,1
 538 1563 538 1563 524 1522 c 1,2,-1
 276 686 l 1,3,4
 268 655 268 655 239 655 c 2,5,-1
 161 655 l 2,6,7
 124 655 124 655 137 696 c 2,8,-1
 344 1384 l 1,9,-1
 253 1298 l 1,10,11
 225 1270 225 1270 198 1270 c 2,12,-1
 137 1270 l 2,13,14
 112 1270 112 1270 108 1291.5 c 128,-1,15
 104 1313 104 1313 127 1333 c 2,16,-1
 311 1489 l 1,17,18
 350 1524 350 1524 373.5 1542.5 c 128,-1,19
 397 1561 397 1561 419 1561 c 2,20,-1
 501 1561 l 1,0,1
EndSplineSet
EndChar

StartChar: ordmasculine
Encoding: 186 186 123
Width: 665
GlyphClass: 2
Flags: W
LayerCount: 2
Fore
SplineSet
512 1567 m 0,0,1
 618 1567 618 1567 672.5 1492 c 128,-1,2
 727 1417 727 1417 727 1314.5 c 128,-1,3
 727 1212 727 1212 688 1108 c 128,-1,4
 649 1004 649 1004 563 926 c 128,-1,5
 477 848 477 848 372.5 848 c 128,-1,6
 268 848 268 848 205.5 913.5 c 128,-1,7
 143 979 143 979 143 1129.5 c 128,-1,8
 143 1280 143 1280 242.5 1423.5 c 128,-1,9
 342 1567 342 1567 512 1567 c 0,0,1
377 971 m 0,10,11
 475 971 475 971 527.5 1077.5 c 128,-1,12
 580 1184 580 1184 582 1315 c 128,-1,13
 584 1446 584 1446 489.5 1445 c 128,-1,14
 395 1444 395 1444 343 1340.5 c 128,-1,15
 291 1237 291 1237 291 1104 c 128,-1,16
 291 971 291 971 377 971 c 0,10,11
EndSplineSet
EndChar

StartChar: questiondown
Encoding: 191 191 128
Width: 677
GlyphClass: 2
Flags: W
LayerCount: 2
Fore
SplineSet
482 1114 m 0,0,1
 482 1161 482 1161 544 1155 c 1,2,-1
 591 1149 l 1,3,4
 636 1141 636 1141 635 1072.5 c 128,-1,5
 634 1004 634 1004 593 905.5 c 128,-1,6
 552 807 552 807 501.5 766 c 128,-1,7
 451 725 451 725 375.5 723 c 128,-1,8
 300 721 300 721 270 695.5 c 128,-1,9
 240 670 240 670 215.5 600 c 128,-1,10
 191 530 191 530 171.5 404.5 c 128,-1,11
 152 279 152 279 156.5 229.5 c 128,-1,12
 161 180 161 180 182.5 156.5 c 128,-1,13
 204 133 204 133 236 127 c 1,14,15
 257 131 257 131 300 174 c 128,-1,16
 343 217 343 217 369.5 246.5 c 128,-1,17
 396 276 396 276 435 250 c 2,18,-1
 474 225 l 1,19,20
 509 201 509 201 482 164 c 1,21,22
 431 100 431 100 364.5 44 c 128,-1,23
 298 -12 298 -12 252 -21.5 c 128,-1,24
 206 -31 206 -31 131 4 c 128,-1,25
 56 39 56 39 26.5 104.5 c 128,-1,26
 -3 170 -3 170 8 334 c 128,-1,27
 19 498 19 498 74.5 637 c 128,-1,28
 130 776 130 776 190.5 821 c 128,-1,29
 251 866 251 866 425 877 c 1,30,31
 449 909 449 909 465.5 993 c 128,-1,32
 482 1077 482 1077 482 1114 c 0,0,1
595 1251 m 2,33,-1
 572 1251 l 2,34,35
 533 1251 533 1251 499.5 1287 c 128,-1,36
 466 1323 466 1323 466 1369 c 128,-1,37
 466 1415 466 1415 500.5 1449 c 128,-1,38
 535 1483 535 1483 587 1483 c 2,39,-1
 607 1483 l 2,40,41
 648 1483 648 1483 679.5 1448 c 128,-1,42
 711 1413 711 1413 711 1366 c 128,-1,43
 711 1319 711 1319 677.5 1285 c 128,-1,44
 644 1251 644 1251 595 1251 c 2,33,-1
EndSplineSet
EndChar

StartChar: Aring
Encoding: 197 197 134
Width: 948
GlyphClass: 2
Flags: W
LayerCount: 2
Fore
SplineSet
664 1157 m 1,0,1
 633 1159 633 1159 607 1165 c 1,2,-1
 324 592 l 1,3,-1
 625 592 l 1,4,-1
 664 1157 l 1,0,1
484 1233 m 1,5,6
 416 1311 416 1311 432.5 1444 c 128,-1,7
 449 1577 449 1577 533 1653 c 128,-1,8
 617 1729 617 1729 737 1724.5 c 128,-1,9
 857 1720 857 1720 925.5 1644.5 c 128,-1,10
 994 1569 994 1569 972.5 1424.5 c 128,-1,11
 951 1280 951 1280 828 1196 c 1,12,-1
 769 45 l 2,13,14
 767 0 767 0 707 0 c 1,15,-1
 638 2 l 1,16,17
 586 2 586 2 590 57 c 2,18,-1
 617 444 l 1,19,-1
 253 444 l 1,20,-1
 54 41 l 2,21,22
 31 -6 31 -6 -22 0 c 1,23,-1
 -69 4 l 1,24,25
 -102 8 -102 8 -115 28.5 c 128,-1,26
 -128 49 -128 49 -112 82 c 2,27,-1
 484 1233 l 1,5,6
646 1587 m 0,28,29
 588 1542 588 1542 574 1470.5 c 128,-1,30
 560 1399 560 1399 578.5 1345.5 c 128,-1,31
 597 1292 597 1292 656 1280 c 128,-1,32
 715 1268 715 1268 762.5 1308 c 128,-1,33
 810 1348 810 1348 830.5 1415.5 c 128,-1,34
 851 1483 851 1483 828.5 1540 c 128,-1,35
 806 1597 806 1597 750.5 1610.5 c 128,-1,36
 695 1624 695 1624 646 1587 c 0,28,29
EndSplineSet
EndChar

StartChar: AE
Encoding: 198 198 135
Width: 1335
GlyphClass: 2
Flags: W
LayerCount: 2
Fore
SplineSet
335 592 m 1,0,-1
 630 592 l 1,1,-1
 746 1247 l 1,2,-1
 335 592 l 1,0,-1
240 444 m 1,3,-1
 -14 39 l 2,4,5
 -30 14 -30 14 -41 6 c 128,-1,6
 -52 -2 -52 -2 -81 0 c 2,7,-1
 -153 4 l 2,8,9
 -181 6 -181 6 -189.5 30.5 c 128,-1,10
 -198 55 -198 55 -184 76 c 2,11,-1
 687 1397 l 1,12,13
 746 1483 746 1483 808 1483 c 2,14,-1
 1457 1483 l 2,15,16
 1486 1483 1486 1483 1495 1471.5 c 128,-1,17
 1504 1460 1504 1460 1496 1432 c 2,18,-1
 1481 1380 l 1,19,20
 1471 1341 1471 1341 1430 1341 c 2,21,-1
 918 1341 l 1,22,-1
 838 874 l 1,23,-1
 1250 874 l 2,24,25
 1266 874 1266 874 1275.5 861 c 128,-1,26
 1285 848 1285 848 1279 827 c 2,27,-1
 1264 776 l 2,28,29
 1252 733 1252 733 1203 733 c 2,30,-1
 814 733 l 1,31,-1
 713 141 l 1,32,-1
 1094 141 l 2,33,34
 1113 141 1113 141 1120 127 c 128,-1,35
 1127 113 1127 113 1123 94 c 1,36,-1
 1109 43 l 1,37,38
 1099 0 1099 0 1043 0 c 2,39,-1
 582 0 l 2,40,41
 529 0 529 0 535 55 c 1,42,-1
 603 444 l 1,43,-1
 240 444 l 1,3,-1
EndSplineSet
EndChar

StartChar: Igrave
Encoding: 204 204 141
Width: 481
GlyphClass: 2
Flags: W
LayerCount: 2
Fore
SplineSet
354 1438 m 1,0,1
 367 1483 367 1483 416 1483 c 2,2,-1
 475 1483 l 2,3,4
 500 1483 500 1483 511 1464.5 c 128,-1,5
 522 1446 522 1446 516 1419 c 2,6,-1
 166 45 l 2,7,8
 154 0 154 0 104 0 c 2,9,-1
 45 0 l 2,10,11
 21 0 21 0 9.5 18.5 c 128,-1,12
 -2 37 -2 37 4 63 c 2,13,-1
 354 1438 l 1,0,1
295 1876 m 2,14,15
 336 1876 336 1876 358 1841 c 2,16,-1
 475 1653 l 2,17,18
 485 1636 485 1636 476 1625 c 128,-1,19
 467 1614 467 1614 449 1614 c 2,20,-1
 416 1614 l 2,21,22
 385 1614 385 1614 356 1642 c 1,23,-1
 174 1833 l 1,24,25
 160 1853 160 1853 165 1864.5 c 128,-1,26
 170 1876 170 1876 186 1876 c 2,27,-1
 295 1876 l 2,14,15
EndSplineSet
EndChar

StartChar: Iacute
Encoding: 205 205 142
Width: 440
GlyphClass: 2
Flags: W
LayerCount: 2
Fore
SplineSet
328 1438 m 2,0,1
 340 1483 340 1483 389 1483 c 2,2,-1
 449 1483 l 2,3,4
 473 1483 473 1483 484.5 1464.5 c 128,-1,5
 496 1446 496 1446 489 1419 c 2,6,-1
 139 45 l 2,7,8
 127 0 127 0 78 0 c 2,9,-1
 18 0 l 2,10,11
 -6 0 -6 0 -17.5 18.5 c 128,-1,12
 -29 37 -29 37 -23 63 c 2,13,-1
 328 1438 l 2,0,1
676 1876 m 2,14,15
 698 1876 698 1876 703.5 1862.5 c 128,-1,16
 709 1849 709 1849 690 1825 c 1,17,-1
 512 1638 l 2,18,19
 489 1614 489 1614 455 1614 c 2,20,-1
 412 1614 l 2,21,22
 395 1614 395 1614 391 1625 c 128,-1,23
 387 1636 387 1636 393 1642 c 1,24,-1
 520 1841 l 2,25,26
 543 1876 543 1876 584 1876 c 2,27,-1
 676 1876 l 2,14,15
EndSplineSet
EndChar

StartChar: Icircumflex
Encoding: 206 206 143
Width: 454
GlyphClass: 2
Flags: W
LayerCount: 2
Fore
SplineSet
328 1438 m 2,0,1
 340 1483 340 1483 389 1483 c 2,2,-1
 449 1483 l 2,3,4
 473 1483 473 1483 484.5 1464.5 c 128,-1,5
 496 1446 496 1446 489 1419 c 2,6,-1
 139 45 l 2,7,8
 127 0 127 0 78 0 c 2,9,-1
 18 0 l 2,10,11
 -6 0 -6 0 -17.5 18.5 c 128,-1,12
 -29 37 -29 37 -23 63 c 2,13,-1
 328 1438 l 2,0,1
455 1755 m 1,14,-1
 326 1624 l 2,15,16
 303 1602 303 1602 268 1602 c 2,17,-1
 219 1602 l 2,18,19
 197 1602 197 1602 192.5 1617 c 128,-1,20
 188 1632 188 1632 207 1649 c 2,21,-1
 414 1835 l 2,22,23
 449 1866 449 1866 465 1864 c 2,24,-1
 483 1862 l 2,25,26
 504 1860 504 1860 524 1825 c 2,27,-1
 633 1636 l 1,28,29
 643 1622 643 1622 637 1612 c 128,-1,30
 631 1602 631 1602 612 1602 c 2,31,-1
 553 1602 l 2,32,33
 520 1602 520 1602 510 1624 c 2,34,-1
 455 1755 l 1,14,-1
EndSplineSet
EndChar

StartChar: Idieresis
Encoding: 207 207 144
Width: 454
GlyphClass: 2
Flags: W
LayerCount: 2
Fore
SplineSet
299 1862 m 2,0,-1
 317 1862 l 2,1,2
 352 1862 352 1862 381 1831 c 128,-1,3
 410 1800 410 1800 410 1760 c 128,-1,4
 410 1720 410 1720 380 1691.5 c 128,-1,5
 350 1663 350 1663 305 1663 c 2,6,-1
 289 1663 l 2,7,8
 254 1663 254 1663 226.5 1692.5 c 128,-1,9
 199 1722 199 1722 199 1762 c 128,-1,10
 199 1802 199 1802 227.5 1832 c 128,-1,11
 256 1862 256 1862 299 1862 c 2,0,-1
571 1862 m 2,12,-1
 590 1862 l 2,13,14
 625 1862 625 1862 653.5 1831 c 128,-1,15
 682 1800 682 1800 682 1760 c 128,-1,16
 682 1720 682 1720 652.5 1691.5 c 128,-1,17
 623 1663 623 1663 578 1663 c 2,18,-1
 561 1663 l 2,19,20
 526 1663 526 1663 498.5 1692.5 c 128,-1,21
 471 1722 471 1722 471 1762 c 128,-1,22
 471 1802 471 1802 499.5 1832 c 128,-1,23
 528 1862 528 1862 571 1862 c 2,12,-1
328 1438 m 2,24,25
 340 1483 340 1483 389 1483 c 2,26,-1
 449 1483 l 2,27,28
 473 1483 473 1483 484.5 1464.5 c 128,-1,29
 496 1446 496 1446 489 1419 c 2,30,-1
 139 45 l 2,31,32
 127 0 127 0 78 0 c 2,33,-1
 18 0 l 2,34,35
 -6 0 -6 0 -17.5 18.5 c 128,-1,36
 -29 37 -29 37 -23 63 c 2,37,-1
 328 1438 l 2,24,25
EndSplineSet
EndChar

StartChar: Eth
Encoding: 208 208 145
Width: 946
GlyphClass: 2
Flags: W
LayerCount: 2
Fore
SplineSet
154 735 m 2,0,-1
 809 735 l 2,1,2
 854 735 854 735 844 688 c 2,3,-1
 834 637 l 1,4,5
 823 594 823 594 780 594 c 2,6,-1
 146 594 l 2,7,8
 96 594 96 594 109 641 c 1,9,-1
 127 713 l 2,10,11
 133 735 133 735 154 735 c 2,0,-1
EndSplineSet
EndChar

StartChar: multiply
Encoding: 215 215 152
Width: 874
GlyphClass: 2
Flags: W
LayerCount: 2
Fore
SplineSet
513 618 m 1,0,-1
 691 139 l 2,1,2
 701 111 701 111 691 95.5 c 128,-1,3
 681 80 681 80 648 61 c 1,4,-1
 623 49 l 1,5,6
 548 6 548 6 521 94 c 2,7,-1
 400 477 l 1,8,-1
 116 84 l 1,9,10
 85 35 85 35 46 59 c 1,11,-1
 -5 92 l 2,12,13
 -36 111 -36 111 -41 127 c 128,-1,14
 -46 143 -46 143 -24 176 c 1,15,-1
 341 639 l 1,16,-1
 169 1118 l 1,17,18
 142 1186 142 1186 181 1208 c 1,19,-1
 236 1243 l 1,20,21
 294 1274 294 1274 320 1190 c 1,22,-1
 462 768 l 1,23,-1
 773 1196 l 1,24,25
 806 1245 806 1245 843 1223 c 2,26,-1
 884 1198 l 2,27,28
 918 1178 918 1178 920 1158.5 c 128,-1,29
 922 1139 922 1139 900 1112 c 2,30,-1
 513 618 l 1,0,-1
EndSplineSet
EndChar

StartChar: Oslash
Encoding: 216 216 153
Width: 921
GlyphClass: 2
Flags: W
LayerCount: 2
Fore
SplineSet
24 444 m 0,0,1
 24 631 24 631 79 816 c 128,-1,2
 134 1001 134 1001 213 1147.5 c 128,-1,3
 292 1294 292 1294 408.5 1396.5 c 128,-1,4
 525 1499 525 1499 650 1499 c 0,5,6
 736 1499 736 1499 802.5 1457 c 128,-1,7
 869 1415 869 1415 896 1370 c 1,8,-1
 976 1468 l 2,9,10
 996 1491 996 1491 1008.5 1495 c 128,-1,11
 1021 1499 1021 1499 1052 1485 c 1,12,-1
 1082 1464 l 1,13,14
 1136 1430 1136 1430 1107 1395 c 2,15,-1
 937 1188 l 1,16,17
 941 1137 941 1137 941 1071 c 0,18,19
 941 889 941 889 872.5 636 c 128,-1,20
 804 383 804 383 677 197 c 1,21,22
 609 100 609 100 516 46 c 128,-1,23
 423 -8 423 -8 336 -10 c 128,-1,24
 249 -12 249 -12 182.5 24.5 c 128,-1,25
 116 61 116 61 71 141 c 1,26,-1
 28 88 l 1,27,28
 -17 35 -17 35 -42 55 c 2,29,-1
 -83 88 l 2,30,31
 -105 106 -105 106 -106.5 121.5 c 128,-1,32
 -108 137 -108 137 -81 172 c 1,33,-1
 30 307 l 1,34,35
 24 369 24 369 24 444 c 0,0,1
202 299 m 1,36,37
 224 129 224 129 331 129 c 0,38,39
 433 129 433 129 531 256 c 1,40,41
 615 375 615 375 687 596 c 128,-1,42
 759 817 759 817 771 987 c 1,43,-1
 202 299 l 1,36,37
251 788 m 1,44,45
 206 639 206 639 194 510 c 1,46,-1
 759 1204 l 1,47,48
 730 1331 730 1331 642 1331 c 0,49,50
 529 1331 529 1331 441 1217 c 1,51,52
 333 1073 333 1073 251 788 c 1,44,45
EndSplineSet
EndChar

StartChar: Thorn
Encoding: 222 222 159
Width: 915
GlyphClass: 2
Flags: W
LayerCount: 2
Fore
SplineSet
335 1438 m 2,0,1
 347 1483 347 1483 396 1483 c 2,2,-1
 456 1483 l 2,3,4
 480 1483 480 1483 491.5 1464.5 c 128,-1,5
 503 1446 503 1446 497 1419 c 1,6,-1
 476 1341 l 1,7,-1
 587 1341 l 2,8,9
 753 1341 753 1341 841 1268.5 c 128,-1,10
 929 1196 929 1196 924 1053.5 c 128,-1,11
 919 911 919 911 872.5 786.5 c 128,-1,12
 826 662 826 662 755 598 c 0,13,14
 605 465 605 465 255 471 c 1,15,-1
 146 45 l 2,16,17
 134 0 134 0 85 0 c 2,18,-1
 26 0 l 2,19,20
 1 0 1 0 -10.5 18.5 c 128,-1,21
 -22 37 -22 37 -15 63 c 2,22,-1
 335 1438 l 2,0,1
450 618 m 2,23,24
 613 627 613 627 675 741 c 1,25,26
 706 793 706 793 731.5 889 c 128,-1,27
 757 985 757 985 757 1071 c 0,28,29
 757 1192 757 1192 617 1198 c 0,30,31
 556 1200 556 1200 441 1202 c 1,32,-1
 290 610 l 1,33,-1
 450 618 l 2,23,24
EndSplineSet
EndChar

StartChar: germandbls
Encoding: 223 223 160
Width: 931
GlyphClass: 2
Flags: W
LayerCount: 2
Fore
SplineSet
53 0 m 2,0,-1
 2 0 l 2,1,2
 -23 0 -23 0 -35 13.5 c 128,-1,3
 -47 27 -47 27 -43 47 c 1,4,-1
 244 1126 l 2,5,6
 293 1313 293 1313 398.5 1426.5 c 128,-1,7
 504 1540 504 1540 666 1540 c 0,8,9
 788 1540 788 1540 866 1452 c 128,-1,10
 944 1364 944 1364 935 1230 c 128,-1,11
 926 1096 926 1096 817 979 c 1,12,13
 721 883 721 883 704 862 c 0,14,15
 655 797 655 797 655 746.5 c 128,-1,16
 655 696 655 696 688 657 c 128,-1,17
 721 618 721 618 761 585.5 c 128,-1,18
 801 553 801 553 833.5 491.5 c 128,-1,19
 866 430 866 430 866 354 c 0,20,21
 866 195 866 195 776 81 c 128,-1,22
 686 -33 686 -33 528 -33 c 0,23,24
 465 -33 465 -33 419 -4 c 128,-1,25
 373 25 373 25 352 72 c 0,26,27
 313 158 313 158 313 230.5 c 128,-1,28
 313 303 313 303 342 311 c 2,29,-1
 397 328 l 2,30,31
 459 348 459 348 457 307 c 0,32,33
 448 98 448 98 555 98 c 0,34,35
 618 98 618 98 664.5 165.5 c 128,-1,36
 711 233 711 233 712 310 c 128,-1,37
 713 387 713 387 690.5 428 c 128,-1,38
 668 469 668 469 635 498.5 c 128,-1,39
 602 528 602 528 569 557 c 1,40,41
 489 623 489 623 493 707 c 1,42,43
 493 813 493 813 561 901 c 1,44,45
 625 987 625 987 692 1055 c 1,46,47
 764 1135 764 1135 776 1220 c 128,-1,48
 788 1305 788 1305 751.5 1357 c 128,-1,49
 715 1409 715 1409 645 1409 c 128,-1,50
 575 1409 575 1409 505.5 1331 c 128,-1,51
 436 1253 436 1253 399 1118 c 2,52,-1
 113 45 l 2,53,54
 100 0 100 0 53 0 c 2,0,-1
EndSplineSet
EndChar

StartChar: ae
Encoding: 230 230 167
Width: 1034
GlyphClass: 2
Flags: W
LayerCount: 2
Fore
SplineSet
442 586 m 1,0,1
 338 551 338 551 236.5 447.5 c 128,-1,2
 135 344 135 344 130 228.5 c 128,-1,3
 125 113 125 113 208 114 c 128,-1,4
 291 115 291 115 343 245 c 128,-1,5
 395 375 395 375 442 586 c 1,0,1
537 279 m 1,6,7
 522 203 522 203 542.5 164 c 128,-1,8
 563 125 563 125 600 117 c 1,9,10
 676 145 676 145 786 270 c 1,11,12
 805 289 805 289 827 274 c 1,13,-1
 866 250 l 1,14,15
 897 229 897 229 885 205 c 0,16,17
 846 131 846 131 733.5 40 c 128,-1,18
 621 -51 621 -51 526.5 -10 c 128,-1,19
 432 31 432 31 406 115 c 1,20,21
 346 25 346 25 261 -11 c 128,-1,22
 176 -47 176 -47 74.5 10.5 c 128,-1,23
 -27 68 -27 68 -31 210 c 128,-1,24
 -35 352 -35 352 116.5 507 c 128,-1,25
 268 662 268 662 469 713 c 1,26,27
 471 721 471 721 473 731 c 0,28,29
 500 856 500 856 432 909 c 1,30,31
 406 903 406 903 340 839.5 c 128,-1,32
 274 776 274 776 250 739 c 1,33,34
 233 719 233 719 209 735 c 1,35,-1
 162 764 l 2,36,37
 131 784 131 784 143 809 c 0,38,39
 178 879 178 879 287.5 968 c 128,-1,40
 397 1057 397 1057 446.5 1048.5 c 128,-1,41
 496 1040 496 1040 542 994 c 128,-1,42
 588 948 588 948 606 891 c 1,43,44
 676 991 676 991 778.5 1020 c 128,-1,45
 881 1049 881 1049 957.5 1014 c 128,-1,46
 1034 979 1034 979 1039 854 c 128,-1,47
 1044 729 1044 729 998 640 c 128,-1,48
 952 551 952 551 842.5 451.5 c 128,-1,49
 733 352 733 352 537 279 c 1,6,7
561 412 m 1,50,51
 659 453 659 453 729 508 c 128,-1,52
 799 563 799 563 845 644 c 128,-1,53
 891 725 891 725 891 808 c 128,-1,54
 891 891 891 891 842 891 c 128,-1,55
 793 891 793 891 739.5 844 c 128,-1,56
 686 797 686 797 640 683 c 128,-1,57
 594 569 594 569 561 412 c 1,50,51
EndSplineSet
EndChar

StartChar: idieresis
Encoding: 239 239 176
Width: 401
GlyphClass: 2
Flags: W
LayerCount: 2
Fore
SplineSet
257 1386 m 2,0,-1
 273 1386 l 2,1,2
 304 1386 304 1386 328.5 1355.5 c 128,-1,3
 353 1325 353 1325 353 1285 c 128,-1,4
 353 1245 353 1245 327.5 1216.5 c 128,-1,5
 302 1188 302 1188 263 1188 c 2,6,-1
 249 1188 l 2,7,8
 218 1188 218 1188 194.5 1217.5 c 128,-1,9
 171 1247 171 1247 171 1287 c 128,-1,10
 171 1327 171 1327 195.5 1356.5 c 128,-1,11
 220 1386 220 1386 257 1386 c 2,0,-1
492 1386 m 2,12,-1
 509 1386 l 2,13,14
 540 1386 540 1386 564.5 1355.5 c 128,-1,15
 589 1325 589 1325 589 1285 c 128,-1,16
 589 1245 589 1245 563 1216.5 c 128,-1,17
 537 1188 537 1188 499 1188 c 2,18,-1
 484 1188 l 2,19,20
 453 1188 453 1188 429.5 1217.5 c 128,-1,21
 406 1247 406 1247 406 1287 c 128,-1,22
 406 1327 406 1327 431 1356.5 c 128,-1,23
 456 1386 456 1386 492 1386 c 2,12,-1
410 997 m 2,24,-1
 163 45 l 1,25,26
 150 0 150 0 101 0 c 2,27,-1
 42 0 l 2,28,29
 -16 0 -16 0 -3 47 c 2,30,-1
 247 999 l 2,31,32
 257 1040 257 1040 304 1040 c 2,33,-1
 372 1040 l 2,34,35
 398 1040 398 1040 407.5 1031 c 128,-1,36
 417 1022 417 1022 410 997 c 2,24,-1
EndSplineSet
EndChar

StartChar: eth
Encoding: 240 240 177
Width: 679
GlyphClass: 2
Flags: W
LayerCount: 2
Fore
SplineSet
508 705 m 1,0,1
 514 807 514 807 497.5 860 c 128,-1,2
 481 913 481 913 412.5 907 c 128,-1,3
 344 901 344 901 262 722 c 128,-1,4
 180 543 180 543 174 336 c 128,-1,5
 168 129 168 129 237.5 125 c 128,-1,6
 307 121 307 121 391 276.5 c 128,-1,7
 475 432 475 432 508 705 c 1,0,1
504 1051 m 1,8,9
 487 1153 487 1153 461 1241 c 1,10,-1
 283 1204 l 2,11,12
 246 1196 246 1196 236 1227 c 1,13,-1
 211 1284 l 1,14,15
 199 1315 199 1315 225 1323 c 1,16,-1
 420 1362 l 1,17,18
 397 1419 397 1419 361 1507 c 0,19,20
 352 1528 352 1528 362.5 1542 c 128,-1,21
 373 1556 373 1556 397 1556 c 2,22,-1
 492 1556 l 2,23,24
 535 1556 535 1556 551 1505 c 0,25,26
 553 1499 553 1499 564.5 1462 c 128,-1,27
 576 1425 576 1425 586 1397 c 1,28,-1
 746 1430 l 1,29,30
 774 1434 774 1434 786 1411 c 2,31,-1
 813 1360 l 2,32,33
 821 1343 821 1343 815 1329 c 128,-1,34
 809 1315 809 1315 795 1311 c 1,35,-1
 617 1274 l 1,36,37
 637 1194 637 1194 657.5 1024 c 128,-1,38
 678 854 678 854 662 684 c 1,39,40
 639 414 639 414 516 195.5 c 128,-1,41
 393 -23 393 -23 205 -16 c 0,42,43
 139 -14 139 -14 84 41 c 0,44,45
 0 125 0 125 11.5 348 c 128,-1,46
 23 571 23 571 108 746.5 c 128,-1,47
 193 922 193 922 279 992.5 c 128,-1,48
 365 1063 365 1063 469 1057 c 0,49,50
 487 1055 487 1055 504 1051 c 1,8,9
EndSplineSet
EndChar

StartChar: oslash
Encoding: 248 248 185
Width: 923
GlyphClass: 2
Flags: W
LayerCount: 2
Fore
SplineSet
1000 938 m 2,0,-1
 774 731 l 1,1,-1
 774 727 l 1,2,3
 766 424 766 424 608 166 c 1,4,5
 500 -23 500 -23 315 -16 c 0,6,7
 250 -14 250 -14 201 33 c 128,-1,8
 152 80 152 80 133 145 c 1,9,-1
 41 61 l 1,10,11
 -10 16 -10 16 -33 39 c 1,12,-1
 -61 72 l 2,13,14
 -84 98 -84 98 -86 112.5 c 128,-1,15
 -88 127 -88 127 -57 164 c 1,16,-1
 117 324 l 1,17,18
 131 584 131 584 252 815 c 0,19,20
 381 1061 381 1061 580 1057 c 1,21,22
 707 1051 707 1051 758 911 c 1,23,-1
 885 1028 l 2,24,25
 924 1065 924 1065 959 1032 c 1,26,-1
 985 1010 l 1,27,28
 1032 967 1032 967 1000 938 c 2,0,-1
465 215 m 1,29,30
 569 379 569 379 600 571 c 1,31,-1
 283 283 l 1,32,33
 285 131 285 131 346 127 c 1,34,35
 406 125 406 125 465 215 c 1,29,30
600 866 m 0,36,37
 586 907 586 907 540 908 c 128,-1,38
 494 909 494 909 456 865 c 128,-1,39
 418 821 418 821 381 743 c 1,40,41
 324 629 324 629 299 492 c 1,42,-1
 612 778 l 1,43,44
 608 840 608 840 600 866 c 0,36,37
EndSplineSet
EndChar

StartChar: thorn
Encoding: 254 254 191
Width: 749
GlyphClass: 2
Flags: W
LayerCount: 2
Fore
SplineSet
169 143 m 1,0,1
 269 86 269 86 338.5 134 c 128,-1,2
 408 182 408 182 477 368.5 c 128,-1,3
 546 555 546 555 565 659.5 c 128,-1,4
 584 764 584 764 581 801 c 128,-1,5
 578 838 578 838 545.5 855 c 128,-1,6
 513 872 513 872 434 785 c 128,-1,7
 355 698 355 698 298.5 552 c 128,-1,8
 242 406 242 406 175 162 c 1,9,-1
 169 143 l 1,0,1
517 1507 m 2,10,-1
 339 813 l 1,11,-1
 367 860 l 2,12,13
 410 932 410 932 465.5 983 c 128,-1,14
 521 1034 521 1034 556 1034 c 2,15,-1
 560 1034 l 2,16,17
 576 1034 576 1034 611 1010.5 c 128,-1,18
 646 987 646 987 678.5 947 c 128,-1,19
 711 907 711 907 724.5 864 c 128,-1,20
 738 821 738 821 720.5 694 c 128,-1,21
 703 567 703 567 621 351 c 128,-1,22
 539 135 539 135 462.5 63.5 c 128,-1,23
 386 -8 386 -8 267 -8 c 0,24,25
 201 -8 201 -8 138 29 c 1,26,-1
 38 -365 l 1,27,28
 25 -410 25 -410 -24 -410 c 2,29,-1
 -65 -410 l 2,30,31
 -98 -410 -98 -410 -111 -391.5 c 128,-1,32
 -124 -373 -124 -373 -118 -344 c 1,33,-1
 357 1509 l 2,34,35
 369 1554 369 1554 419 1554 c 2,36,-1
 472 1554 l 2,37,38
 529 1554 529 1554 517 1507 c 2,10,-1
EndSplineSet
EndChar

StartChar: dotlessi
Encoding: 305 305 196
Width: 391
GlyphClass: 2
Flags: W
LayerCount: 2
Fore
SplineSet
387 997 m 2,0,-1
 139 45 l 2,1,2
 127 0 127 0 78 0 c 2,3,-1
 18 0 l 2,4,5
 -39 0 -39 0 -27 47 c 2,6,-1
 223 999 l 2,7,8
 233 1040 233 1040 280 1040 c 2,9,-1
 348 1040 l 2,10,11
 375 1040 375 1040 384 1031 c 128,-1,12
 393 1022 393 1022 387 997 c 2,0,-1
EndSplineSet
EndChar

StartChar: circumflex
Encoding: 710 710 202
Width: 747
GlyphClass: 2
Flags: W
LayerCount: 2
Fore
SplineSet
422 1372 m 1,0,-1
 293 1241 l 2,1,2
 270 1219 270 1219 235 1219 c 2,3,-1
 186 1219 l 2,4,5
 163 1219 163 1219 159 1234 c 128,-1,6
 155 1249 155 1249 174 1266 c 2,7,-1
 381 1452 l 2,8,9
 415 1483 415 1483 432 1481 c 2,10,-1
 450 1479 l 2,11,12
 471 1477 471 1477 491 1442 c 2,13,-1
 600 1253 l 1,14,15
 610 1239 610 1239 604 1229 c 128,-1,16
 598 1219 598 1219 579 1219 c 2,17,-1
 520 1219 l 2,18,19
 487 1219 487 1219 477 1241 c 2,20,-1
 422 1372 l 1,0,-1
EndSplineSet
EndChar

StartChar: caron
Encoding: 711 711 203
Width: 735
GlyphClass: 2
Flags: W
LayerCount: 2
Fore
SplineSet
347 1307 m 1,0,-1
 476 1438 l 2,1,2
 499 1460 499 1460 534 1460 c 2,3,-1
 583 1460 l 2,4,5
 605 1460 605 1460 609.5 1445 c 128,-1,6
 614 1430 614 1430 595 1413 c 2,7,-1
 388 1227 l 2,8,9
 353 1196 353 1196 337 1198 c 2,10,-1
 319 1200 l 2,11,12
 298 1202 298 1202 278 1237 c 2,13,-1
 169 1425 l 1,14,15
 159 1440 159 1440 165 1450 c 128,-1,16
 171 1460 171 1460 190 1460 c 2,17,-1
 249 1460 l 2,18,19
 282 1460 282 1460 292 1438 c 2,20,-1
 347 1307 l 1,0,-1
EndSplineSet
EndChar

StartChar: breve
Encoding: 728 728 204
Width: 933
GlyphClass: 2
Flags: W
LayerCount: 2
Fore
SplineSet
94 1479 m 1,0,-1
 215 1479 l 1,1,2
 223 1391 223 1391 298 1331.5 c 128,-1,3
 373 1272 373 1272 473 1272 c 128,-1,4
 573 1272 573 1272 642 1329 c 128,-1,5
 711 1386 711 1386 721 1479 c 1,6,-1
 840 1479 l 1,7,8
 823 1341 823 1341 722 1257.5 c 128,-1,9
 621 1174 621 1174 468 1174 c 128,-1,10
 315 1174 315 1174 216 1256.5 c 128,-1,11
 117 1339 117 1339 94 1479 c 1,0,-1
EndSplineSet
EndChar

StartChar: dotaccent
Encoding: 729 729 205
Width: 477
GlyphClass: 2
Flags: W
LayerCount: 2
Fore
SplineSet
397 1434 m 2,0,-1
 416 1434 l 2,1,2
 451 1434 451 1434 479.5 1403 c 128,-1,3
 508 1372 508 1372 508 1332 c 128,-1,4
 508 1292 508 1292 478.5 1263.5 c 128,-1,5
 449 1235 449 1235 403 1235 c 2,6,-1
 387 1235 l 2,7,8
 352 1235 352 1235 324.5 1264.5 c 128,-1,9
 297 1294 297 1294 297 1334 c 128,-1,10
 297 1374 297 1374 325.5 1404 c 128,-1,11
 354 1434 354 1434 397 1434 c 2,0,-1
EndSplineSet
EndChar

StartChar: ring
Encoding: 730 730 206
Width: 1249
GlyphClass: 2
Flags: W
LayerCount: 2
Fore
SplineSet
733 1585 m 1,0,1
 671 1530 671 1530 661 1457 c 128,-1,2
 651 1384 651 1384 673.5 1343.5 c 128,-1,3
 696 1303 696 1303 746 1291.5 c 128,-1,4
 796 1280 796 1280 844 1314 c 128,-1,5
 892 1348 892 1348 913.5 1416.5 c 128,-1,6
 935 1485 935 1485 912.5 1541 c 128,-1,7
 890 1597 890 1597 837 1611.5 c 128,-1,8
 784 1626 784 1626 733 1585 c 1,0,1
1048 1458 m 0,9,10
 1028 1315 1028 1315 940.5 1246.5 c 128,-1,11
 853 1178 853 1178 744.5 1184 c 128,-1,12
 636 1190 636 1190 574.5 1271 c 128,-1,13
 513 1352 513 1352 530.5 1462.5 c 128,-1,14
 548 1573 548 1573 627 1647.5 c 128,-1,15
 706 1722 706 1722 815.5 1722 c 128,-1,16
 925 1722 925 1722 993.5 1642.5 c 128,-1,17
 1062 1563 1062 1563 1048 1458 c 0,9,10
EndSplineSet
EndChar

StartChar: ogonek
Encoding: 731 731 207
Width: 577
GlyphClass: 2
Flags: W
LayerCount: 2
Fore
SplineSet
304 59 m 1,0,-1
 329 33 l 2,1,2
 362 0 362 0 323 -12 c 1,3,4
 237 -45 237 -45 191 -101.5 c 128,-1,5
 145 -158 145 -158 162 -210 c 128,-1,6
 179 -262 179 -262 274 -233 c 1,7,8
 300 -223 300 -223 312 -260 c 2,9,-1
 321 -289 l 1,10,11
 333 -319 333 -319 294 -336 c 1,12,13
 229 -360 229 -360 167.5 -360 c 128,-1,14
 106 -360 106 -360 62 -323.5 c 128,-1,15
 18 -287 18 -287 21 -205 c 128,-1,16
 24 -123 24 -123 103.5 -48 c 128,-1,17
 183 27 183 27 304 59 c 1,0,-1
EndSplineSet
EndChar

StartChar: tilde
Encoding: 732 732 208
Width: 1140
GlyphClass: 2
Flags: W
LayerCount: 2
Fore
SplineSet
260 1182 m 2,0,-1
 272 1221 l 1,1,2
 282 1264 282 1264 338 1272 c 1,3,4
 471 1296 471 1296 583.5 1253 c 128,-1,5
 696 1210 696 1210 845 1253 c 0,6,7
 874 1262 874 1262 888.5 1251.5 c 128,-1,8
 903 1241 903 1241 895 1212 c 2,9,-1
 882 1163 l 2,10,11
 872 1122 872 1122 829 1110 c 0,12,13
 696 1071 696 1071 556.5 1118 c 128,-1,14
 417 1165 417 1165 303 1128 c 0,15,16
 272 1118 272 1118 260.5 1130.5 c 128,-1,17
 249 1143 249 1143 260 1182 c 2,0,-1
EndSplineSet
EndChar

StartChar: hungarumlaut
Encoding: 733 733 209
Width: 899
GlyphClass: 2
Flags: W
LayerCount: 2
Fore
SplineSet
610 1483 m 2,0,1
 632 1483 632 1483 638 1468.5 c 128,-1,2
 644 1454 644 1454 624 1432 c 2,3,-1
 464 1247 l 1,4,5
 435 1219 435 1219 403 1219 c 2,6,-1
 378 1219 l 2,7,8
 358 1219 358 1219 353.5 1230 c 128,-1,9
 349 1241 349 1241 358 1253 c 2,10,-1
 489 1448 l 1,11,12
 511 1483 511 1483 552 1483 c 2,13,-1
 610 1483 l 2,0,1
358 1483 m 2,14,15
 407 1483 407 1483 372 1432 c 1,16,-1
 220 1243 l 1,17,18
 196 1219 196 1219 163 1219 c 2,19,-1
 136 1219 l 2,20,21
 116 1219 116 1219 112 1230 c 128,-1,22
 108 1241 108 1241 116 1253 c 2,23,-1
 237 1448 l 2,24,25
 259 1483 259 1483 300 1483 c 2,26,-1
 358 1483 l 2,14,15
EndSplineSet
EndChar

StartChar: tildecomb
Encoding: 771 771 210
Width: 1140
GlyphClass: 2
Flags: W
LayerCount: 2
Fore
SplineSet
894 1219 m 2,0,1
 888 1192 888 1192 851 1170.5 c 128,-1,2
 814 1149 814 1149 742.5 1149 c 128,-1,3
 671 1149 671 1149 592 1181.5 c 128,-1,4
 513 1214 513 1214 469 1214 c 128,-1,5
 425 1214 425 1214 386 1194 c 128,-1,6
 347 1174 347 1174 336 1181 c 128,-1,7
 325 1188 325 1188 329 1221 c 1,8,-1
 331 1264 l 1,9,10
 331 1298 331 1298 374 1323 c 128,-1,11
 417 1348 417 1348 475.5 1350 c 128,-1,12
 534 1352 534 1352 615.5 1316 c 128,-1,13
 697 1280 697 1280 756.5 1280 c 128,-1,14
 816 1280 816 1280 853 1300.5 c 128,-1,15
 890 1321 890 1321 901 1312 c 128,-1,16
 912 1303 912 1303 906 1274 c 2,17,-1
 894 1219 l 2,0,1
EndSplineSet
EndChar

StartChar: endash
Encoding: 8211 8211 211
Width: 1241
GlyphClass: 2
Flags: W
LayerCount: 2
Fore
SplineSet
154 735 m 2,0,-1
 1055 735 l 2,1,2
 1098 735 1098 735 1090 688 c 1,3,-1
 1079 637 l 2,4,5
 1069 594 1069 594 1026 594 c 2,6,-1
 146 594 l 2,7,8
 96 594 96 594 109 641 c 1,9,-1
 127 713 l 2,10,11
 133 735 133 735 154 735 c 2,0,-1
EndSplineSet
EndChar

StartChar: emdash
Encoding: 8212 8212 212
Width: 1705
GlyphClass: 2
Flags: W
LayerCount: 2
Fore
SplineSet
154 735 m 2,0,-1
 1647 735 l 2,1,2
 1665 735 1665 735 1675.5 722 c 128,-1,3
 1686 709 1686 709 1682 688 c 2,4,-1
 1671 639 l 1,5,6
 1663 594 1663 594 1618 594 c 2,7,-1
 146 594 l 2,8,9
 96 594 96 594 109 641 c 1,10,-1
 127 713 l 2,11,12
 133 735 133 735 154 735 c 2,0,-1
EndSplineSet
EndChar

StartChar: quoteleft
Encoding: 8216 8216 213
Width: 464
GlyphClass: 2
Flags: W
LayerCount: 2
Fore
SplineSet
160 1094 m 0,0,1
 160 1305 160 1305 307 1554 c 1,2,3
 356 1642 356 1642 410 1642 c 0,4,5
 434 1642 434 1642 434 1612.5 c 128,-1,6
 434 1583 434 1583 402.5 1499 c 128,-1,7
 371 1415 371 1415 353.5 1307.5 c 128,-1,8
 336 1200 336 1200 334 1116 c 0,9,10
 334 1081 334 1081 291 1071 c 2,11,-1
 209 1053 l 2,12,13
 160 1042 160 1042 160 1094 c 0,0,1
EndSplineSet
EndChar

StartChar: bullet
Encoding: 8226 8226 219
Width: 966
GlyphClass: 2
Flags: W
LayerCount: 2
Fore
SplineSet
344 549 m 256,0,1
 344 649 344 649 415.5 720 c 128,-1,2
 487 791 487 791 587.5 791 c 128,-1,3
 688 791 688 791 759.5 720 c 128,-1,4
 831 649 831 649 831 539.5 c 128,-1,5
 831 430 831 430 762.5 367.5 c 128,-1,6
 694 305 694 305 590.5 305 c 128,-1,7
 487 305 487 305 415.5 377 c 128,-1,8
 344 449 344 449 344 549 c 256,0,1
EndSplineSet
EndChar

StartChar: ellipsis
Encoding: 8230 8230 220
Width: 1294
GlyphClass: 2
Flags: W
LayerCount: 2
Fore
SplineSet
178 193 m 2,0,-1
 201 193 l 2,1,2
 240 193 240 193 273.5 157 c 128,-1,3
 307 121 307 121 307 75 c 128,-1,4
 307 29 307 29 272.5 -5 c 128,-1,5
 238 -39 238 -39 186 -39 c 2,6,-1
 166 -39 l 2,7,8
 125 -39 125 -39 93 -4 c 128,-1,9
 61 31 61 31 61 78 c 128,-1,10
 61 125 61 125 95 159 c 128,-1,11
 129 193 129 193 178 193 c 2,0,-1
614 193 m 2,12,-1
 637 193 l 2,13,14
 676 193 676 193 709.5 157 c 128,-1,15
 743 121 743 121 743 75 c 128,-1,16
 743 29 743 29 708.5 -5 c 128,-1,17
 674 -39 674 -39 623 -39 c 2,18,-1
 602 -39 l 2,19,20
 561 -39 561 -39 529.5 -4 c 128,-1,21
 498 31 498 31 498 78 c 128,-1,22
 498 125 498 125 531.5 159 c 128,-1,23
 565 193 565 193 614 193 c 2,12,-1
1051 193 m 2,24,-1
 1073 193 l 2,25,26
 1112 193 1112 193 1146 157 c 128,-1,27
 1180 121 1180 121 1180 75 c 128,-1,28
 1180 29 1180 29 1145 -5 c 128,-1,29
 1110 -39 1110 -39 1059 -39 c 2,30,-1
 1038 -39 l 2,31,32
 997 -39 997 -39 965.5 -4 c 128,-1,33
 934 31 934 31 934 78 c 128,-1,34
 934 125 934 125 967.5 159 c 128,-1,35
 1001 193 1001 193 1051 193 c 2,24,-1
EndSplineSet
EndChar

StartChar: guilsinglleft
Encoding: 8249 8249 221
Width: 518
GlyphClass: 2
Flags: W
LayerCount: 2
Fore
SplineSet
324 549 m 1,0,-1
 432 215 l 1,1,2
 451 166 451 166 404 166 c 2,3,-1
 371 166 l 2,4,5
 328 166 328 166 311 213 c 2,6,-1
 197 535 l 2,7,8
 180 584 180 584 213 623 c 2,9,-1
 488 938 l 1,10,11
 508 963 508 963 551 963 c 2,12,-1
 584 963 l 2,13,14
 606 963 606 963 612.5 950.5 c 128,-1,15
 619 938 619 938 604 918 c 2,16,-1
 324 549 l 1,0,-1
EndSplineSet
EndChar

StartChar: guilsinglright
Encoding: 8250 8250 222
Width: 518
GlyphClass: 2
Flags: W
LayerCount: 2
Fore
SplineSet
343 580 m 1,0,-1
 234 913 l 1,1,2
 216 963 216 963 263 963 c 2,3,-1
 296 963 l 2,4,5
 339 963 339 963 355 915 c 1,6,-1
 470 594 l 1,7,8
 486 545 486 545 454 506 c 1,9,-1
 179 190 l 2,10,11
 159 166 159 166 116 166 c 2,12,-1
 83 166 l 2,13,14
 34 166 34 166 62 211 c 1,15,-1
 343 580 l 1,0,-1
EndSplineSet
EndChar

StartChar: fraction
Encoding: 8260 8260 223
Width: 1359
GlyphClass: 2
Flags: W
LayerCount: 2
Fore
SplineSet
-40 -55 m 1,0,-1
 -122 -53 l 2,1,2
 -146 -53 -146 -53 -152.5 -32.5 c 128,-1,3
 -159 -12 -159 -12 -134 14 c 2,4,-1
 1363 1518 l 2,5,6
 1410 1565 1410 1565 1461 1565 c 2,7,-1
 1541 1565 l 2,8,9
 1570 1565 1570 1565 1576 1544.5 c 128,-1,10
 1582 1524 1582 1524 1558 1497 c 1,11,-1
 46 -18 l 2,12,13
 9 -55 9 -55 -40 -55 c 1,0,-1
EndSplineSet
EndChar

StartChar: foursuperior
Encoding: 8308 8308 224
Width: 641
GlyphClass: 2
Flags: W
LayerCount: 2
Fore
SplineSet
569 852 m 2,0,-1
 505 852 l 1,1,-1
 456 684 l 1,2,3
 446 655 446 655 409 655 c 2,4,-1
 354 655 l 2,5,6
 335 655 335 655 327 667.5 c 128,-1,7
 319 680 319 680 323 696 c 2,8,-1
 368 852 l 1,9,-1
 134 852 l 2,10,11
 63 852 63 852 44.5 897 c 128,-1,12
 26 942 26 942 67 987 c 1,13,-1
 491 1532 l 1,14,15
 517 1561 517 1561 546 1561 c 2,16,-1
 599 1561 l 2,17,18
 620 1561 620 1561 629 1542.5 c 128,-1,19
 638 1524 638 1524 624 1505 c 2,20,-1
 194 967 l 1,21,-1
 403 967 l 1,22,-1
 458 1159 l 1,23,24
 468 1188 468 1188 505 1188 c 2,25,-1
 560 1188 l 2,26,27
 579 1188 579 1188 587 1175.5 c 128,-1,28
 595 1163 595 1163 591 1147 c 2,29,-1
 538 967 l 1,30,-1
 603 967 l 1,31,32
 626 969 626 969 635 958.5 c 128,-1,33
 644 948 644 948 638 928 c 1,34,-1
 622 889 l 1,35,36
 605 852 605 852 569 852 c 2,0,-1
EndSplineSet
EndChar

StartChar: Euro
Encoding: 8364 8364 227
Width: 921
GlyphClass: 2
Flags: W
LayerCount: 2
Fore
SplineSet
-70 657 m 2,0,-1
 42 657 l 1,1,2
 50 711 50 711 63 764 c 1,3,-1
 -40 764 l 2,4,5
 -62 764 -62 764 -68 772 c 128,-1,6
 -74 780 -74 780 -68 811 c 1,7,-1
 -62 836 l 2,8,9
 -56 862 -56 862 -34 862 c 2,10,-1
 89 862 l 1,11,12
 141 1040 141 1040 231 1191.5 c 128,-1,13
 321 1343 321 1343 446 1426 c 128,-1,14
 571 1509 571 1509 675.5 1491 c 128,-1,15
 780 1473 780 1473 838 1381.5 c 128,-1,16
 896 1290 896 1290 909 1114 c 0,17,18
 913 1065 913 1065 870 1049 c 1,19,-1
 790 1022 l 1,20,21
 771 1014 771 1014 762 1023 c 128,-1,22
 753 1032 753 1032 755 1055 c 1,23,24
 757 1327 757 1327 635 1336.5 c 128,-1,25
 513 1346 513 1346 413 1181 c 128,-1,26
 313 1016 313 1016 268 862 c 1,27,-1
 829 862 l 2,28,29
 864 862 864 862 855 827 c 1,30,-1
 849 799 l 1,31,32
 843 764 843 764 806 764 c 2,33,-1
 239 764 l 1,34,35
 225 713 225 713 214 657 c 1,36,-1
 737 657 l 2,37,38
 767 657 767 657 777.5 648 c 128,-1,39
 788 639 788 639 780 612 c 2,40,-1
 773 590 l 1,41,42
 769 571 769 571 760 565 c 128,-1,43
 751 559 751 559 730 559 c 2,44,-1
 200 559 l 1,45,46
 179 379 179 379 208 256 c 128,-1,47
 237 133 237 133 317 133 c 128,-1,48
 397 133 397 133 464.5 200.5 c 128,-1,49
 532 268 532 268 569 373 c 1,50,51
 579 406 579 406 592 411 c 128,-1,52
 605 416 605 416 644 408 c 1,53,-1
 694 395 l 1,54,55
 726 391 726 391 720 362 c 0,56,57
 718 350 718 350 710 328 c 0,58,59
 634 127 634 127 519.5 52 c 128,-1,60
 405 -23 405 -23 268.5 1 c 128,-1,61
 132 25 132 25 68.5 175.5 c 128,-1,62
 5 326 5 326 30 559 c 1,63,-1
 -85 559 l 2,64,65
 -122 559 -122 559 -113 592 c 1,66,-1
 -105 627 l 2,67,68
 -99 657 -99 657 -70 657 c 2,0,-1
EndSplineSet
EndChar

StartChar: trademark
Encoding: 8482 8482 228
Width: 890
GlyphClass: 2
Flags: W
LayerCount: 2
Fore
SplineSet
95 1556 m 2,0,-1
 597 1556 l 2,1,2
 636 1556 636 1556 624 1509 c 2,3,-1
 620 1493 l 1,4,5
 612 1452 612 1452 577 1452 c 2,6,-1
 390 1452 l 1,7,-1
 284 1024 l 2,8,9
 276 991 276 991 239 991 c 2,10,-1
 194 991 l 2,11,12
 175 991 175 991 168 1004.5 c 128,-1,13
 161 1018 161 1018 165 1036 c 2,14,-1
 267 1452 l 1,15,-1
 95 1452 l 2,16,17
 71 1452 71 1452 64 1459 c 128,-1,18
 57 1466 57 1466 65 1495 c 2,19,-1
 73 1528 l 2,20,21
 79 1556 79 1556 95 1556 c 2,0,-1
822 997 m 2,22,-1
 773 999 l 1,23,24
 739 999 739 999 736 1063 c 0,25,26
 732 1167 732 1167 724 1276 c 1,27,-1
 659 1026 l 2,28,29
 650 993 650 993 614 993 c 2,30,-1
 573 993 l 2,31,32
 554 993 554 993 547 1006.5 c 128,-1,33
 540 1020 540 1020 544 1038 c 2,34,-1
 671 1524 l 2,35,36
 679 1556 679 1556 714 1556 c 2,37,-1
 779 1556 l 2,38,39
 812 1556 812 1556 814 1522 c 0,40,41
 818 1452 818 1452 826.5 1341.5 c 128,-1,42
 835 1231 835 1231 837 1139 c 1,43,-1
 1099 1526 l 2,44,45
 1117 1554 1117 1554 1140 1554 c 2,46,-1
 1191 1554 l 2,47,48
 1210 1554 1210 1554 1217 1541 c 128,-1,49
 1224 1528 1224 1528 1220 1509 c 1,50,-1
 1089 1026 l 1,51,52
 1083 993 1083 993 1046 993 c 2,53,-1
 1005 993 l 2,54,55
 986 993 986 993 979 1006.5 c 128,-1,56
 972 1020 972 1020 976 1038 c 2,57,-1
 1038 1272 l 1,58,59
 1009 1225 1009 1225 956.5 1146 c 128,-1,60
 904 1067 904 1067 892 1045.5 c 128,-1,61
 880 1024 880 1024 864.5 1009.5 c 128,-1,62
 849 995 849 995 822 997 c 2,22,-1
EndSplineSet
EndChar

StartChar: minus
Encoding: 8722 8722 229
Width: 866
GlyphClass: 2
Flags: W
LayerCount: 2
Fore
SplineSet
755 594 m 2,0,-1
 108 594 l 2,1,2
 59 594 59 594 71 641 c 2,3,-1
 85 700 l 2,4,5
 89 721 89 721 100.5 728 c 128,-1,6
 112 735 112 735 132 735 c 2,7,-1
 784 735 l 2,8,9
 802 735 802 735 812 723 c 128,-1,10
 822 711 822 711 818 688 c 2,11,-1
 808 637 l 1,12,13
 798 594 798 594 755 594 c 2,0,-1
EndSplineSet
EndChar

StartChar: r.alt1
Encoding: 65539 -1 230
Width: 747
GlyphClass: 2
Flags: W
LayerCount: 2
Fore
SplineSet
533 874 m 1,0,-1
 290 874 l 1,1,-1
 206 573 l 2,2,3
 193 528 193 528 144 528 c 2,4,-1
 105 528 l 2,5,6
 48 528 48 528 60 575 c 2,7,-1
 140 874 l 1,8,-1
 124 874 l 2,9,10
 52 874 52 874 75 958 c 2,11,-1
 101 1049 l 1,12,13
 112 1083 112 1083 161 1083 c 2,14,-1
 296 1083 l 2,15,16
 347 1083 347 1083 335 1036 c 1,17,-1
 329 1018 l 1,18,-1
 652 1018 l 2,19,20
 689 1018 689 1018 709.5 992.5 c 128,-1,21
 730 967 730 967 710 920 c 0,22,23
 607 672 607 672 556 468 c 128,-1,24
 505 264 505 264 520 203.5 c 128,-1,25
 535 143 535 143 588.5 143 c 128,-1,26
 642 143 642 143 694 145 c 128,-1,27
 746 147 746 147 767 145 c 0,28,29
 816 141 816 141 798 74 c 1,30,-1
 794 53 l 1,31,32
 789 35 789 35 783 27 c 0,33,34
 763 0 763 0 699 0 c 2,35,-1
 566 0 l 2,36,37
 482 0 482 0 418.5 58.5 c 128,-1,38
 355 117 355 117 359 217 c 128,-1,39
 363 317 363 317 419.5 512 c 128,-1,40
 476 707 476 707 533 874 c 1,0,-1
EndSplineSet
EndChar

StartChar: r.alt2
Encoding: 65540 -1 231
Width: 749
GlyphClass: 2
Flags: W
LayerCount: 2
Fore
SplineSet
463 874 m 1,0,-1
 260 874 l 1,1,-1
 195 639 l 2,2,3
 182 594 182 594 135 594 c 2,4,-1
 94 594 l 2,5,6
 37 594 37 594 49 641 c 2,7,-1
 113 874 l 1,8,-1
 72 874 l 2,9,10
 39 874 39 874 25.5 899 c 128,-1,11
 12 924 12 924 23 956 c 1,12,-1
 49 1040 l 1,13,14
 53 1057 53 1057 67.5 1070 c 128,-1,15
 82 1083 82 1083 94 1083 c 2,16,-1
 260 1083 l 2,17,18
 318 1083 318 1083 305 1036 c 1,19,-1
 299 1018 l 1,20,-1
 584 1018 l 2,21,22
 621 1018 621 1018 640.5 992.5 c 128,-1,23
 660 967 660 967 639 920 c 1,24,25
 543 690 543 690 492 493.5 c 128,-1,26
 441 297 441 297 438 225 c 1,27,28
 436 125 436 125 516 180 c 0,29,30
 549 203 549 203 602.5 245 c 128,-1,31
 656 287 656 287 673 298 c 128,-1,32
 690 309 690 309 707.5 303 c 128,-1,33
 725 297 725 297 725 264 c 2,34,-1
 725 219 l 2,35,36
 725 172 725 172 672 133 c 1,37,38
 518 16 518 16 495.5 7 c 128,-1,39
 473 -2 473 -2 424 -2 c 0,40,41
 271 -2 271 -2 289 242 c 0,42,43
 295 317 295 317 350.5 512 c 128,-1,44
 406 707 406 707 463 874 c 1,0,-1
EndSplineSet
EndChar

StartChar: y.alt1
Encoding: 65541 -1 232
Width: 677
GlyphClass: 2
Flags: W
LayerCount: 2
Fore
SplineSet
658 1040 m 2,0,-1
 712 1040 l 2,1,2
 775 1040 775 1040 751 973 c 0,3,4
 448 160 448 160 261 -61 c 0,5,6
 163 -178 163 -178 25.5 -274.5 c 128,-1,7
 -112 -371 -112 -371 -249 -406 c 0,8,9
 -298 -418 -298 -418 -306 -373 c 1,10,-1
 -316 -334 l 1,11,12
 -325 -279 -325 -279 -280 -266 c 1,13,14
 -173 -238 -173 -238 -52 -160 c 128,-1,15
 69 -82 69 -82 149 14 c 1,16,17
 114 41 114 41 118 104 c 0,18,19
 142 485 142 485 112 965 c 0,20,21
 108 1040 108 1040 161 1040 c 2,22,-1
 218 1040 l 2,23,24
 265 1040 265 1040 267 993 c 0,25,26
 292 510 292 510 265 207 c 1,27,28
 423 500 423 500 593 995 c 0,29,30
 609 1040 609 1040 658 1040 c 2,0,-1
EndSplineSet
EndChar

StartChar: a.sans
Encoding: 65542 -1 233
Width: 858
GlyphClass: 2
Flags: W
LayerCount: 2
Fore
SplineSet
603 999 m 1,0,1
 617 1044 617 1044 660 1047 c 1,2,-1
 707 1049 l 1,3,4
 775 1049 775 1049 753 975 c 2,5,-1
 478 57 l 1,6,7
 462 0 462 0 433 0 c 2,8,-1
 376 0 l 2,9,10
 357 0 357 0 347 16.5 c 128,-1,11
 337 33 337 33 341 53 c 2,12,-1
 363 150 l 1,13,14
 312 78 312 78 263 36 c 128,-1,15
 214 -6 214 -6 189.5 -6 c 128,-1,16
 165 -6 165 -6 138 10 c 1,17,18
 -1 113 -1 113 18.5 288 c 128,-1,19
 38 463 38 463 119 676 c 128,-1,20
 200 889 200 889 279.5 962.5 c 128,-1,21
 359 1036 359 1036 454.5 1036 c 128,-1,22
 550 1036 550 1036 603 999 c 1,0,1
572 885 m 1,23,24
 472 940 472 940 402.5 893 c 128,-1,25
 333 846 333 846 265.5 658.5 c 128,-1,26
 198 471 198 471 180.5 370.5 c 128,-1,27
 163 270 163 270 174 222 c 128,-1,28
 185 174 185 174 218 174 c 128,-1,29
 251 174 251 174 319.5 257 c 128,-1,30
 388 340 388 340 442.5 478 c 128,-1,31
 497 616 497 616 572 885 c 1,23,24
EndSplineSet
EndChar

StartChar: r.alt3
Encoding: 65543 -1 234
Width: 813
GlyphClass: 2
Flags: W
LayerCount: 2
Fore
SplineSet
855 76 m 2,0,-1
 849 53 l 2,1,2
 845 35 845 35 839 27 c 0,3,4
 818 0 818 0 755 0 c 2,5,-1
 699 0 l 2,6,7
 597 0 597 0 519 68.5 c 128,-1,8
 441 137 441 137 441 264 c 128,-1,9
 441 391 441 391 500.5 576.5 c 128,-1,10
 560 762 560 762 626 874 c 1,11,-1
 386 874 l 1,12,-1
 163 45 l 2,13,14
 150 0 150 0 101 0 c 2,15,-1
 64 0 l 2,16,17
 7 0 7 0 19 47 c 2,18,-1
 238 874 l 1,19,-1
 210 874 l 2,20,21
 177 874 177 874 162.5 905 c 128,-1,22
 148 936 148 936 165 993 c 2,23,-1
 175 1026 l 2,24,25
 183 1053 183 1053 197.5 1066 c 128,-1,26
 212 1079 212 1079 223 1081 c 128,-1,27
 234 1083 234 1083 259 1083 c 2,28,-1
 384 1083 l 2,29,30
 441 1083 441 1083 429 1036 c 1,31,-1
 425 1018 l 1,32,-1
 742 1018 l 2,33,34
 781 1018 781 1018 800.5 994.5 c 128,-1,35
 820 971 820 971 800 920 c 1,36,37
 599 518 599 518 590 328.5 c 128,-1,38
 581 139 581 139 705 139 c 1,39,-1
 824 147 l 1,40,41
 873 143 873 143 855 76 c 2,0,-1
EndSplineSet
EndChar

StartChar: u.alt2
Encoding: 65544 -1 235
Width: 796
GlyphClass: 2
Flags: W
LayerCount: 2
Fore
SplineSet
544 147 m 1,0,1
 602 190 602 190 653 274 c 0,2,3
 674 309 674 309 704 289 c 2,4,-1
 753 256 l 2,5,6
 786 233 786 233 768 209 c 1,7,8
 698 106 698 106 631.5 55 c 128,-1,9
 565 4 565 4 469 -8 c 1,10,11
 442 -10 442 -10 432 14 c 2,12,-1
 389 129 l 1,13,14
 276 -2 276 -2 139 -2 c 0,15,16
 73 -2 73 -2 36.5 62.5 c 128,-1,17
 0 127 0 127 18.5 228.5 c 128,-1,18
 37 330 37 330 117.5 619.5 c 128,-1,19
 198 909 198 909 229 1012 c 1,20,21
 239 1040 239 1040 270 1040 c 2,22,-1
 356 1040 l 2,23,24
 377 1040 377 1040 383 1032 c 128,-1,25
 389 1024 389 1024 383 991 c 1,26,27
 258 586 258 586 212 411 c 128,-1,28
 166 236 166 236 190.5 199 c 128,-1,29
 215 162 215 162 263 182.5 c 128,-1,30
 311 203 311 203 369.5 270.5 c 128,-1,31
 428 338 428 338 513 559 c 128,-1,32
 598 780 598 780 659 1001 c 0,33,34
 669 1040 669 1040 725 1040 c 2,35,-1
 782 1040 l 2,36,37
 800 1040 800 1040 811.5 1027 c 128,-1,38
 823 1014 823 1014 815 991 c 2,39,-1
 544 147 l 1,0,1
EndSplineSet
EndChar
